G04 #@! TF.GenerationSoftware,KiCad,Pcbnew,(5.1.5)-3*
G04 #@! TF.CreationDate,2020-01-24T23:39:41-08:00*
G04 #@! TF.ProjectId,EUISOpcb,45554953-4f70-4636-922e-6b696361645f,rev?*
G04 #@! TF.SameCoordinates,Original*
G04 #@! TF.FileFunction,Soldermask,Top*
G04 #@! TF.FilePolarity,Negative*
%FSLAX46Y46*%
G04 Gerber Fmt 4.6, Leading zero omitted, Abs format (unit mm)*
G04 Created by KiCad (PCBNEW (5.1.5)-3) date 2020-01-24 23:39:41*
%MOMM*%
%LPD*%
G04 APERTURE LIST*
%ADD10C,0.100000*%
G04 APERTURE END LIST*
D10*
G36*
X56476474Y-121985684D02*
G01*
X56694474Y-122075983D01*
X56848623Y-122139833D01*
X57183548Y-122363623D01*
X57468377Y-122648452D01*
X57692167Y-122983377D01*
X57692167Y-122983378D01*
X57846316Y-123355526D01*
X57924900Y-123750594D01*
X57924900Y-124153406D01*
X57846316Y-124548474D01*
X57784363Y-124698041D01*
X57692167Y-124920623D01*
X57468377Y-125255548D01*
X57183548Y-125540377D01*
X56848623Y-125764167D01*
X56694474Y-125828017D01*
X56476474Y-125918316D01*
X56081406Y-125996900D01*
X55678594Y-125996900D01*
X55283526Y-125918316D01*
X55065526Y-125828017D01*
X54911377Y-125764167D01*
X54576452Y-125540377D01*
X54291623Y-125255548D01*
X54067833Y-124920623D01*
X53975637Y-124698041D01*
X53913684Y-124548474D01*
X53835100Y-124153406D01*
X53835100Y-123750594D01*
X53913684Y-123355526D01*
X54067833Y-122983378D01*
X54067833Y-122983377D01*
X54291623Y-122648452D01*
X54576452Y-122363623D01*
X54911377Y-122139833D01*
X55065526Y-122075983D01*
X55283526Y-121985684D01*
X55678594Y-121907100D01*
X56081406Y-121907100D01*
X56476474Y-121985684D01*
G37*
G36*
X11391474Y-121985684D02*
G01*
X11609474Y-122075983D01*
X11763623Y-122139833D01*
X12098548Y-122363623D01*
X12383377Y-122648452D01*
X12607167Y-122983377D01*
X12607167Y-122983378D01*
X12761316Y-123355526D01*
X12839900Y-123750594D01*
X12839900Y-124153406D01*
X12761316Y-124548474D01*
X12699363Y-124698041D01*
X12607167Y-124920623D01*
X12383377Y-125255548D01*
X12098548Y-125540377D01*
X11763623Y-125764167D01*
X11609474Y-125828017D01*
X11391474Y-125918316D01*
X10996406Y-125996900D01*
X10593594Y-125996900D01*
X10198526Y-125918316D01*
X9980526Y-125828017D01*
X9826377Y-125764167D01*
X9491452Y-125540377D01*
X9206623Y-125255548D01*
X8982833Y-124920623D01*
X8890637Y-124698041D01*
X8828684Y-124548474D01*
X8750100Y-124153406D01*
X8750100Y-123750594D01*
X8828684Y-123355526D01*
X8982833Y-122983378D01*
X8982833Y-122983377D01*
X9206623Y-122648452D01*
X9491452Y-122363623D01*
X9826377Y-122139833D01*
X9980526Y-122075983D01*
X10198526Y-121985684D01*
X10593594Y-121907100D01*
X10996406Y-121907100D01*
X11391474Y-121985684D01*
G37*
G36*
X40947267Y-122407263D02*
G01*
X41099411Y-122437526D01*
X41218137Y-122486704D01*
X41386041Y-122556252D01*
X41386042Y-122556253D01*
X41644004Y-122728617D01*
X41863383Y-122947996D01*
X41887024Y-122983378D01*
X42035748Y-123205959D01*
X42095895Y-123351167D01*
X42154474Y-123492589D01*
X42172637Y-123583900D01*
X42215000Y-123796875D01*
X42215000Y-124107125D01*
X42154474Y-124411410D01*
X42035748Y-124698041D01*
X42035747Y-124698042D01*
X41863383Y-124956004D01*
X41644004Y-125175383D01*
X41524028Y-125255548D01*
X41386041Y-125347748D01*
X41218137Y-125417296D01*
X41099411Y-125466474D01*
X40947267Y-125496737D01*
X40795125Y-125527000D01*
X40484875Y-125527000D01*
X40332733Y-125496737D01*
X40180589Y-125466474D01*
X40061863Y-125417296D01*
X39893959Y-125347748D01*
X39755972Y-125255548D01*
X39635996Y-125175383D01*
X39416617Y-124956004D01*
X39244253Y-124698042D01*
X39244252Y-124698041D01*
X39125526Y-124411410D01*
X39065000Y-124107125D01*
X39065000Y-123796875D01*
X39107363Y-123583900D01*
X39125526Y-123492589D01*
X39184105Y-123351167D01*
X39244252Y-123205959D01*
X39392976Y-122983378D01*
X39416617Y-122947996D01*
X39635996Y-122728617D01*
X39893958Y-122556253D01*
X39893959Y-122556252D01*
X40061863Y-122486704D01*
X40180589Y-122437526D01*
X40332733Y-122407263D01*
X40484875Y-122377000D01*
X40795125Y-122377000D01*
X40947267Y-122407263D01*
G37*
G36*
X26342267Y-122407263D02*
G01*
X26494411Y-122437526D01*
X26613137Y-122486704D01*
X26781041Y-122556252D01*
X26781042Y-122556253D01*
X27039004Y-122728617D01*
X27258383Y-122947996D01*
X27282024Y-122983378D01*
X27430748Y-123205959D01*
X27490895Y-123351167D01*
X27549474Y-123492589D01*
X27567637Y-123583900D01*
X27610000Y-123796875D01*
X27610000Y-124107125D01*
X27549474Y-124411410D01*
X27430748Y-124698041D01*
X27430747Y-124698042D01*
X27258383Y-124956004D01*
X27039004Y-125175383D01*
X26919028Y-125255548D01*
X26781041Y-125347748D01*
X26613137Y-125417296D01*
X26494411Y-125466474D01*
X26342267Y-125496737D01*
X26190125Y-125527000D01*
X25879875Y-125527000D01*
X25727733Y-125496737D01*
X25575589Y-125466474D01*
X25456863Y-125417296D01*
X25288959Y-125347748D01*
X25150972Y-125255548D01*
X25030996Y-125175383D01*
X24811617Y-124956004D01*
X24639253Y-124698042D01*
X24639252Y-124698041D01*
X24520526Y-124411410D01*
X24460000Y-124107125D01*
X24460000Y-123796875D01*
X24502363Y-123583900D01*
X24520526Y-123492589D01*
X24579105Y-123351167D01*
X24639252Y-123205959D01*
X24787976Y-122983378D01*
X24811617Y-122947996D01*
X25030996Y-122728617D01*
X25288958Y-122556253D01*
X25288959Y-122556252D01*
X25456863Y-122486704D01*
X25575589Y-122437526D01*
X25727733Y-122407263D01*
X25879875Y-122377000D01*
X26190125Y-122377000D01*
X26342267Y-122407263D01*
G37*
G36*
X241134474Y-119572684D02*
G01*
X241352474Y-119662983D01*
X241506623Y-119726833D01*
X241841548Y-119950623D01*
X242126377Y-120235452D01*
X242350167Y-120570377D01*
X242382562Y-120648586D01*
X242504316Y-120942526D01*
X242582900Y-121337594D01*
X242582900Y-121740406D01*
X242504316Y-122135474D01*
X242453451Y-122258272D01*
X242350167Y-122507623D01*
X242126377Y-122842548D01*
X241841548Y-123127377D01*
X241506623Y-123351167D01*
X241352474Y-123415017D01*
X241134474Y-123505316D01*
X240739406Y-123583900D01*
X240336594Y-123583900D01*
X239941526Y-123505316D01*
X239723526Y-123415017D01*
X239569377Y-123351167D01*
X239234452Y-123127377D01*
X238949623Y-122842548D01*
X238725833Y-122507623D01*
X238622549Y-122258272D01*
X238571684Y-122135474D01*
X238493100Y-121740406D01*
X238493100Y-121337594D01*
X238571684Y-120942526D01*
X238693438Y-120648586D01*
X238725833Y-120570377D01*
X238949623Y-120235452D01*
X239234452Y-119950623D01*
X239569377Y-119726833D01*
X239723526Y-119662983D01*
X239941526Y-119572684D01*
X240336594Y-119494100D01*
X240739406Y-119494100D01*
X241134474Y-119572684D01*
G37*
G36*
X279234474Y-119572684D02*
G01*
X279452474Y-119662983D01*
X279606623Y-119726833D01*
X279941548Y-119950623D01*
X280226377Y-120235452D01*
X280450167Y-120570377D01*
X280482562Y-120648586D01*
X280604316Y-120942526D01*
X280682900Y-121337594D01*
X280682900Y-121740406D01*
X280604316Y-122135474D01*
X280553451Y-122258272D01*
X280450167Y-122507623D01*
X280226377Y-122842548D01*
X279941548Y-123127377D01*
X279606623Y-123351167D01*
X279452474Y-123415017D01*
X279234474Y-123505316D01*
X278839406Y-123583900D01*
X278436594Y-123583900D01*
X278041526Y-123505316D01*
X277823526Y-123415017D01*
X277669377Y-123351167D01*
X277334452Y-123127377D01*
X277049623Y-122842548D01*
X276825833Y-122507623D01*
X276722549Y-122258272D01*
X276671684Y-122135474D01*
X276593100Y-121740406D01*
X276593100Y-121337594D01*
X276671684Y-120942526D01*
X276793438Y-120648586D01*
X276825833Y-120570377D01*
X277049623Y-120235452D01*
X277334452Y-119950623D01*
X277669377Y-119726833D01*
X277823526Y-119662983D01*
X278041526Y-119572684D01*
X278436594Y-119494100D01*
X278839406Y-119494100D01*
X279234474Y-119572684D01*
G37*
G36*
X222084474Y-119572684D02*
G01*
X222302474Y-119662983D01*
X222456623Y-119726833D01*
X222791548Y-119950623D01*
X223076377Y-120235452D01*
X223300167Y-120570377D01*
X223332562Y-120648586D01*
X223454316Y-120942526D01*
X223532900Y-121337594D01*
X223532900Y-121740406D01*
X223454316Y-122135474D01*
X223403451Y-122258272D01*
X223300167Y-122507623D01*
X223076377Y-122842548D01*
X222791548Y-123127377D01*
X222456623Y-123351167D01*
X222302474Y-123415017D01*
X222084474Y-123505316D01*
X221689406Y-123583900D01*
X221286594Y-123583900D01*
X220891526Y-123505316D01*
X220673526Y-123415017D01*
X220519377Y-123351167D01*
X220184452Y-123127377D01*
X219899623Y-122842548D01*
X219675833Y-122507623D01*
X219572549Y-122258272D01*
X219521684Y-122135474D01*
X219443100Y-121740406D01*
X219443100Y-121337594D01*
X219521684Y-120942526D01*
X219643438Y-120648586D01*
X219675833Y-120570377D01*
X219899623Y-120235452D01*
X220184452Y-119950623D01*
X220519377Y-119726833D01*
X220673526Y-119662983D01*
X220891526Y-119572684D01*
X221286594Y-119494100D01*
X221689406Y-119494100D01*
X222084474Y-119572684D01*
G37*
G36*
X203034474Y-119572684D02*
G01*
X203252474Y-119662983D01*
X203406623Y-119726833D01*
X203741548Y-119950623D01*
X204026377Y-120235452D01*
X204250167Y-120570377D01*
X204282562Y-120648586D01*
X204404316Y-120942526D01*
X204482900Y-121337594D01*
X204482900Y-121740406D01*
X204404316Y-122135474D01*
X204353451Y-122258272D01*
X204250167Y-122507623D01*
X204026377Y-122842548D01*
X203741548Y-123127377D01*
X203406623Y-123351167D01*
X203252474Y-123415017D01*
X203034474Y-123505316D01*
X202639406Y-123583900D01*
X202236594Y-123583900D01*
X201841526Y-123505316D01*
X201623526Y-123415017D01*
X201469377Y-123351167D01*
X201134452Y-123127377D01*
X200849623Y-122842548D01*
X200625833Y-122507623D01*
X200522549Y-122258272D01*
X200471684Y-122135474D01*
X200393100Y-121740406D01*
X200393100Y-121337594D01*
X200471684Y-120942526D01*
X200593438Y-120648586D01*
X200625833Y-120570377D01*
X200849623Y-120235452D01*
X201134452Y-119950623D01*
X201469377Y-119726833D01*
X201623526Y-119662983D01*
X201841526Y-119572684D01*
X202236594Y-119494100D01*
X202639406Y-119494100D01*
X203034474Y-119572684D01*
G37*
G36*
X69684474Y-119572684D02*
G01*
X69902474Y-119662983D01*
X70056623Y-119726833D01*
X70391548Y-119950623D01*
X70676377Y-120235452D01*
X70900167Y-120570377D01*
X70932562Y-120648586D01*
X71054316Y-120942526D01*
X71132900Y-121337594D01*
X71132900Y-121740406D01*
X71054316Y-122135474D01*
X71003451Y-122258272D01*
X70900167Y-122507623D01*
X70676377Y-122842548D01*
X70391548Y-123127377D01*
X70056623Y-123351167D01*
X69902474Y-123415017D01*
X69684474Y-123505316D01*
X69289406Y-123583900D01*
X68886594Y-123583900D01*
X68491526Y-123505316D01*
X68273526Y-123415017D01*
X68119377Y-123351167D01*
X67784452Y-123127377D01*
X67499623Y-122842548D01*
X67275833Y-122507623D01*
X67172549Y-122258272D01*
X67121684Y-122135474D01*
X67043100Y-121740406D01*
X67043100Y-121337594D01*
X67121684Y-120942526D01*
X67243438Y-120648586D01*
X67275833Y-120570377D01*
X67499623Y-120235452D01*
X67784452Y-119950623D01*
X68119377Y-119726833D01*
X68273526Y-119662983D01*
X68491526Y-119572684D01*
X68886594Y-119494100D01*
X69289406Y-119494100D01*
X69684474Y-119572684D01*
G37*
G36*
X183984474Y-119572684D02*
G01*
X184202474Y-119662983D01*
X184356623Y-119726833D01*
X184691548Y-119950623D01*
X184976377Y-120235452D01*
X185200167Y-120570377D01*
X185232562Y-120648586D01*
X185354316Y-120942526D01*
X185432900Y-121337594D01*
X185432900Y-121740406D01*
X185354316Y-122135474D01*
X185303451Y-122258272D01*
X185200167Y-122507623D01*
X184976377Y-122842548D01*
X184691548Y-123127377D01*
X184356623Y-123351167D01*
X184202474Y-123415017D01*
X183984474Y-123505316D01*
X183589406Y-123583900D01*
X183186594Y-123583900D01*
X182791526Y-123505316D01*
X182573526Y-123415017D01*
X182419377Y-123351167D01*
X182084452Y-123127377D01*
X181799623Y-122842548D01*
X181575833Y-122507623D01*
X181472549Y-122258272D01*
X181421684Y-122135474D01*
X181343100Y-121740406D01*
X181343100Y-121337594D01*
X181421684Y-120942526D01*
X181543438Y-120648586D01*
X181575833Y-120570377D01*
X181799623Y-120235452D01*
X182084452Y-119950623D01*
X182419377Y-119726833D01*
X182573526Y-119662983D01*
X182791526Y-119572684D01*
X183186594Y-119494100D01*
X183589406Y-119494100D01*
X183984474Y-119572684D01*
G37*
G36*
X164934474Y-119572684D02*
G01*
X165152474Y-119662983D01*
X165306623Y-119726833D01*
X165641548Y-119950623D01*
X165926377Y-120235452D01*
X166150167Y-120570377D01*
X166182562Y-120648586D01*
X166304316Y-120942526D01*
X166382900Y-121337594D01*
X166382900Y-121740406D01*
X166304316Y-122135474D01*
X166253451Y-122258272D01*
X166150167Y-122507623D01*
X165926377Y-122842548D01*
X165641548Y-123127377D01*
X165306623Y-123351167D01*
X165152474Y-123415017D01*
X164934474Y-123505316D01*
X164539406Y-123583900D01*
X164136594Y-123583900D01*
X163741526Y-123505316D01*
X163523526Y-123415017D01*
X163369377Y-123351167D01*
X163034452Y-123127377D01*
X162749623Y-122842548D01*
X162525833Y-122507623D01*
X162422549Y-122258272D01*
X162371684Y-122135474D01*
X162293100Y-121740406D01*
X162293100Y-121337594D01*
X162371684Y-120942526D01*
X162493438Y-120648586D01*
X162525833Y-120570377D01*
X162749623Y-120235452D01*
X163034452Y-119950623D01*
X163369377Y-119726833D01*
X163523526Y-119662983D01*
X163741526Y-119572684D01*
X164136594Y-119494100D01*
X164539406Y-119494100D01*
X164934474Y-119572684D01*
G37*
G36*
X145884474Y-119572684D02*
G01*
X146102474Y-119662983D01*
X146256623Y-119726833D01*
X146591548Y-119950623D01*
X146876377Y-120235452D01*
X147100167Y-120570377D01*
X147132562Y-120648586D01*
X147254316Y-120942526D01*
X147332900Y-121337594D01*
X147332900Y-121740406D01*
X147254316Y-122135474D01*
X147203451Y-122258272D01*
X147100167Y-122507623D01*
X146876377Y-122842548D01*
X146591548Y-123127377D01*
X146256623Y-123351167D01*
X146102474Y-123415017D01*
X145884474Y-123505316D01*
X145489406Y-123583900D01*
X145086594Y-123583900D01*
X144691526Y-123505316D01*
X144473526Y-123415017D01*
X144319377Y-123351167D01*
X143984452Y-123127377D01*
X143699623Y-122842548D01*
X143475833Y-122507623D01*
X143372549Y-122258272D01*
X143321684Y-122135474D01*
X143243100Y-121740406D01*
X143243100Y-121337594D01*
X143321684Y-120942526D01*
X143443438Y-120648586D01*
X143475833Y-120570377D01*
X143699623Y-120235452D01*
X143984452Y-119950623D01*
X144319377Y-119726833D01*
X144473526Y-119662983D01*
X144691526Y-119572684D01*
X145086594Y-119494100D01*
X145489406Y-119494100D01*
X145884474Y-119572684D01*
G37*
G36*
X107784474Y-119572684D02*
G01*
X108002474Y-119662983D01*
X108156623Y-119726833D01*
X108491548Y-119950623D01*
X108776377Y-120235452D01*
X109000167Y-120570377D01*
X109032562Y-120648586D01*
X109154316Y-120942526D01*
X109232900Y-121337594D01*
X109232900Y-121740406D01*
X109154316Y-122135474D01*
X109103451Y-122258272D01*
X109000167Y-122507623D01*
X108776377Y-122842548D01*
X108491548Y-123127377D01*
X108156623Y-123351167D01*
X108002474Y-123415017D01*
X107784474Y-123505316D01*
X107389406Y-123583900D01*
X106986594Y-123583900D01*
X106591526Y-123505316D01*
X106373526Y-123415017D01*
X106219377Y-123351167D01*
X105884452Y-123127377D01*
X105599623Y-122842548D01*
X105375833Y-122507623D01*
X105272549Y-122258272D01*
X105221684Y-122135474D01*
X105143100Y-121740406D01*
X105143100Y-121337594D01*
X105221684Y-120942526D01*
X105343438Y-120648586D01*
X105375833Y-120570377D01*
X105599623Y-120235452D01*
X105884452Y-119950623D01*
X106219377Y-119726833D01*
X106373526Y-119662983D01*
X106591526Y-119572684D01*
X106986594Y-119494100D01*
X107389406Y-119494100D01*
X107784474Y-119572684D01*
G37*
G36*
X126834474Y-119572684D02*
G01*
X127052474Y-119662983D01*
X127206623Y-119726833D01*
X127541548Y-119950623D01*
X127826377Y-120235452D01*
X128050167Y-120570377D01*
X128082562Y-120648586D01*
X128204316Y-120942526D01*
X128282900Y-121337594D01*
X128282900Y-121740406D01*
X128204316Y-122135474D01*
X128153451Y-122258272D01*
X128050167Y-122507623D01*
X127826377Y-122842548D01*
X127541548Y-123127377D01*
X127206623Y-123351167D01*
X127052474Y-123415017D01*
X126834474Y-123505316D01*
X126439406Y-123583900D01*
X126036594Y-123583900D01*
X125641526Y-123505316D01*
X125423526Y-123415017D01*
X125269377Y-123351167D01*
X124934452Y-123127377D01*
X124649623Y-122842548D01*
X124425833Y-122507623D01*
X124322549Y-122258272D01*
X124271684Y-122135474D01*
X124193100Y-121740406D01*
X124193100Y-121337594D01*
X124271684Y-120942526D01*
X124393438Y-120648586D01*
X124425833Y-120570377D01*
X124649623Y-120235452D01*
X124934452Y-119950623D01*
X125269377Y-119726833D01*
X125423526Y-119662983D01*
X125641526Y-119572684D01*
X126036594Y-119494100D01*
X126439406Y-119494100D01*
X126834474Y-119572684D01*
G37*
G36*
X88734474Y-119572684D02*
G01*
X88952474Y-119662983D01*
X89106623Y-119726833D01*
X89441548Y-119950623D01*
X89726377Y-120235452D01*
X89950167Y-120570377D01*
X89982562Y-120648586D01*
X90104316Y-120942526D01*
X90182900Y-121337594D01*
X90182900Y-121740406D01*
X90104316Y-122135474D01*
X90053451Y-122258272D01*
X89950167Y-122507623D01*
X89726377Y-122842548D01*
X89441548Y-123127377D01*
X89106623Y-123351167D01*
X88952474Y-123415017D01*
X88734474Y-123505316D01*
X88339406Y-123583900D01*
X87936594Y-123583900D01*
X87541526Y-123505316D01*
X87323526Y-123415017D01*
X87169377Y-123351167D01*
X86834452Y-123127377D01*
X86549623Y-122842548D01*
X86325833Y-122507623D01*
X86222549Y-122258272D01*
X86171684Y-122135474D01*
X86093100Y-121740406D01*
X86093100Y-121337594D01*
X86171684Y-120942526D01*
X86293438Y-120648586D01*
X86325833Y-120570377D01*
X86549623Y-120235452D01*
X86834452Y-119950623D01*
X87169377Y-119726833D01*
X87323526Y-119662983D01*
X87541526Y-119572684D01*
X87936594Y-119494100D01*
X88339406Y-119494100D01*
X88734474Y-119572684D01*
G37*
G36*
X260184474Y-119572684D02*
G01*
X260402474Y-119662983D01*
X260556623Y-119726833D01*
X260891548Y-119950623D01*
X261176377Y-120235452D01*
X261400167Y-120570377D01*
X261432562Y-120648586D01*
X261554316Y-120942526D01*
X261632900Y-121337594D01*
X261632900Y-121740406D01*
X261554316Y-122135474D01*
X261503451Y-122258272D01*
X261400167Y-122507623D01*
X261176377Y-122842548D01*
X260891548Y-123127377D01*
X260556623Y-123351167D01*
X260402474Y-123415017D01*
X260184474Y-123505316D01*
X259789406Y-123583900D01*
X259386594Y-123583900D01*
X258991526Y-123505316D01*
X258773526Y-123415017D01*
X258619377Y-123351167D01*
X258284452Y-123127377D01*
X257999623Y-122842548D01*
X257775833Y-122507623D01*
X257672549Y-122258272D01*
X257621684Y-122135474D01*
X257543100Y-121740406D01*
X257543100Y-121337594D01*
X257621684Y-120942526D01*
X257743438Y-120648586D01*
X257775833Y-120570377D01*
X257999623Y-120235452D01*
X258284452Y-119950623D01*
X258619377Y-119726833D01*
X258773526Y-119662983D01*
X258991526Y-119572684D01*
X259386594Y-119494100D01*
X259789406Y-119494100D01*
X260184474Y-119572684D01*
G37*
G36*
X188738104Y-120648585D02*
G01*
X188906626Y-120718389D01*
X189058291Y-120819728D01*
X189187272Y-120948709D01*
X189288611Y-121100374D01*
X189358415Y-121268896D01*
X189394000Y-121447797D01*
X189394000Y-121630203D01*
X189358415Y-121809104D01*
X189288611Y-121977626D01*
X189187272Y-122129291D01*
X189058291Y-122258272D01*
X188906626Y-122359611D01*
X188738104Y-122429415D01*
X188559203Y-122465000D01*
X188376797Y-122465000D01*
X188197896Y-122429415D01*
X188029374Y-122359611D01*
X187877709Y-122258272D01*
X187748728Y-122129291D01*
X187647389Y-121977626D01*
X187577585Y-121809104D01*
X187542000Y-121630203D01*
X187542000Y-121447797D01*
X187577585Y-121268896D01*
X187647389Y-121100374D01*
X187748728Y-120948709D01*
X187877709Y-120819728D01*
X188029374Y-120718389D01*
X188197896Y-120648585D01*
X188376797Y-120613000D01*
X188559203Y-120613000D01*
X188738104Y-120648585D01*
G37*
G36*
X178578104Y-120648585D02*
G01*
X178746626Y-120718389D01*
X178898291Y-120819728D01*
X179027272Y-120948709D01*
X179128611Y-121100374D01*
X179198415Y-121268896D01*
X179234000Y-121447797D01*
X179234000Y-121630203D01*
X179198415Y-121809104D01*
X179128611Y-121977626D01*
X179027272Y-122129291D01*
X178898291Y-122258272D01*
X178746626Y-122359611D01*
X178578104Y-122429415D01*
X178399203Y-122465000D01*
X178216797Y-122465000D01*
X178037896Y-122429415D01*
X177869374Y-122359611D01*
X177717709Y-122258272D01*
X177588728Y-122129291D01*
X177487389Y-121977626D01*
X177417585Y-121809104D01*
X177382000Y-121630203D01*
X177382000Y-121447797D01*
X177417585Y-121268896D01*
X177487389Y-121100374D01*
X177588728Y-120948709D01*
X177717709Y-120819728D01*
X177869374Y-120718389D01*
X178037896Y-120648585D01*
X178216797Y-120613000D01*
X178399203Y-120613000D01*
X178578104Y-120648585D01*
G37*
G36*
X207788104Y-120648585D02*
G01*
X207956626Y-120718389D01*
X208108291Y-120819728D01*
X208237272Y-120948709D01*
X208338611Y-121100374D01*
X208408415Y-121268896D01*
X208444000Y-121447797D01*
X208444000Y-121630203D01*
X208408415Y-121809104D01*
X208338611Y-121977626D01*
X208237272Y-122129291D01*
X208108291Y-122258272D01*
X207956626Y-122359611D01*
X207788104Y-122429415D01*
X207609203Y-122465000D01*
X207426797Y-122465000D01*
X207247896Y-122429415D01*
X207079374Y-122359611D01*
X206927709Y-122258272D01*
X206798728Y-122129291D01*
X206697389Y-121977626D01*
X206627585Y-121809104D01*
X206592000Y-121630203D01*
X206592000Y-121447797D01*
X206627585Y-121268896D01*
X206697389Y-121100374D01*
X206798728Y-120948709D01*
X206927709Y-120819728D01*
X207079374Y-120718389D01*
X207247896Y-120648585D01*
X207426797Y-120613000D01*
X207609203Y-120613000D01*
X207788104Y-120648585D01*
G37*
G36*
X197628104Y-120648585D02*
G01*
X197796626Y-120718389D01*
X197948291Y-120819728D01*
X198077272Y-120948709D01*
X198178611Y-121100374D01*
X198248415Y-121268896D01*
X198284000Y-121447797D01*
X198284000Y-121630203D01*
X198248415Y-121809104D01*
X198178611Y-121977626D01*
X198077272Y-122129291D01*
X197948291Y-122258272D01*
X197796626Y-122359611D01*
X197628104Y-122429415D01*
X197449203Y-122465000D01*
X197266797Y-122465000D01*
X197087896Y-122429415D01*
X196919374Y-122359611D01*
X196767709Y-122258272D01*
X196638728Y-122129291D01*
X196537389Y-121977626D01*
X196467585Y-121809104D01*
X196432000Y-121630203D01*
X196432000Y-121447797D01*
X196467585Y-121268896D01*
X196537389Y-121100374D01*
X196638728Y-120948709D01*
X196767709Y-120819728D01*
X196919374Y-120718389D01*
X197087896Y-120648585D01*
X197266797Y-120613000D01*
X197449203Y-120613000D01*
X197628104Y-120648585D01*
G37*
G36*
X226838104Y-120648585D02*
G01*
X227006626Y-120718389D01*
X227158291Y-120819728D01*
X227287272Y-120948709D01*
X227388611Y-121100374D01*
X227458415Y-121268896D01*
X227494000Y-121447797D01*
X227494000Y-121630203D01*
X227458415Y-121809104D01*
X227388611Y-121977626D01*
X227287272Y-122129291D01*
X227158291Y-122258272D01*
X227006626Y-122359611D01*
X226838104Y-122429415D01*
X226659203Y-122465000D01*
X226476797Y-122465000D01*
X226297896Y-122429415D01*
X226129374Y-122359611D01*
X225977709Y-122258272D01*
X225848728Y-122129291D01*
X225747389Y-121977626D01*
X225677585Y-121809104D01*
X225642000Y-121630203D01*
X225642000Y-121447797D01*
X225677585Y-121268896D01*
X225747389Y-121100374D01*
X225848728Y-120948709D01*
X225977709Y-120819728D01*
X226129374Y-120718389D01*
X226297896Y-120648585D01*
X226476797Y-120613000D01*
X226659203Y-120613000D01*
X226838104Y-120648585D01*
G37*
G36*
X216678104Y-120648585D02*
G01*
X216846626Y-120718389D01*
X216998291Y-120819728D01*
X217127272Y-120948709D01*
X217228611Y-121100374D01*
X217298415Y-121268896D01*
X217334000Y-121447797D01*
X217334000Y-121630203D01*
X217298415Y-121809104D01*
X217228611Y-121977626D01*
X217127272Y-122129291D01*
X216998291Y-122258272D01*
X216846626Y-122359611D01*
X216678104Y-122429415D01*
X216499203Y-122465000D01*
X216316797Y-122465000D01*
X216137896Y-122429415D01*
X215969374Y-122359611D01*
X215817709Y-122258272D01*
X215688728Y-122129291D01*
X215587389Y-121977626D01*
X215517585Y-121809104D01*
X215482000Y-121630203D01*
X215482000Y-121447797D01*
X215517585Y-121268896D01*
X215587389Y-121100374D01*
X215688728Y-120948709D01*
X215817709Y-120819728D01*
X215969374Y-120718389D01*
X216137896Y-120648585D01*
X216316797Y-120613000D01*
X216499203Y-120613000D01*
X216678104Y-120648585D01*
G37*
G36*
X245888104Y-120648585D02*
G01*
X246056626Y-120718389D01*
X246208291Y-120819728D01*
X246337272Y-120948709D01*
X246438611Y-121100374D01*
X246508415Y-121268896D01*
X246544000Y-121447797D01*
X246544000Y-121630203D01*
X246508415Y-121809104D01*
X246438611Y-121977626D01*
X246337272Y-122129291D01*
X246208291Y-122258272D01*
X246056626Y-122359611D01*
X245888104Y-122429415D01*
X245709203Y-122465000D01*
X245526797Y-122465000D01*
X245347896Y-122429415D01*
X245179374Y-122359611D01*
X245027709Y-122258272D01*
X244898728Y-122129291D01*
X244797389Y-121977626D01*
X244727585Y-121809104D01*
X244692000Y-121630203D01*
X244692000Y-121447797D01*
X244727585Y-121268896D01*
X244797389Y-121100374D01*
X244898728Y-120948709D01*
X245027709Y-120819728D01*
X245179374Y-120718389D01*
X245347896Y-120648585D01*
X245526797Y-120613000D01*
X245709203Y-120613000D01*
X245888104Y-120648585D01*
G37*
G36*
X273828104Y-120648585D02*
G01*
X273996626Y-120718389D01*
X274148291Y-120819728D01*
X274277272Y-120948709D01*
X274378611Y-121100374D01*
X274448415Y-121268896D01*
X274484000Y-121447797D01*
X274484000Y-121630203D01*
X274448415Y-121809104D01*
X274378611Y-121977626D01*
X274277272Y-122129291D01*
X274148291Y-122258272D01*
X273996626Y-122359611D01*
X273828104Y-122429415D01*
X273649203Y-122465000D01*
X273466797Y-122465000D01*
X273287896Y-122429415D01*
X273119374Y-122359611D01*
X272967709Y-122258272D01*
X272838728Y-122129291D01*
X272737389Y-121977626D01*
X272667585Y-121809104D01*
X272632000Y-121630203D01*
X272632000Y-121447797D01*
X272667585Y-121268896D01*
X272737389Y-121100374D01*
X272838728Y-120948709D01*
X272967709Y-120819728D01*
X273119374Y-120718389D01*
X273287896Y-120648585D01*
X273466797Y-120613000D01*
X273649203Y-120613000D01*
X273828104Y-120648585D01*
G37*
G36*
X283988104Y-120648585D02*
G01*
X284156626Y-120718389D01*
X284308291Y-120819728D01*
X284437272Y-120948709D01*
X284538611Y-121100374D01*
X284608415Y-121268896D01*
X284644000Y-121447797D01*
X284644000Y-121630203D01*
X284608415Y-121809104D01*
X284538611Y-121977626D01*
X284437272Y-122129291D01*
X284308291Y-122258272D01*
X284156626Y-122359611D01*
X283988104Y-122429415D01*
X283809203Y-122465000D01*
X283626797Y-122465000D01*
X283447896Y-122429415D01*
X283279374Y-122359611D01*
X283127709Y-122258272D01*
X282998728Y-122129291D01*
X282897389Y-121977626D01*
X282827585Y-121809104D01*
X282792000Y-121630203D01*
X282792000Y-121447797D01*
X282827585Y-121268896D01*
X282897389Y-121100374D01*
X282998728Y-120948709D01*
X283127709Y-120819728D01*
X283279374Y-120718389D01*
X283447896Y-120648585D01*
X283626797Y-120613000D01*
X283809203Y-120613000D01*
X283988104Y-120648585D01*
G37*
G36*
X254778104Y-120648585D02*
G01*
X254946626Y-120718389D01*
X255098291Y-120819728D01*
X255227272Y-120948709D01*
X255328611Y-121100374D01*
X255398415Y-121268896D01*
X255434000Y-121447797D01*
X255434000Y-121630203D01*
X255398415Y-121809104D01*
X255328611Y-121977626D01*
X255227272Y-122129291D01*
X255098291Y-122258272D01*
X254946626Y-122359611D01*
X254778104Y-122429415D01*
X254599203Y-122465000D01*
X254416797Y-122465000D01*
X254237896Y-122429415D01*
X254069374Y-122359611D01*
X253917709Y-122258272D01*
X253788728Y-122129291D01*
X253687389Y-121977626D01*
X253617585Y-121809104D01*
X253582000Y-121630203D01*
X253582000Y-121447797D01*
X253617585Y-121268896D01*
X253687389Y-121100374D01*
X253788728Y-120948709D01*
X253917709Y-120819728D01*
X254069374Y-120718389D01*
X254237896Y-120648585D01*
X254416797Y-120613000D01*
X254599203Y-120613000D01*
X254778104Y-120648585D01*
G37*
G36*
X264938104Y-120648585D02*
G01*
X265106626Y-120718389D01*
X265258291Y-120819728D01*
X265387272Y-120948709D01*
X265488611Y-121100374D01*
X265558415Y-121268896D01*
X265594000Y-121447797D01*
X265594000Y-121630203D01*
X265558415Y-121809104D01*
X265488611Y-121977626D01*
X265387272Y-122129291D01*
X265258291Y-122258272D01*
X265106626Y-122359611D01*
X264938104Y-122429415D01*
X264759203Y-122465000D01*
X264576797Y-122465000D01*
X264397896Y-122429415D01*
X264229374Y-122359611D01*
X264077709Y-122258272D01*
X263948728Y-122129291D01*
X263847389Y-121977626D01*
X263777585Y-121809104D01*
X263742000Y-121630203D01*
X263742000Y-121447797D01*
X263777585Y-121268896D01*
X263847389Y-121100374D01*
X263948728Y-120948709D01*
X264077709Y-120819728D01*
X264229374Y-120718389D01*
X264397896Y-120648585D01*
X264576797Y-120613000D01*
X264759203Y-120613000D01*
X264938104Y-120648585D01*
G37*
G36*
X169688104Y-120648585D02*
G01*
X169856626Y-120718389D01*
X170008291Y-120819728D01*
X170137272Y-120948709D01*
X170238611Y-121100374D01*
X170308415Y-121268896D01*
X170344000Y-121447797D01*
X170344000Y-121630203D01*
X170308415Y-121809104D01*
X170238611Y-121977626D01*
X170137272Y-122129291D01*
X170008291Y-122258272D01*
X169856626Y-122359611D01*
X169688104Y-122429415D01*
X169509203Y-122465000D01*
X169326797Y-122465000D01*
X169147896Y-122429415D01*
X168979374Y-122359611D01*
X168827709Y-122258272D01*
X168698728Y-122129291D01*
X168597389Y-121977626D01*
X168527585Y-121809104D01*
X168492000Y-121630203D01*
X168492000Y-121447797D01*
X168527585Y-121268896D01*
X168597389Y-121100374D01*
X168698728Y-120948709D01*
X168827709Y-120819728D01*
X168979374Y-120718389D01*
X169147896Y-120648585D01*
X169326797Y-120613000D01*
X169509203Y-120613000D01*
X169688104Y-120648585D01*
G37*
G36*
X83328104Y-120648585D02*
G01*
X83496626Y-120718389D01*
X83648291Y-120819728D01*
X83777272Y-120948709D01*
X83878611Y-121100374D01*
X83948415Y-121268896D01*
X83984000Y-121447797D01*
X83984000Y-121630203D01*
X83948415Y-121809104D01*
X83878611Y-121977626D01*
X83777272Y-122129291D01*
X83648291Y-122258272D01*
X83496626Y-122359611D01*
X83328104Y-122429415D01*
X83149203Y-122465000D01*
X82966797Y-122465000D01*
X82787896Y-122429415D01*
X82619374Y-122359611D01*
X82467709Y-122258272D01*
X82338728Y-122129291D01*
X82237389Y-121977626D01*
X82167585Y-121809104D01*
X82132000Y-121630203D01*
X82132000Y-121447797D01*
X82167585Y-121268896D01*
X82237389Y-121100374D01*
X82338728Y-120948709D01*
X82467709Y-120819728D01*
X82619374Y-120718389D01*
X82787896Y-120648585D01*
X82966797Y-120613000D01*
X83149203Y-120613000D01*
X83328104Y-120648585D01*
G37*
G36*
X93488104Y-120648585D02*
G01*
X93656626Y-120718389D01*
X93808291Y-120819728D01*
X93937272Y-120948709D01*
X94038611Y-121100374D01*
X94108415Y-121268896D01*
X94144000Y-121447797D01*
X94144000Y-121630203D01*
X94108415Y-121809104D01*
X94038611Y-121977626D01*
X93937272Y-122129291D01*
X93808291Y-122258272D01*
X93656626Y-122359611D01*
X93488104Y-122429415D01*
X93309203Y-122465000D01*
X93126797Y-122465000D01*
X92947896Y-122429415D01*
X92779374Y-122359611D01*
X92627709Y-122258272D01*
X92498728Y-122129291D01*
X92397389Y-121977626D01*
X92327585Y-121809104D01*
X92292000Y-121630203D01*
X92292000Y-121447797D01*
X92327585Y-121268896D01*
X92397389Y-121100374D01*
X92498728Y-120948709D01*
X92627709Y-120819728D01*
X92779374Y-120718389D01*
X92947896Y-120648585D01*
X93126797Y-120613000D01*
X93309203Y-120613000D01*
X93488104Y-120648585D01*
G37*
G36*
X64278104Y-120648585D02*
G01*
X64446626Y-120718389D01*
X64598291Y-120819728D01*
X64727272Y-120948709D01*
X64828611Y-121100374D01*
X64898415Y-121268896D01*
X64934000Y-121447797D01*
X64934000Y-121630203D01*
X64898415Y-121809104D01*
X64828611Y-121977626D01*
X64727272Y-122129291D01*
X64598291Y-122258272D01*
X64446626Y-122359611D01*
X64278104Y-122429415D01*
X64099203Y-122465000D01*
X63916797Y-122465000D01*
X63737896Y-122429415D01*
X63569374Y-122359611D01*
X63417709Y-122258272D01*
X63288728Y-122129291D01*
X63187389Y-121977626D01*
X63117585Y-121809104D01*
X63082000Y-121630203D01*
X63082000Y-121447797D01*
X63117585Y-121268896D01*
X63187389Y-121100374D01*
X63288728Y-120948709D01*
X63417709Y-120819728D01*
X63569374Y-120718389D01*
X63737896Y-120648585D01*
X63916797Y-120613000D01*
X64099203Y-120613000D01*
X64278104Y-120648585D01*
G37*
G36*
X74438104Y-120648585D02*
G01*
X74606626Y-120718389D01*
X74758291Y-120819728D01*
X74887272Y-120948709D01*
X74988611Y-121100374D01*
X75058415Y-121268896D01*
X75094000Y-121447797D01*
X75094000Y-121630203D01*
X75058415Y-121809104D01*
X74988611Y-121977626D01*
X74887272Y-122129291D01*
X74758291Y-122258272D01*
X74606626Y-122359611D01*
X74438104Y-122429415D01*
X74259203Y-122465000D01*
X74076797Y-122465000D01*
X73897896Y-122429415D01*
X73729374Y-122359611D01*
X73577709Y-122258272D01*
X73448728Y-122129291D01*
X73347389Y-121977626D01*
X73277585Y-121809104D01*
X73242000Y-121630203D01*
X73242000Y-121447797D01*
X73277585Y-121268896D01*
X73347389Y-121100374D01*
X73448728Y-120948709D01*
X73577709Y-120819728D01*
X73729374Y-120718389D01*
X73897896Y-120648585D01*
X74076797Y-120613000D01*
X74259203Y-120613000D01*
X74438104Y-120648585D01*
G37*
G36*
X112538104Y-120648585D02*
G01*
X112706626Y-120718389D01*
X112858291Y-120819728D01*
X112987272Y-120948709D01*
X113088611Y-121100374D01*
X113158415Y-121268896D01*
X113194000Y-121447797D01*
X113194000Y-121630203D01*
X113158415Y-121809104D01*
X113088611Y-121977626D01*
X112987272Y-122129291D01*
X112858291Y-122258272D01*
X112706626Y-122359611D01*
X112538104Y-122429415D01*
X112359203Y-122465000D01*
X112176797Y-122465000D01*
X111997896Y-122429415D01*
X111829374Y-122359611D01*
X111677709Y-122258272D01*
X111548728Y-122129291D01*
X111447389Y-121977626D01*
X111377585Y-121809104D01*
X111342000Y-121630203D01*
X111342000Y-121447797D01*
X111377585Y-121268896D01*
X111447389Y-121100374D01*
X111548728Y-120948709D01*
X111677709Y-120819728D01*
X111829374Y-120718389D01*
X111997896Y-120648585D01*
X112176797Y-120613000D01*
X112359203Y-120613000D01*
X112538104Y-120648585D01*
G37*
G36*
X102378104Y-120648585D02*
G01*
X102546626Y-120718389D01*
X102698291Y-120819728D01*
X102827272Y-120948709D01*
X102928611Y-121100374D01*
X102998415Y-121268896D01*
X103034000Y-121447797D01*
X103034000Y-121630203D01*
X102998415Y-121809104D01*
X102928611Y-121977626D01*
X102827272Y-122129291D01*
X102698291Y-122258272D01*
X102546626Y-122359611D01*
X102378104Y-122429415D01*
X102199203Y-122465000D01*
X102016797Y-122465000D01*
X101837896Y-122429415D01*
X101669374Y-122359611D01*
X101517709Y-122258272D01*
X101388728Y-122129291D01*
X101287389Y-121977626D01*
X101217585Y-121809104D01*
X101182000Y-121630203D01*
X101182000Y-121447797D01*
X101217585Y-121268896D01*
X101287389Y-121100374D01*
X101388728Y-120948709D01*
X101517709Y-120819728D01*
X101669374Y-120718389D01*
X101837896Y-120648585D01*
X102016797Y-120613000D01*
X102199203Y-120613000D01*
X102378104Y-120648585D01*
G37*
G36*
X235728104Y-120648585D02*
G01*
X235896626Y-120718389D01*
X236048291Y-120819728D01*
X236177272Y-120948709D01*
X236278611Y-121100374D01*
X236348415Y-121268896D01*
X236384000Y-121447797D01*
X236384000Y-121630203D01*
X236348415Y-121809104D01*
X236278611Y-121977626D01*
X236177272Y-122129291D01*
X236048291Y-122258272D01*
X235896626Y-122359611D01*
X235728104Y-122429415D01*
X235549203Y-122465000D01*
X235366797Y-122465000D01*
X235187896Y-122429415D01*
X235019374Y-122359611D01*
X234867709Y-122258272D01*
X234738728Y-122129291D01*
X234637389Y-121977626D01*
X234567585Y-121809104D01*
X234532000Y-121630203D01*
X234532000Y-121447797D01*
X234567585Y-121268896D01*
X234637389Y-121100374D01*
X234738728Y-120948709D01*
X234867709Y-120819728D01*
X235019374Y-120718389D01*
X235187896Y-120648585D01*
X235366797Y-120613000D01*
X235549203Y-120613000D01*
X235728104Y-120648585D01*
G37*
G36*
X131588104Y-120648585D02*
G01*
X131756626Y-120718389D01*
X131908291Y-120819728D01*
X132037272Y-120948709D01*
X132138611Y-121100374D01*
X132208415Y-121268896D01*
X132244000Y-121447797D01*
X132244000Y-121630203D01*
X132208415Y-121809104D01*
X132138611Y-121977626D01*
X132037272Y-122129291D01*
X131908291Y-122258272D01*
X131756626Y-122359611D01*
X131588104Y-122429415D01*
X131409203Y-122465000D01*
X131226797Y-122465000D01*
X131047896Y-122429415D01*
X130879374Y-122359611D01*
X130727709Y-122258272D01*
X130598728Y-122129291D01*
X130497389Y-121977626D01*
X130427585Y-121809104D01*
X130392000Y-121630203D01*
X130392000Y-121447797D01*
X130427585Y-121268896D01*
X130497389Y-121100374D01*
X130598728Y-120948709D01*
X130727709Y-120819728D01*
X130879374Y-120718389D01*
X131047896Y-120648585D01*
X131226797Y-120613000D01*
X131409203Y-120613000D01*
X131588104Y-120648585D01*
G37*
G36*
X121428104Y-120648585D02*
G01*
X121596626Y-120718389D01*
X121748291Y-120819728D01*
X121877272Y-120948709D01*
X121978611Y-121100374D01*
X122048415Y-121268896D01*
X122084000Y-121447797D01*
X122084000Y-121630203D01*
X122048415Y-121809104D01*
X121978611Y-121977626D01*
X121877272Y-122129291D01*
X121748291Y-122258272D01*
X121596626Y-122359611D01*
X121428104Y-122429415D01*
X121249203Y-122465000D01*
X121066797Y-122465000D01*
X120887896Y-122429415D01*
X120719374Y-122359611D01*
X120567709Y-122258272D01*
X120438728Y-122129291D01*
X120337389Y-121977626D01*
X120267585Y-121809104D01*
X120232000Y-121630203D01*
X120232000Y-121447797D01*
X120267585Y-121268896D01*
X120337389Y-121100374D01*
X120438728Y-120948709D01*
X120567709Y-120819728D01*
X120719374Y-120718389D01*
X120887896Y-120648585D01*
X121066797Y-120613000D01*
X121249203Y-120613000D01*
X121428104Y-120648585D01*
G37*
G36*
X150638104Y-120648585D02*
G01*
X150806626Y-120718389D01*
X150958291Y-120819728D01*
X151087272Y-120948709D01*
X151188611Y-121100374D01*
X151258415Y-121268896D01*
X151294000Y-121447797D01*
X151294000Y-121630203D01*
X151258415Y-121809104D01*
X151188611Y-121977626D01*
X151087272Y-122129291D01*
X150958291Y-122258272D01*
X150806626Y-122359611D01*
X150638104Y-122429415D01*
X150459203Y-122465000D01*
X150276797Y-122465000D01*
X150097896Y-122429415D01*
X149929374Y-122359611D01*
X149777709Y-122258272D01*
X149648728Y-122129291D01*
X149547389Y-121977626D01*
X149477585Y-121809104D01*
X149442000Y-121630203D01*
X149442000Y-121447797D01*
X149477585Y-121268896D01*
X149547389Y-121100374D01*
X149648728Y-120948709D01*
X149777709Y-120819728D01*
X149929374Y-120718389D01*
X150097896Y-120648585D01*
X150276797Y-120613000D01*
X150459203Y-120613000D01*
X150638104Y-120648585D01*
G37*
G36*
X140478104Y-120648585D02*
G01*
X140646626Y-120718389D01*
X140798291Y-120819728D01*
X140927272Y-120948709D01*
X141028611Y-121100374D01*
X141098415Y-121268896D01*
X141134000Y-121447797D01*
X141134000Y-121630203D01*
X141098415Y-121809104D01*
X141028611Y-121977626D01*
X140927272Y-122129291D01*
X140798291Y-122258272D01*
X140646626Y-122359611D01*
X140478104Y-122429415D01*
X140299203Y-122465000D01*
X140116797Y-122465000D01*
X139937896Y-122429415D01*
X139769374Y-122359611D01*
X139617709Y-122258272D01*
X139488728Y-122129291D01*
X139387389Y-121977626D01*
X139317585Y-121809104D01*
X139282000Y-121630203D01*
X139282000Y-121447797D01*
X139317585Y-121268896D01*
X139387389Y-121100374D01*
X139488728Y-120948709D01*
X139617709Y-120819728D01*
X139769374Y-120718389D01*
X139937896Y-120648585D01*
X140116797Y-120613000D01*
X140299203Y-120613000D01*
X140478104Y-120648585D01*
G37*
G36*
X159528104Y-120648585D02*
G01*
X159696626Y-120718389D01*
X159848291Y-120819728D01*
X159977272Y-120948709D01*
X160078611Y-121100374D01*
X160148415Y-121268896D01*
X160184000Y-121447797D01*
X160184000Y-121630203D01*
X160148415Y-121809104D01*
X160078611Y-121977626D01*
X159977272Y-122129291D01*
X159848291Y-122258272D01*
X159696626Y-122359611D01*
X159528104Y-122429415D01*
X159349203Y-122465000D01*
X159166797Y-122465000D01*
X158987896Y-122429415D01*
X158819374Y-122359611D01*
X158667709Y-122258272D01*
X158538728Y-122129291D01*
X158437389Y-121977626D01*
X158367585Y-121809104D01*
X158332000Y-121630203D01*
X158332000Y-121447797D01*
X158367585Y-121268896D01*
X158437389Y-121100374D01*
X158538728Y-120948709D01*
X158667709Y-120819728D01*
X158819374Y-120718389D01*
X158987896Y-120648585D01*
X159166797Y-120613000D01*
X159349203Y-120613000D01*
X159528104Y-120648585D01*
G37*
G36*
X19646474Y-110047684D02*
G01*
X19864474Y-110137983D01*
X20018623Y-110201833D01*
X20353548Y-110425623D01*
X20638377Y-110710452D01*
X20862167Y-111045377D01*
X20894562Y-111123586D01*
X21016316Y-111417526D01*
X21094900Y-111812594D01*
X21094900Y-112215406D01*
X21016316Y-112610474D01*
X20965451Y-112733272D01*
X20862167Y-112982623D01*
X20638377Y-113317548D01*
X20353548Y-113602377D01*
X20018623Y-113826167D01*
X19864474Y-113890017D01*
X19646474Y-113980316D01*
X19251406Y-114058900D01*
X18848594Y-114058900D01*
X18453526Y-113980316D01*
X18235526Y-113890017D01*
X18081377Y-113826167D01*
X17746452Y-113602377D01*
X17461623Y-113317548D01*
X17237833Y-112982623D01*
X17134549Y-112733272D01*
X17083684Y-112610474D01*
X17005100Y-112215406D01*
X17005100Y-111812594D01*
X17083684Y-111417526D01*
X17205438Y-111123586D01*
X17237833Y-111045377D01*
X17461623Y-110710452D01*
X17746452Y-110425623D01*
X18081377Y-110201833D01*
X18235526Y-110137983D01*
X18453526Y-110047684D01*
X18848594Y-109969100D01*
X19251406Y-109969100D01*
X19646474Y-110047684D01*
G37*
G36*
X48221474Y-110047684D02*
G01*
X48439474Y-110137983D01*
X48593623Y-110201833D01*
X48928548Y-110425623D01*
X49213377Y-110710452D01*
X49437167Y-111045377D01*
X49469562Y-111123586D01*
X49591316Y-111417526D01*
X49669900Y-111812594D01*
X49669900Y-112215406D01*
X49591316Y-112610474D01*
X49540451Y-112733272D01*
X49437167Y-112982623D01*
X49213377Y-113317548D01*
X48928548Y-113602377D01*
X48593623Y-113826167D01*
X48439474Y-113890017D01*
X48221474Y-113980316D01*
X47826406Y-114058900D01*
X47423594Y-114058900D01*
X47028526Y-113980316D01*
X46810526Y-113890017D01*
X46656377Y-113826167D01*
X46321452Y-113602377D01*
X46036623Y-113317548D01*
X45812833Y-112982623D01*
X45709549Y-112733272D01*
X45658684Y-112610474D01*
X45580100Y-112215406D01*
X45580100Y-111812594D01*
X45658684Y-111417526D01*
X45780438Y-111123586D01*
X45812833Y-111045377D01*
X46036623Y-110710452D01*
X46321452Y-110425623D01*
X46656377Y-110201833D01*
X46810526Y-110137983D01*
X47028526Y-110047684D01*
X47423594Y-109969100D01*
X47826406Y-109969100D01*
X48221474Y-110047684D01*
G37*
G36*
X24400104Y-111123585D02*
G01*
X24568626Y-111193389D01*
X24720291Y-111294728D01*
X24849272Y-111423709D01*
X24950611Y-111575374D01*
X25020415Y-111743896D01*
X25056000Y-111922797D01*
X25056000Y-112105203D01*
X25020415Y-112284104D01*
X24950611Y-112452626D01*
X24849272Y-112604291D01*
X24720291Y-112733272D01*
X24568626Y-112834611D01*
X24400104Y-112904415D01*
X24221203Y-112940000D01*
X24038797Y-112940000D01*
X23859896Y-112904415D01*
X23691374Y-112834611D01*
X23539709Y-112733272D01*
X23410728Y-112604291D01*
X23309389Y-112452626D01*
X23239585Y-112284104D01*
X23204000Y-112105203D01*
X23204000Y-111922797D01*
X23239585Y-111743896D01*
X23309389Y-111575374D01*
X23410728Y-111423709D01*
X23539709Y-111294728D01*
X23691374Y-111193389D01*
X23859896Y-111123585D01*
X24038797Y-111088000D01*
X24221203Y-111088000D01*
X24400104Y-111123585D01*
G37*
G36*
X42815104Y-111123585D02*
G01*
X42983626Y-111193389D01*
X43135291Y-111294728D01*
X43264272Y-111423709D01*
X43365611Y-111575374D01*
X43435415Y-111743896D01*
X43471000Y-111922797D01*
X43471000Y-112105203D01*
X43435415Y-112284104D01*
X43365611Y-112452626D01*
X43264272Y-112604291D01*
X43135291Y-112733272D01*
X42983626Y-112834611D01*
X42815104Y-112904415D01*
X42636203Y-112940000D01*
X42453797Y-112940000D01*
X42274896Y-112904415D01*
X42106374Y-112834611D01*
X41954709Y-112733272D01*
X41825728Y-112604291D01*
X41724389Y-112452626D01*
X41654585Y-112284104D01*
X41619000Y-112105203D01*
X41619000Y-111922797D01*
X41654585Y-111743896D01*
X41724389Y-111575374D01*
X41825728Y-111423709D01*
X41954709Y-111294728D01*
X42106374Y-111193389D01*
X42274896Y-111123585D01*
X42453797Y-111088000D01*
X42636203Y-111088000D01*
X42815104Y-111123585D01*
G37*
G36*
X52975104Y-111123585D02*
G01*
X53143626Y-111193389D01*
X53295291Y-111294728D01*
X53424272Y-111423709D01*
X53525611Y-111575374D01*
X53595415Y-111743896D01*
X53631000Y-111922797D01*
X53631000Y-112105203D01*
X53595415Y-112284104D01*
X53525611Y-112452626D01*
X53424272Y-112604291D01*
X53295291Y-112733272D01*
X53143626Y-112834611D01*
X52975104Y-112904415D01*
X52796203Y-112940000D01*
X52613797Y-112940000D01*
X52434896Y-112904415D01*
X52266374Y-112834611D01*
X52114709Y-112733272D01*
X51985728Y-112604291D01*
X51884389Y-112452626D01*
X51814585Y-112284104D01*
X51779000Y-112105203D01*
X51779000Y-111922797D01*
X51814585Y-111743896D01*
X51884389Y-111575374D01*
X51985728Y-111423709D01*
X52114709Y-111294728D01*
X52266374Y-111193389D01*
X52434896Y-111123585D01*
X52613797Y-111088000D01*
X52796203Y-111088000D01*
X52975104Y-111123585D01*
G37*
G36*
X14240104Y-111123585D02*
G01*
X14408626Y-111193389D01*
X14560291Y-111294728D01*
X14689272Y-111423709D01*
X14790611Y-111575374D01*
X14860415Y-111743896D01*
X14896000Y-111922797D01*
X14896000Y-112105203D01*
X14860415Y-112284104D01*
X14790611Y-112452626D01*
X14689272Y-112604291D01*
X14560291Y-112733272D01*
X14408626Y-112834611D01*
X14240104Y-112904415D01*
X14061203Y-112940000D01*
X13878797Y-112940000D01*
X13699896Y-112904415D01*
X13531374Y-112834611D01*
X13379709Y-112733272D01*
X13250728Y-112604291D01*
X13149389Y-112452626D01*
X13079585Y-112284104D01*
X13044000Y-112105203D01*
X13044000Y-111922797D01*
X13079585Y-111743896D01*
X13149389Y-111575374D01*
X13250728Y-111423709D01*
X13379709Y-111294728D01*
X13531374Y-111193389D01*
X13699896Y-111123585D01*
X13878797Y-111088000D01*
X14061203Y-111088000D01*
X14240104Y-111123585D01*
G37*
G36*
X69684474Y-100522684D02*
G01*
X69902474Y-100612983D01*
X70056623Y-100676833D01*
X70391548Y-100900623D01*
X70676377Y-101185452D01*
X70900167Y-101520377D01*
X70959813Y-101664377D01*
X71054316Y-101892526D01*
X71132900Y-102287594D01*
X71132900Y-102690406D01*
X71054316Y-103085474D01*
X71003451Y-103208272D01*
X70900167Y-103457623D01*
X70676377Y-103792548D01*
X70391548Y-104077377D01*
X70056623Y-104301167D01*
X69902474Y-104365017D01*
X69684474Y-104455316D01*
X69289406Y-104533900D01*
X68886594Y-104533900D01*
X68491526Y-104455316D01*
X68273526Y-104365017D01*
X68119377Y-104301167D01*
X67784452Y-104077377D01*
X67499623Y-103792548D01*
X67275833Y-103457623D01*
X67172549Y-103208272D01*
X67121684Y-103085474D01*
X67043100Y-102690406D01*
X67043100Y-102287594D01*
X67121684Y-101892526D01*
X67216187Y-101664377D01*
X67275833Y-101520377D01*
X67499623Y-101185452D01*
X67784452Y-100900623D01*
X68119377Y-100676833D01*
X68273526Y-100612983D01*
X68491526Y-100522684D01*
X68886594Y-100444100D01*
X69289406Y-100444100D01*
X69684474Y-100522684D01*
G37*
G36*
X241134474Y-100522684D02*
G01*
X241352474Y-100612983D01*
X241506623Y-100676833D01*
X241841548Y-100900623D01*
X242126377Y-101185452D01*
X242350167Y-101520377D01*
X242409813Y-101664377D01*
X242504316Y-101892526D01*
X242582900Y-102287594D01*
X242582900Y-102690406D01*
X242504316Y-103085474D01*
X242453451Y-103208272D01*
X242350167Y-103457623D01*
X242126377Y-103792548D01*
X241841548Y-104077377D01*
X241506623Y-104301167D01*
X241352474Y-104365017D01*
X241134474Y-104455316D01*
X240739406Y-104533900D01*
X240336594Y-104533900D01*
X239941526Y-104455316D01*
X239723526Y-104365017D01*
X239569377Y-104301167D01*
X239234452Y-104077377D01*
X238949623Y-103792548D01*
X238725833Y-103457623D01*
X238622549Y-103208272D01*
X238571684Y-103085474D01*
X238493100Y-102690406D01*
X238493100Y-102287594D01*
X238571684Y-101892526D01*
X238666187Y-101664377D01*
X238725833Y-101520377D01*
X238949623Y-101185452D01*
X239234452Y-100900623D01*
X239569377Y-100676833D01*
X239723526Y-100612983D01*
X239941526Y-100522684D01*
X240336594Y-100444100D01*
X240739406Y-100444100D01*
X241134474Y-100522684D01*
G37*
G36*
X222084474Y-100522684D02*
G01*
X222302474Y-100612983D01*
X222456623Y-100676833D01*
X222791548Y-100900623D01*
X223076377Y-101185452D01*
X223300167Y-101520377D01*
X223359813Y-101664377D01*
X223454316Y-101892526D01*
X223532900Y-102287594D01*
X223532900Y-102690406D01*
X223454316Y-103085474D01*
X223403451Y-103208272D01*
X223300167Y-103457623D01*
X223076377Y-103792548D01*
X222791548Y-104077377D01*
X222456623Y-104301167D01*
X222302474Y-104365017D01*
X222084474Y-104455316D01*
X221689406Y-104533900D01*
X221286594Y-104533900D01*
X220891526Y-104455316D01*
X220673526Y-104365017D01*
X220519377Y-104301167D01*
X220184452Y-104077377D01*
X219899623Y-103792548D01*
X219675833Y-103457623D01*
X219572549Y-103208272D01*
X219521684Y-103085474D01*
X219443100Y-102690406D01*
X219443100Y-102287594D01*
X219521684Y-101892526D01*
X219616187Y-101664377D01*
X219675833Y-101520377D01*
X219899623Y-101185452D01*
X220184452Y-100900623D01*
X220519377Y-100676833D01*
X220673526Y-100612983D01*
X220891526Y-100522684D01*
X221286594Y-100444100D01*
X221689406Y-100444100D01*
X222084474Y-100522684D01*
G37*
G36*
X279234474Y-100522684D02*
G01*
X279452474Y-100612983D01*
X279606623Y-100676833D01*
X279941548Y-100900623D01*
X280226377Y-101185452D01*
X280450167Y-101520377D01*
X280509813Y-101664377D01*
X280604316Y-101892526D01*
X280682900Y-102287594D01*
X280682900Y-102690406D01*
X280604316Y-103085474D01*
X280553451Y-103208272D01*
X280450167Y-103457623D01*
X280226377Y-103792548D01*
X279941548Y-104077377D01*
X279606623Y-104301167D01*
X279452474Y-104365017D01*
X279234474Y-104455316D01*
X278839406Y-104533900D01*
X278436594Y-104533900D01*
X278041526Y-104455316D01*
X277823526Y-104365017D01*
X277669377Y-104301167D01*
X277334452Y-104077377D01*
X277049623Y-103792548D01*
X276825833Y-103457623D01*
X276722549Y-103208272D01*
X276671684Y-103085474D01*
X276593100Y-102690406D01*
X276593100Y-102287594D01*
X276671684Y-101892526D01*
X276766187Y-101664377D01*
X276825833Y-101520377D01*
X277049623Y-101185452D01*
X277334452Y-100900623D01*
X277669377Y-100676833D01*
X277823526Y-100612983D01*
X278041526Y-100522684D01*
X278436594Y-100444100D01*
X278839406Y-100444100D01*
X279234474Y-100522684D01*
G37*
G36*
X203034474Y-100522684D02*
G01*
X203252474Y-100612983D01*
X203406623Y-100676833D01*
X203741548Y-100900623D01*
X204026377Y-101185452D01*
X204250167Y-101520377D01*
X204309813Y-101664377D01*
X204404316Y-101892526D01*
X204482900Y-102287594D01*
X204482900Y-102690406D01*
X204404316Y-103085474D01*
X204353451Y-103208272D01*
X204250167Y-103457623D01*
X204026377Y-103792548D01*
X203741548Y-104077377D01*
X203406623Y-104301167D01*
X203252474Y-104365017D01*
X203034474Y-104455316D01*
X202639406Y-104533900D01*
X202236594Y-104533900D01*
X201841526Y-104455316D01*
X201623526Y-104365017D01*
X201469377Y-104301167D01*
X201134452Y-104077377D01*
X200849623Y-103792548D01*
X200625833Y-103457623D01*
X200522549Y-103208272D01*
X200471684Y-103085474D01*
X200393100Y-102690406D01*
X200393100Y-102287594D01*
X200471684Y-101892526D01*
X200566187Y-101664377D01*
X200625833Y-101520377D01*
X200849623Y-101185452D01*
X201134452Y-100900623D01*
X201469377Y-100676833D01*
X201623526Y-100612983D01*
X201841526Y-100522684D01*
X202236594Y-100444100D01*
X202639406Y-100444100D01*
X203034474Y-100522684D01*
G37*
G36*
X183984474Y-100522684D02*
G01*
X184202474Y-100612983D01*
X184356623Y-100676833D01*
X184691548Y-100900623D01*
X184976377Y-101185452D01*
X185200167Y-101520377D01*
X185259813Y-101664377D01*
X185354316Y-101892526D01*
X185432900Y-102287594D01*
X185432900Y-102690406D01*
X185354316Y-103085474D01*
X185303451Y-103208272D01*
X185200167Y-103457623D01*
X184976377Y-103792548D01*
X184691548Y-104077377D01*
X184356623Y-104301167D01*
X184202474Y-104365017D01*
X183984474Y-104455316D01*
X183589406Y-104533900D01*
X183186594Y-104533900D01*
X182791526Y-104455316D01*
X182573526Y-104365017D01*
X182419377Y-104301167D01*
X182084452Y-104077377D01*
X181799623Y-103792548D01*
X181575833Y-103457623D01*
X181472549Y-103208272D01*
X181421684Y-103085474D01*
X181343100Y-102690406D01*
X181343100Y-102287594D01*
X181421684Y-101892526D01*
X181516187Y-101664377D01*
X181575833Y-101520377D01*
X181799623Y-101185452D01*
X182084452Y-100900623D01*
X182419377Y-100676833D01*
X182573526Y-100612983D01*
X182791526Y-100522684D01*
X183186594Y-100444100D01*
X183589406Y-100444100D01*
X183984474Y-100522684D01*
G37*
G36*
X107784474Y-100522684D02*
G01*
X108002474Y-100612983D01*
X108156623Y-100676833D01*
X108491548Y-100900623D01*
X108776377Y-101185452D01*
X109000167Y-101520377D01*
X109059813Y-101664377D01*
X109154316Y-101892526D01*
X109232900Y-102287594D01*
X109232900Y-102690406D01*
X109154316Y-103085474D01*
X109103451Y-103208272D01*
X109000167Y-103457623D01*
X108776377Y-103792548D01*
X108491548Y-104077377D01*
X108156623Y-104301167D01*
X108002474Y-104365017D01*
X107784474Y-104455316D01*
X107389406Y-104533900D01*
X106986594Y-104533900D01*
X106591526Y-104455316D01*
X106373526Y-104365017D01*
X106219377Y-104301167D01*
X105884452Y-104077377D01*
X105599623Y-103792548D01*
X105375833Y-103457623D01*
X105272549Y-103208272D01*
X105221684Y-103085474D01*
X105143100Y-102690406D01*
X105143100Y-102287594D01*
X105221684Y-101892526D01*
X105316187Y-101664377D01*
X105375833Y-101520377D01*
X105599623Y-101185452D01*
X105884452Y-100900623D01*
X106219377Y-100676833D01*
X106373526Y-100612983D01*
X106591526Y-100522684D01*
X106986594Y-100444100D01*
X107389406Y-100444100D01*
X107784474Y-100522684D01*
G37*
G36*
X260184474Y-100522684D02*
G01*
X260402474Y-100612983D01*
X260556623Y-100676833D01*
X260891548Y-100900623D01*
X261176377Y-101185452D01*
X261400167Y-101520377D01*
X261459813Y-101664377D01*
X261554316Y-101892526D01*
X261632900Y-102287594D01*
X261632900Y-102690406D01*
X261554316Y-103085474D01*
X261503451Y-103208272D01*
X261400167Y-103457623D01*
X261176377Y-103792548D01*
X260891548Y-104077377D01*
X260556623Y-104301167D01*
X260402474Y-104365017D01*
X260184474Y-104455316D01*
X259789406Y-104533900D01*
X259386594Y-104533900D01*
X258991526Y-104455316D01*
X258773526Y-104365017D01*
X258619377Y-104301167D01*
X258284452Y-104077377D01*
X257999623Y-103792548D01*
X257775833Y-103457623D01*
X257672549Y-103208272D01*
X257621684Y-103085474D01*
X257543100Y-102690406D01*
X257543100Y-102287594D01*
X257621684Y-101892526D01*
X257716187Y-101664377D01*
X257775833Y-101520377D01*
X257999623Y-101185452D01*
X258284452Y-100900623D01*
X258619377Y-100676833D01*
X258773526Y-100612983D01*
X258991526Y-100522684D01*
X259386594Y-100444100D01*
X259789406Y-100444100D01*
X260184474Y-100522684D01*
G37*
G36*
X126834474Y-100522684D02*
G01*
X127052474Y-100612983D01*
X127206623Y-100676833D01*
X127541548Y-100900623D01*
X127826377Y-101185452D01*
X128050167Y-101520377D01*
X128109813Y-101664377D01*
X128204316Y-101892526D01*
X128282900Y-102287594D01*
X128282900Y-102690406D01*
X128204316Y-103085474D01*
X128153451Y-103208272D01*
X128050167Y-103457623D01*
X127826377Y-103792548D01*
X127541548Y-104077377D01*
X127206623Y-104301167D01*
X127052474Y-104365017D01*
X126834474Y-104455316D01*
X126439406Y-104533900D01*
X126036594Y-104533900D01*
X125641526Y-104455316D01*
X125423526Y-104365017D01*
X125269377Y-104301167D01*
X124934452Y-104077377D01*
X124649623Y-103792548D01*
X124425833Y-103457623D01*
X124322549Y-103208272D01*
X124271684Y-103085474D01*
X124193100Y-102690406D01*
X124193100Y-102287594D01*
X124271684Y-101892526D01*
X124366187Y-101664377D01*
X124425833Y-101520377D01*
X124649623Y-101185452D01*
X124934452Y-100900623D01*
X125269377Y-100676833D01*
X125423526Y-100612983D01*
X125641526Y-100522684D01*
X126036594Y-100444100D01*
X126439406Y-100444100D01*
X126834474Y-100522684D01*
G37*
G36*
X145884474Y-100522684D02*
G01*
X146102474Y-100612983D01*
X146256623Y-100676833D01*
X146591548Y-100900623D01*
X146876377Y-101185452D01*
X147100167Y-101520377D01*
X147159813Y-101664377D01*
X147254316Y-101892526D01*
X147332900Y-102287594D01*
X147332900Y-102690406D01*
X147254316Y-103085474D01*
X147203451Y-103208272D01*
X147100167Y-103457623D01*
X146876377Y-103792548D01*
X146591548Y-104077377D01*
X146256623Y-104301167D01*
X146102474Y-104365017D01*
X145884474Y-104455316D01*
X145489406Y-104533900D01*
X145086594Y-104533900D01*
X144691526Y-104455316D01*
X144473526Y-104365017D01*
X144319377Y-104301167D01*
X143984452Y-104077377D01*
X143699623Y-103792548D01*
X143475833Y-103457623D01*
X143372549Y-103208272D01*
X143321684Y-103085474D01*
X143243100Y-102690406D01*
X143243100Y-102287594D01*
X143321684Y-101892526D01*
X143416187Y-101664377D01*
X143475833Y-101520377D01*
X143699623Y-101185452D01*
X143984452Y-100900623D01*
X144319377Y-100676833D01*
X144473526Y-100612983D01*
X144691526Y-100522684D01*
X145086594Y-100444100D01*
X145489406Y-100444100D01*
X145884474Y-100522684D01*
G37*
G36*
X164934474Y-100522684D02*
G01*
X165152474Y-100612983D01*
X165306623Y-100676833D01*
X165641548Y-100900623D01*
X165926377Y-101185452D01*
X166150167Y-101520377D01*
X166209813Y-101664377D01*
X166304316Y-101892526D01*
X166382900Y-102287594D01*
X166382900Y-102690406D01*
X166304316Y-103085474D01*
X166253451Y-103208272D01*
X166150167Y-103457623D01*
X165926377Y-103792548D01*
X165641548Y-104077377D01*
X165306623Y-104301167D01*
X165152474Y-104365017D01*
X164934474Y-104455316D01*
X164539406Y-104533900D01*
X164136594Y-104533900D01*
X163741526Y-104455316D01*
X163523526Y-104365017D01*
X163369377Y-104301167D01*
X163034452Y-104077377D01*
X162749623Y-103792548D01*
X162525833Y-103457623D01*
X162422549Y-103208272D01*
X162371684Y-103085474D01*
X162293100Y-102690406D01*
X162293100Y-102287594D01*
X162371684Y-101892526D01*
X162466187Y-101664377D01*
X162525833Y-101520377D01*
X162749623Y-101185452D01*
X163034452Y-100900623D01*
X163369377Y-100676833D01*
X163523526Y-100612983D01*
X163741526Y-100522684D01*
X164136594Y-100444100D01*
X164539406Y-100444100D01*
X164934474Y-100522684D01*
G37*
G36*
X88734474Y-100522684D02*
G01*
X88952474Y-100612983D01*
X89106623Y-100676833D01*
X89441548Y-100900623D01*
X89726377Y-101185452D01*
X89950167Y-101520377D01*
X90009813Y-101664377D01*
X90104316Y-101892526D01*
X90182900Y-102287594D01*
X90182900Y-102690406D01*
X90104316Y-103085474D01*
X90053451Y-103208272D01*
X89950167Y-103457623D01*
X89726377Y-103792548D01*
X89441548Y-104077377D01*
X89106623Y-104301167D01*
X88952474Y-104365017D01*
X88734474Y-104455316D01*
X88339406Y-104533900D01*
X87936594Y-104533900D01*
X87541526Y-104455316D01*
X87323526Y-104365017D01*
X87169377Y-104301167D01*
X86834452Y-104077377D01*
X86549623Y-103792548D01*
X86325833Y-103457623D01*
X86222549Y-103208272D01*
X86171684Y-103085474D01*
X86093100Y-102690406D01*
X86093100Y-102287594D01*
X86171684Y-101892526D01*
X86266187Y-101664377D01*
X86325833Y-101520377D01*
X86549623Y-101185452D01*
X86834452Y-100900623D01*
X87169377Y-100676833D01*
X87323526Y-100612983D01*
X87541526Y-100522684D01*
X87936594Y-100444100D01*
X88339406Y-100444100D01*
X88734474Y-100522684D01*
G37*
G36*
X150638104Y-101598585D02*
G01*
X150806626Y-101668389D01*
X150958291Y-101769728D01*
X151087272Y-101898709D01*
X151188611Y-102050374D01*
X151258415Y-102218896D01*
X151294000Y-102397797D01*
X151294000Y-102580203D01*
X151258415Y-102759104D01*
X151188611Y-102927626D01*
X151087272Y-103079291D01*
X150958291Y-103208272D01*
X150806626Y-103309611D01*
X150638104Y-103379415D01*
X150459203Y-103415000D01*
X150276797Y-103415000D01*
X150097896Y-103379415D01*
X149929374Y-103309611D01*
X149777709Y-103208272D01*
X149648728Y-103079291D01*
X149547389Y-102927626D01*
X149477585Y-102759104D01*
X149442000Y-102580203D01*
X149442000Y-102397797D01*
X149477585Y-102218896D01*
X149547389Y-102050374D01*
X149648728Y-101898709D01*
X149777709Y-101769728D01*
X149929374Y-101668389D01*
X150097896Y-101598585D01*
X150276797Y-101563000D01*
X150459203Y-101563000D01*
X150638104Y-101598585D01*
G37*
G36*
X159528104Y-101598585D02*
G01*
X159696626Y-101668389D01*
X159848291Y-101769728D01*
X159977272Y-101898709D01*
X160078611Y-102050374D01*
X160148415Y-102218896D01*
X160184000Y-102397797D01*
X160184000Y-102580203D01*
X160148415Y-102759104D01*
X160078611Y-102927626D01*
X159977272Y-103079291D01*
X159848291Y-103208272D01*
X159696626Y-103309611D01*
X159528104Y-103379415D01*
X159349203Y-103415000D01*
X159166797Y-103415000D01*
X158987896Y-103379415D01*
X158819374Y-103309611D01*
X158667709Y-103208272D01*
X158538728Y-103079291D01*
X158437389Y-102927626D01*
X158367585Y-102759104D01*
X158332000Y-102580203D01*
X158332000Y-102397797D01*
X158367585Y-102218896D01*
X158437389Y-102050374D01*
X158538728Y-101898709D01*
X158667709Y-101769728D01*
X158819374Y-101668389D01*
X158987896Y-101598585D01*
X159166797Y-101563000D01*
X159349203Y-101563000D01*
X159528104Y-101598585D01*
G37*
G36*
X140478104Y-101598585D02*
G01*
X140646626Y-101668389D01*
X140798291Y-101769728D01*
X140927272Y-101898709D01*
X141028611Y-102050374D01*
X141098415Y-102218896D01*
X141134000Y-102397797D01*
X141134000Y-102580203D01*
X141098415Y-102759104D01*
X141028611Y-102927626D01*
X140927272Y-103079291D01*
X140798291Y-103208272D01*
X140646626Y-103309611D01*
X140478104Y-103379415D01*
X140299203Y-103415000D01*
X140116797Y-103415000D01*
X139937896Y-103379415D01*
X139769374Y-103309611D01*
X139617709Y-103208272D01*
X139488728Y-103079291D01*
X139387389Y-102927626D01*
X139317585Y-102759104D01*
X139282000Y-102580203D01*
X139282000Y-102397797D01*
X139317585Y-102218896D01*
X139387389Y-102050374D01*
X139488728Y-101898709D01*
X139617709Y-101769728D01*
X139769374Y-101668389D01*
X139937896Y-101598585D01*
X140116797Y-101563000D01*
X140299203Y-101563000D01*
X140478104Y-101598585D01*
G37*
G36*
X216678104Y-101598585D02*
G01*
X216846626Y-101668389D01*
X216998291Y-101769728D01*
X217127272Y-101898709D01*
X217228611Y-102050374D01*
X217298415Y-102218896D01*
X217334000Y-102397797D01*
X217334000Y-102580203D01*
X217298415Y-102759104D01*
X217228611Y-102927626D01*
X217127272Y-103079291D01*
X216998291Y-103208272D01*
X216846626Y-103309611D01*
X216678104Y-103379415D01*
X216499203Y-103415000D01*
X216316797Y-103415000D01*
X216137896Y-103379415D01*
X215969374Y-103309611D01*
X215817709Y-103208272D01*
X215688728Y-103079291D01*
X215587389Y-102927626D01*
X215517585Y-102759104D01*
X215482000Y-102580203D01*
X215482000Y-102397797D01*
X215517585Y-102218896D01*
X215587389Y-102050374D01*
X215688728Y-101898709D01*
X215817709Y-101769728D01*
X215969374Y-101668389D01*
X216137896Y-101598585D01*
X216316797Y-101563000D01*
X216499203Y-101563000D01*
X216678104Y-101598585D01*
G37*
G36*
X169688104Y-101598585D02*
G01*
X169856626Y-101668389D01*
X170008291Y-101769728D01*
X170137272Y-101898709D01*
X170238611Y-102050374D01*
X170308415Y-102218896D01*
X170344000Y-102397797D01*
X170344000Y-102580203D01*
X170308415Y-102759104D01*
X170238611Y-102927626D01*
X170137272Y-103079291D01*
X170008291Y-103208272D01*
X169856626Y-103309611D01*
X169688104Y-103379415D01*
X169509203Y-103415000D01*
X169326797Y-103415000D01*
X169147896Y-103379415D01*
X168979374Y-103309611D01*
X168827709Y-103208272D01*
X168698728Y-103079291D01*
X168597389Y-102927626D01*
X168527585Y-102759104D01*
X168492000Y-102580203D01*
X168492000Y-102397797D01*
X168527585Y-102218896D01*
X168597389Y-102050374D01*
X168698728Y-101898709D01*
X168827709Y-101769728D01*
X168979374Y-101668389D01*
X169147896Y-101598585D01*
X169326797Y-101563000D01*
X169509203Y-101563000D01*
X169688104Y-101598585D01*
G37*
G36*
X226838104Y-101598585D02*
G01*
X227006626Y-101668389D01*
X227158291Y-101769728D01*
X227287272Y-101898709D01*
X227388611Y-102050374D01*
X227458415Y-102218896D01*
X227494000Y-102397797D01*
X227494000Y-102580203D01*
X227458415Y-102759104D01*
X227388611Y-102927626D01*
X227287272Y-103079291D01*
X227158291Y-103208272D01*
X227006626Y-103309611D01*
X226838104Y-103379415D01*
X226659203Y-103415000D01*
X226476797Y-103415000D01*
X226297896Y-103379415D01*
X226129374Y-103309611D01*
X225977709Y-103208272D01*
X225848728Y-103079291D01*
X225747389Y-102927626D01*
X225677585Y-102759104D01*
X225642000Y-102580203D01*
X225642000Y-102397797D01*
X225677585Y-102218896D01*
X225747389Y-102050374D01*
X225848728Y-101898709D01*
X225977709Y-101769728D01*
X226129374Y-101668389D01*
X226297896Y-101598585D01*
X226476797Y-101563000D01*
X226659203Y-101563000D01*
X226838104Y-101598585D01*
G37*
G36*
X188738104Y-101598585D02*
G01*
X188906626Y-101668389D01*
X189058291Y-101769728D01*
X189187272Y-101898709D01*
X189288611Y-102050374D01*
X189358415Y-102218896D01*
X189394000Y-102397797D01*
X189394000Y-102580203D01*
X189358415Y-102759104D01*
X189288611Y-102927626D01*
X189187272Y-103079291D01*
X189058291Y-103208272D01*
X188906626Y-103309611D01*
X188738104Y-103379415D01*
X188559203Y-103415000D01*
X188376797Y-103415000D01*
X188197896Y-103379415D01*
X188029374Y-103309611D01*
X187877709Y-103208272D01*
X187748728Y-103079291D01*
X187647389Y-102927626D01*
X187577585Y-102759104D01*
X187542000Y-102580203D01*
X187542000Y-102397797D01*
X187577585Y-102218896D01*
X187647389Y-102050374D01*
X187748728Y-101898709D01*
X187877709Y-101769728D01*
X188029374Y-101668389D01*
X188197896Y-101598585D01*
X188376797Y-101563000D01*
X188559203Y-101563000D01*
X188738104Y-101598585D01*
G37*
G36*
X178578104Y-101598585D02*
G01*
X178746626Y-101668389D01*
X178898291Y-101769728D01*
X179027272Y-101898709D01*
X179128611Y-102050374D01*
X179198415Y-102218896D01*
X179234000Y-102397797D01*
X179234000Y-102580203D01*
X179198415Y-102759104D01*
X179128611Y-102927626D01*
X179027272Y-103079291D01*
X178898291Y-103208272D01*
X178746626Y-103309611D01*
X178578104Y-103379415D01*
X178399203Y-103415000D01*
X178216797Y-103415000D01*
X178037896Y-103379415D01*
X177869374Y-103309611D01*
X177717709Y-103208272D01*
X177588728Y-103079291D01*
X177487389Y-102927626D01*
X177417585Y-102759104D01*
X177382000Y-102580203D01*
X177382000Y-102397797D01*
X177417585Y-102218896D01*
X177487389Y-102050374D01*
X177588728Y-101898709D01*
X177717709Y-101769728D01*
X177869374Y-101668389D01*
X178037896Y-101598585D01*
X178216797Y-101563000D01*
X178399203Y-101563000D01*
X178578104Y-101598585D01*
G37*
G36*
X207788104Y-101598585D02*
G01*
X207956626Y-101668389D01*
X208108291Y-101769728D01*
X208237272Y-101898709D01*
X208338611Y-102050374D01*
X208408415Y-102218896D01*
X208444000Y-102397797D01*
X208444000Y-102580203D01*
X208408415Y-102759104D01*
X208338611Y-102927626D01*
X208237272Y-103079291D01*
X208108291Y-103208272D01*
X207956626Y-103309611D01*
X207788104Y-103379415D01*
X207609203Y-103415000D01*
X207426797Y-103415000D01*
X207247896Y-103379415D01*
X207079374Y-103309611D01*
X206927709Y-103208272D01*
X206798728Y-103079291D01*
X206697389Y-102927626D01*
X206627585Y-102759104D01*
X206592000Y-102580203D01*
X206592000Y-102397797D01*
X206627585Y-102218896D01*
X206697389Y-102050374D01*
X206798728Y-101898709D01*
X206927709Y-101769728D01*
X207079374Y-101668389D01*
X207247896Y-101598585D01*
X207426797Y-101563000D01*
X207609203Y-101563000D01*
X207788104Y-101598585D01*
G37*
G36*
X83328104Y-101598585D02*
G01*
X83496626Y-101668389D01*
X83648291Y-101769728D01*
X83777272Y-101898709D01*
X83878611Y-102050374D01*
X83948415Y-102218896D01*
X83984000Y-102397797D01*
X83984000Y-102580203D01*
X83948415Y-102759104D01*
X83878611Y-102927626D01*
X83777272Y-103079291D01*
X83648291Y-103208272D01*
X83496626Y-103309611D01*
X83328104Y-103379415D01*
X83149203Y-103415000D01*
X82966797Y-103415000D01*
X82787896Y-103379415D01*
X82619374Y-103309611D01*
X82467709Y-103208272D01*
X82338728Y-103079291D01*
X82237389Y-102927626D01*
X82167585Y-102759104D01*
X82132000Y-102580203D01*
X82132000Y-102397797D01*
X82167585Y-102218896D01*
X82237389Y-102050374D01*
X82338728Y-101898709D01*
X82467709Y-101769728D01*
X82619374Y-101668389D01*
X82787896Y-101598585D01*
X82966797Y-101563000D01*
X83149203Y-101563000D01*
X83328104Y-101598585D01*
G37*
G36*
X64278104Y-101598585D02*
G01*
X64446626Y-101668389D01*
X64598291Y-101769728D01*
X64727272Y-101898709D01*
X64828611Y-102050374D01*
X64898415Y-102218896D01*
X64934000Y-102397797D01*
X64934000Y-102580203D01*
X64898415Y-102759104D01*
X64828611Y-102927626D01*
X64727272Y-103079291D01*
X64598291Y-103208272D01*
X64446626Y-103309611D01*
X64278104Y-103379415D01*
X64099203Y-103415000D01*
X63916797Y-103415000D01*
X63737896Y-103379415D01*
X63569374Y-103309611D01*
X63417709Y-103208272D01*
X63288728Y-103079291D01*
X63187389Y-102927626D01*
X63117585Y-102759104D01*
X63082000Y-102580203D01*
X63082000Y-102397797D01*
X63117585Y-102218896D01*
X63187389Y-102050374D01*
X63288728Y-101898709D01*
X63417709Y-101769728D01*
X63569374Y-101668389D01*
X63737896Y-101598585D01*
X63916797Y-101563000D01*
X64099203Y-101563000D01*
X64278104Y-101598585D01*
G37*
G36*
X74438104Y-101598585D02*
G01*
X74606626Y-101668389D01*
X74758291Y-101769728D01*
X74887272Y-101898709D01*
X74988611Y-102050374D01*
X75058415Y-102218896D01*
X75094000Y-102397797D01*
X75094000Y-102580203D01*
X75058415Y-102759104D01*
X74988611Y-102927626D01*
X74887272Y-103079291D01*
X74758291Y-103208272D01*
X74606626Y-103309611D01*
X74438104Y-103379415D01*
X74259203Y-103415000D01*
X74076797Y-103415000D01*
X73897896Y-103379415D01*
X73729374Y-103309611D01*
X73577709Y-103208272D01*
X73448728Y-103079291D01*
X73347389Y-102927626D01*
X73277585Y-102759104D01*
X73242000Y-102580203D01*
X73242000Y-102397797D01*
X73277585Y-102218896D01*
X73347389Y-102050374D01*
X73448728Y-101898709D01*
X73577709Y-101769728D01*
X73729374Y-101668389D01*
X73897896Y-101598585D01*
X74076797Y-101563000D01*
X74259203Y-101563000D01*
X74438104Y-101598585D01*
G37*
G36*
X235728104Y-101598585D02*
G01*
X235896626Y-101668389D01*
X236048291Y-101769728D01*
X236177272Y-101898709D01*
X236278611Y-102050374D01*
X236348415Y-102218896D01*
X236384000Y-102397797D01*
X236384000Y-102580203D01*
X236348415Y-102759104D01*
X236278611Y-102927626D01*
X236177272Y-103079291D01*
X236048291Y-103208272D01*
X235896626Y-103309611D01*
X235728104Y-103379415D01*
X235549203Y-103415000D01*
X235366797Y-103415000D01*
X235187896Y-103379415D01*
X235019374Y-103309611D01*
X234867709Y-103208272D01*
X234738728Y-103079291D01*
X234637389Y-102927626D01*
X234567585Y-102759104D01*
X234532000Y-102580203D01*
X234532000Y-102397797D01*
X234567585Y-102218896D01*
X234637389Y-102050374D01*
X234738728Y-101898709D01*
X234867709Y-101769728D01*
X235019374Y-101668389D01*
X235187896Y-101598585D01*
X235366797Y-101563000D01*
X235549203Y-101563000D01*
X235728104Y-101598585D01*
G37*
G36*
X197628104Y-101598585D02*
G01*
X197796626Y-101668389D01*
X197948291Y-101769728D01*
X198077272Y-101898709D01*
X198178611Y-102050374D01*
X198248415Y-102218896D01*
X198284000Y-102397797D01*
X198284000Y-102580203D01*
X198248415Y-102759104D01*
X198178611Y-102927626D01*
X198077272Y-103079291D01*
X197948291Y-103208272D01*
X197796626Y-103309611D01*
X197628104Y-103379415D01*
X197449203Y-103415000D01*
X197266797Y-103415000D01*
X197087896Y-103379415D01*
X196919374Y-103309611D01*
X196767709Y-103208272D01*
X196638728Y-103079291D01*
X196537389Y-102927626D01*
X196467585Y-102759104D01*
X196432000Y-102580203D01*
X196432000Y-102397797D01*
X196467585Y-102218896D01*
X196537389Y-102050374D01*
X196638728Y-101898709D01*
X196767709Y-101769728D01*
X196919374Y-101668389D01*
X197087896Y-101598585D01*
X197266797Y-101563000D01*
X197449203Y-101563000D01*
X197628104Y-101598585D01*
G37*
G36*
X121428104Y-101598585D02*
G01*
X121596626Y-101668389D01*
X121748291Y-101769728D01*
X121877272Y-101898709D01*
X121978611Y-102050374D01*
X122048415Y-102218896D01*
X122084000Y-102397797D01*
X122084000Y-102580203D01*
X122048415Y-102759104D01*
X121978611Y-102927626D01*
X121877272Y-103079291D01*
X121748291Y-103208272D01*
X121596626Y-103309611D01*
X121428104Y-103379415D01*
X121249203Y-103415000D01*
X121066797Y-103415000D01*
X120887896Y-103379415D01*
X120719374Y-103309611D01*
X120567709Y-103208272D01*
X120438728Y-103079291D01*
X120337389Y-102927626D01*
X120267585Y-102759104D01*
X120232000Y-102580203D01*
X120232000Y-102397797D01*
X120267585Y-102218896D01*
X120337389Y-102050374D01*
X120438728Y-101898709D01*
X120567709Y-101769728D01*
X120719374Y-101668389D01*
X120887896Y-101598585D01*
X121066797Y-101563000D01*
X121249203Y-101563000D01*
X121428104Y-101598585D01*
G37*
G36*
X254778104Y-101598585D02*
G01*
X254946626Y-101668389D01*
X255098291Y-101769728D01*
X255227272Y-101898709D01*
X255328611Y-102050374D01*
X255398415Y-102218896D01*
X255434000Y-102397797D01*
X255434000Y-102580203D01*
X255398415Y-102759104D01*
X255328611Y-102927626D01*
X255227272Y-103079291D01*
X255098291Y-103208272D01*
X254946626Y-103309611D01*
X254778104Y-103379415D01*
X254599203Y-103415000D01*
X254416797Y-103415000D01*
X254237896Y-103379415D01*
X254069374Y-103309611D01*
X253917709Y-103208272D01*
X253788728Y-103079291D01*
X253687389Y-102927626D01*
X253617585Y-102759104D01*
X253582000Y-102580203D01*
X253582000Y-102397797D01*
X253617585Y-102218896D01*
X253687389Y-102050374D01*
X253788728Y-101898709D01*
X253917709Y-101769728D01*
X254069374Y-101668389D01*
X254237896Y-101598585D01*
X254416797Y-101563000D01*
X254599203Y-101563000D01*
X254778104Y-101598585D01*
G37*
G36*
X131588104Y-101598585D02*
G01*
X131756626Y-101668389D01*
X131908291Y-101769728D01*
X132037272Y-101898709D01*
X132138611Y-102050374D01*
X132208415Y-102218896D01*
X132244000Y-102397797D01*
X132244000Y-102580203D01*
X132208415Y-102759104D01*
X132138611Y-102927626D01*
X132037272Y-103079291D01*
X131908291Y-103208272D01*
X131756626Y-103309611D01*
X131588104Y-103379415D01*
X131409203Y-103415000D01*
X131226797Y-103415000D01*
X131047896Y-103379415D01*
X130879374Y-103309611D01*
X130727709Y-103208272D01*
X130598728Y-103079291D01*
X130497389Y-102927626D01*
X130427585Y-102759104D01*
X130392000Y-102580203D01*
X130392000Y-102397797D01*
X130427585Y-102218896D01*
X130497389Y-102050374D01*
X130598728Y-101898709D01*
X130727709Y-101769728D01*
X130879374Y-101668389D01*
X131047896Y-101598585D01*
X131226797Y-101563000D01*
X131409203Y-101563000D01*
X131588104Y-101598585D01*
G37*
G36*
X93488104Y-101598585D02*
G01*
X93656626Y-101668389D01*
X93808291Y-101769728D01*
X93937272Y-101898709D01*
X94038611Y-102050374D01*
X94108415Y-102218896D01*
X94144000Y-102397797D01*
X94144000Y-102580203D01*
X94108415Y-102759104D01*
X94038611Y-102927626D01*
X93937272Y-103079291D01*
X93808291Y-103208272D01*
X93656626Y-103309611D01*
X93488104Y-103379415D01*
X93309203Y-103415000D01*
X93126797Y-103415000D01*
X92947896Y-103379415D01*
X92779374Y-103309611D01*
X92627709Y-103208272D01*
X92498728Y-103079291D01*
X92397389Y-102927626D01*
X92327585Y-102759104D01*
X92292000Y-102580203D01*
X92292000Y-102397797D01*
X92327585Y-102218896D01*
X92397389Y-102050374D01*
X92498728Y-101898709D01*
X92627709Y-101769728D01*
X92779374Y-101668389D01*
X92947896Y-101598585D01*
X93126797Y-101563000D01*
X93309203Y-101563000D01*
X93488104Y-101598585D01*
G37*
G36*
X264938104Y-101598585D02*
G01*
X265106626Y-101668389D01*
X265258291Y-101769728D01*
X265387272Y-101898709D01*
X265488611Y-102050374D01*
X265558415Y-102218896D01*
X265594000Y-102397797D01*
X265594000Y-102580203D01*
X265558415Y-102759104D01*
X265488611Y-102927626D01*
X265387272Y-103079291D01*
X265258291Y-103208272D01*
X265106626Y-103309611D01*
X264938104Y-103379415D01*
X264759203Y-103415000D01*
X264576797Y-103415000D01*
X264397896Y-103379415D01*
X264229374Y-103309611D01*
X264077709Y-103208272D01*
X263948728Y-103079291D01*
X263847389Y-102927626D01*
X263777585Y-102759104D01*
X263742000Y-102580203D01*
X263742000Y-102397797D01*
X263777585Y-102218896D01*
X263847389Y-102050374D01*
X263948728Y-101898709D01*
X264077709Y-101769728D01*
X264229374Y-101668389D01*
X264397896Y-101598585D01*
X264576797Y-101563000D01*
X264759203Y-101563000D01*
X264938104Y-101598585D01*
G37*
G36*
X283988104Y-101598585D02*
G01*
X284156626Y-101668389D01*
X284308291Y-101769728D01*
X284437272Y-101898709D01*
X284538611Y-102050374D01*
X284608415Y-102218896D01*
X284644000Y-102397797D01*
X284644000Y-102580203D01*
X284608415Y-102759104D01*
X284538611Y-102927626D01*
X284437272Y-103079291D01*
X284308291Y-103208272D01*
X284156626Y-103309611D01*
X283988104Y-103379415D01*
X283809203Y-103415000D01*
X283626797Y-103415000D01*
X283447896Y-103379415D01*
X283279374Y-103309611D01*
X283127709Y-103208272D01*
X282998728Y-103079291D01*
X282897389Y-102927626D01*
X282827585Y-102759104D01*
X282792000Y-102580203D01*
X282792000Y-102397797D01*
X282827585Y-102218896D01*
X282897389Y-102050374D01*
X282998728Y-101898709D01*
X283127709Y-101769728D01*
X283279374Y-101668389D01*
X283447896Y-101598585D01*
X283626797Y-101563000D01*
X283809203Y-101563000D01*
X283988104Y-101598585D01*
G37*
G36*
X273828104Y-101598585D02*
G01*
X273996626Y-101668389D01*
X274148291Y-101769728D01*
X274277272Y-101898709D01*
X274378611Y-102050374D01*
X274448415Y-102218896D01*
X274484000Y-102397797D01*
X274484000Y-102580203D01*
X274448415Y-102759104D01*
X274378611Y-102927626D01*
X274277272Y-103079291D01*
X274148291Y-103208272D01*
X273996626Y-103309611D01*
X273828104Y-103379415D01*
X273649203Y-103415000D01*
X273466797Y-103415000D01*
X273287896Y-103379415D01*
X273119374Y-103309611D01*
X272967709Y-103208272D01*
X272838728Y-103079291D01*
X272737389Y-102927626D01*
X272667585Y-102759104D01*
X272632000Y-102580203D01*
X272632000Y-102397797D01*
X272667585Y-102218896D01*
X272737389Y-102050374D01*
X272838728Y-101898709D01*
X272967709Y-101769728D01*
X273119374Y-101668389D01*
X273287896Y-101598585D01*
X273466797Y-101563000D01*
X273649203Y-101563000D01*
X273828104Y-101598585D01*
G37*
G36*
X112538104Y-101598585D02*
G01*
X112706626Y-101668389D01*
X112858291Y-101769728D01*
X112987272Y-101898709D01*
X113088611Y-102050374D01*
X113158415Y-102218896D01*
X113194000Y-102397797D01*
X113194000Y-102580203D01*
X113158415Y-102759104D01*
X113088611Y-102927626D01*
X112987272Y-103079291D01*
X112858291Y-103208272D01*
X112706626Y-103309611D01*
X112538104Y-103379415D01*
X112359203Y-103415000D01*
X112176797Y-103415000D01*
X111997896Y-103379415D01*
X111829374Y-103309611D01*
X111677709Y-103208272D01*
X111548728Y-103079291D01*
X111447389Y-102927626D01*
X111377585Y-102759104D01*
X111342000Y-102580203D01*
X111342000Y-102397797D01*
X111377585Y-102218896D01*
X111447389Y-102050374D01*
X111548728Y-101898709D01*
X111677709Y-101769728D01*
X111829374Y-101668389D01*
X111997896Y-101598585D01*
X112176797Y-101563000D01*
X112359203Y-101563000D01*
X112538104Y-101598585D01*
G37*
G36*
X102378104Y-101598585D02*
G01*
X102546626Y-101668389D01*
X102698291Y-101769728D01*
X102827272Y-101898709D01*
X102928611Y-102050374D01*
X102998415Y-102218896D01*
X103034000Y-102397797D01*
X103034000Y-102580203D01*
X102998415Y-102759104D01*
X102928611Y-102927626D01*
X102827272Y-103079291D01*
X102698291Y-103208272D01*
X102546626Y-103309611D01*
X102378104Y-103379415D01*
X102199203Y-103415000D01*
X102016797Y-103415000D01*
X101837896Y-103379415D01*
X101669374Y-103309611D01*
X101517709Y-103208272D01*
X101388728Y-103079291D01*
X101287389Y-102927626D01*
X101217585Y-102759104D01*
X101182000Y-102580203D01*
X101182000Y-102397797D01*
X101217585Y-102218896D01*
X101287389Y-102050374D01*
X101388728Y-101898709D01*
X101517709Y-101769728D01*
X101669374Y-101668389D01*
X101837896Y-101598585D01*
X102016797Y-101563000D01*
X102199203Y-101563000D01*
X102378104Y-101598585D01*
G37*
G36*
X245888104Y-101598585D02*
G01*
X246056626Y-101668389D01*
X246208291Y-101769728D01*
X246337272Y-101898709D01*
X246438611Y-102050374D01*
X246508415Y-102218896D01*
X246544000Y-102397797D01*
X246544000Y-102580203D01*
X246508415Y-102759104D01*
X246438611Y-102927626D01*
X246337272Y-103079291D01*
X246208291Y-103208272D01*
X246056626Y-103309611D01*
X245888104Y-103379415D01*
X245709203Y-103415000D01*
X245526797Y-103415000D01*
X245347896Y-103379415D01*
X245179374Y-103309611D01*
X245027709Y-103208272D01*
X244898728Y-103079291D01*
X244797389Y-102927626D01*
X244727585Y-102759104D01*
X244692000Y-102580203D01*
X244692000Y-102397797D01*
X244727585Y-102218896D01*
X244797389Y-102050374D01*
X244898728Y-101898709D01*
X245027709Y-101769728D01*
X245179374Y-101668389D01*
X245347896Y-101598585D01*
X245526797Y-101563000D01*
X245709203Y-101563000D01*
X245888104Y-101598585D01*
G37*
G36*
X56476474Y-98109684D02*
G01*
X56694474Y-98199983D01*
X56848623Y-98263833D01*
X57183548Y-98487623D01*
X57468377Y-98772452D01*
X57692167Y-99107377D01*
X57692167Y-99107378D01*
X57846316Y-99479526D01*
X57924900Y-99874594D01*
X57924900Y-100277406D01*
X57846316Y-100672474D01*
X57844510Y-100676833D01*
X57692167Y-101044623D01*
X57468377Y-101379548D01*
X57183548Y-101664377D01*
X56848623Y-101888167D01*
X56694474Y-101952017D01*
X56476474Y-102042316D01*
X56081406Y-102120900D01*
X55678594Y-102120900D01*
X55283526Y-102042316D01*
X55065526Y-101952017D01*
X54911377Y-101888167D01*
X54576452Y-101664377D01*
X54291623Y-101379548D01*
X54067833Y-101044623D01*
X53915490Y-100676833D01*
X53913684Y-100672474D01*
X53835100Y-100277406D01*
X53835100Y-99874594D01*
X53913684Y-99479526D01*
X54067833Y-99107378D01*
X54067833Y-99107377D01*
X54291623Y-98772452D01*
X54576452Y-98487623D01*
X54911377Y-98263833D01*
X55065526Y-98199983D01*
X55283526Y-98109684D01*
X55678594Y-98031100D01*
X56081406Y-98031100D01*
X56476474Y-98109684D01*
G37*
G36*
X11391474Y-98109684D02*
G01*
X11609474Y-98199983D01*
X11763623Y-98263833D01*
X12098548Y-98487623D01*
X12383377Y-98772452D01*
X12607167Y-99107377D01*
X12607167Y-99107378D01*
X12761316Y-99479526D01*
X12839900Y-99874594D01*
X12839900Y-100277406D01*
X12761316Y-100672474D01*
X12759510Y-100676833D01*
X12607167Y-101044623D01*
X12383377Y-101379548D01*
X12098548Y-101664377D01*
X11763623Y-101888167D01*
X11609474Y-101952017D01*
X11391474Y-102042316D01*
X10996406Y-102120900D01*
X10593594Y-102120900D01*
X10198526Y-102042316D01*
X9980526Y-101952017D01*
X9826377Y-101888167D01*
X9491452Y-101664377D01*
X9206623Y-101379548D01*
X8982833Y-101044623D01*
X8830490Y-100676833D01*
X8828684Y-100672474D01*
X8750100Y-100277406D01*
X8750100Y-99874594D01*
X8828684Y-99479526D01*
X8982833Y-99107378D01*
X8982833Y-99107377D01*
X9206623Y-98772452D01*
X9491452Y-98487623D01*
X9826377Y-98263833D01*
X9980526Y-98199983D01*
X10198526Y-98109684D01*
X10593594Y-98031100D01*
X10996406Y-98031100D01*
X11391474Y-98109684D01*
G37*
G36*
X26342267Y-98531263D02*
G01*
X26494411Y-98561526D01*
X26613137Y-98610704D01*
X26781041Y-98680252D01*
X26781042Y-98680253D01*
X27039004Y-98852617D01*
X27258383Y-99071996D01*
X27282024Y-99107378D01*
X27430748Y-99329959D01*
X27492700Y-99479525D01*
X27549474Y-99616589D01*
X27610000Y-99920876D01*
X27610000Y-100231124D01*
X27552006Y-100522684D01*
X27549474Y-100535410D01*
X27430748Y-100822041D01*
X27430747Y-100822042D01*
X27258383Y-101080004D01*
X27039004Y-101299383D01*
X26919028Y-101379548D01*
X26781041Y-101471748D01*
X26663637Y-101520378D01*
X26494411Y-101590474D01*
X26342267Y-101620737D01*
X26190125Y-101651000D01*
X25879875Y-101651000D01*
X25727733Y-101620737D01*
X25575589Y-101590474D01*
X25406363Y-101520378D01*
X25288959Y-101471748D01*
X25150972Y-101379548D01*
X25030996Y-101299383D01*
X24811617Y-101080004D01*
X24639253Y-100822042D01*
X24639252Y-100822041D01*
X24520526Y-100535410D01*
X24517995Y-100522684D01*
X24460000Y-100231124D01*
X24460000Y-99920876D01*
X24520526Y-99616589D01*
X24577300Y-99479525D01*
X24639252Y-99329959D01*
X24787976Y-99107378D01*
X24811617Y-99071996D01*
X25030996Y-98852617D01*
X25288958Y-98680253D01*
X25288959Y-98680252D01*
X25456863Y-98610704D01*
X25575589Y-98561526D01*
X25727733Y-98531263D01*
X25879875Y-98501000D01*
X26190125Y-98501000D01*
X26342267Y-98531263D01*
G37*
G36*
X40947267Y-98531263D02*
G01*
X41099411Y-98561526D01*
X41218137Y-98610704D01*
X41386041Y-98680252D01*
X41386042Y-98680253D01*
X41644004Y-98852617D01*
X41863383Y-99071996D01*
X41887024Y-99107378D01*
X42035748Y-99329959D01*
X42097700Y-99479525D01*
X42154474Y-99616589D01*
X42215000Y-99920876D01*
X42215000Y-100231124D01*
X42157006Y-100522684D01*
X42154474Y-100535410D01*
X42035748Y-100822041D01*
X42035747Y-100822042D01*
X41863383Y-101080004D01*
X41644004Y-101299383D01*
X41524028Y-101379548D01*
X41386041Y-101471748D01*
X41268637Y-101520378D01*
X41099411Y-101590474D01*
X40947267Y-101620737D01*
X40795125Y-101651000D01*
X40484875Y-101651000D01*
X40332733Y-101620737D01*
X40180589Y-101590474D01*
X40011363Y-101520378D01*
X39893959Y-101471748D01*
X39755972Y-101379548D01*
X39635996Y-101299383D01*
X39416617Y-101080004D01*
X39244253Y-100822042D01*
X39244252Y-100822041D01*
X39125526Y-100535410D01*
X39122995Y-100522684D01*
X39065000Y-100231124D01*
X39065000Y-99920876D01*
X39125526Y-99616589D01*
X39182300Y-99479525D01*
X39244252Y-99329959D01*
X39392976Y-99107378D01*
X39416617Y-99071996D01*
X39635996Y-98852617D01*
X39893958Y-98680253D01*
X39893959Y-98680252D01*
X40061863Y-98610704D01*
X40180589Y-98561526D01*
X40332733Y-98531263D01*
X40484875Y-98501000D01*
X40795125Y-98501000D01*
X40947267Y-98531263D01*
G37*
G36*
X56476474Y-83885684D02*
G01*
X56694474Y-83975983D01*
X56848623Y-84039833D01*
X57183548Y-84263623D01*
X57468377Y-84548452D01*
X57692167Y-84883377D01*
X57692167Y-84883378D01*
X57846316Y-85255526D01*
X57924900Y-85650594D01*
X57924900Y-86053406D01*
X57846316Y-86448474D01*
X57784363Y-86598041D01*
X57692167Y-86820623D01*
X57468377Y-87155548D01*
X57183548Y-87440377D01*
X56848623Y-87664167D01*
X56694474Y-87728017D01*
X56476474Y-87818316D01*
X56081406Y-87896900D01*
X55678594Y-87896900D01*
X55283526Y-87818316D01*
X55065526Y-87728017D01*
X54911377Y-87664167D01*
X54576452Y-87440377D01*
X54291623Y-87155548D01*
X54067833Y-86820623D01*
X53975637Y-86598041D01*
X53913684Y-86448474D01*
X53835100Y-86053406D01*
X53835100Y-85650594D01*
X53913684Y-85255526D01*
X54067833Y-84883378D01*
X54067833Y-84883377D01*
X54291623Y-84548452D01*
X54576452Y-84263623D01*
X54911377Y-84039833D01*
X55065526Y-83975983D01*
X55283526Y-83885684D01*
X55678594Y-83807100D01*
X56081406Y-83807100D01*
X56476474Y-83885684D01*
G37*
G36*
X11391474Y-83885684D02*
G01*
X11609474Y-83975983D01*
X11763623Y-84039833D01*
X12098548Y-84263623D01*
X12383377Y-84548452D01*
X12607167Y-84883377D01*
X12607167Y-84883378D01*
X12761316Y-85255526D01*
X12839900Y-85650594D01*
X12839900Y-86053406D01*
X12761316Y-86448474D01*
X12699363Y-86598041D01*
X12607167Y-86820623D01*
X12383377Y-87155548D01*
X12098548Y-87440377D01*
X11763623Y-87664167D01*
X11609474Y-87728017D01*
X11391474Y-87818316D01*
X10996406Y-87896900D01*
X10593594Y-87896900D01*
X10198526Y-87818316D01*
X9980526Y-87728017D01*
X9826377Y-87664167D01*
X9491452Y-87440377D01*
X9206623Y-87155548D01*
X8982833Y-86820623D01*
X8890637Y-86598041D01*
X8828684Y-86448474D01*
X8750100Y-86053406D01*
X8750100Y-85650594D01*
X8828684Y-85255526D01*
X8982833Y-84883378D01*
X8982833Y-84883377D01*
X9206623Y-84548452D01*
X9491452Y-84263623D01*
X9826377Y-84039833D01*
X9980526Y-83975983D01*
X10198526Y-83885684D01*
X10593594Y-83807100D01*
X10996406Y-83807100D01*
X11391474Y-83885684D01*
G37*
G36*
X41099411Y-84337526D02*
G01*
X41218137Y-84386704D01*
X41386041Y-84456252D01*
X41386042Y-84456253D01*
X41644004Y-84628617D01*
X41863383Y-84847996D01*
X41887024Y-84883378D01*
X42035748Y-85105959D01*
X42095895Y-85251167D01*
X42154474Y-85392589D01*
X42172637Y-85483900D01*
X42215000Y-85696875D01*
X42215000Y-86007125D01*
X42154474Y-86311410D01*
X42035748Y-86598041D01*
X42035747Y-86598042D01*
X41863383Y-86856004D01*
X41644004Y-87075383D01*
X41524028Y-87155548D01*
X41386041Y-87247748D01*
X41218137Y-87317296D01*
X41099411Y-87366474D01*
X40947267Y-87396737D01*
X40795125Y-87427000D01*
X40484875Y-87427000D01*
X40332733Y-87396737D01*
X40180589Y-87366474D01*
X40061863Y-87317296D01*
X39893959Y-87247748D01*
X39755972Y-87155548D01*
X39635996Y-87075383D01*
X39416617Y-86856004D01*
X39244253Y-86598042D01*
X39244252Y-86598041D01*
X39125526Y-86311410D01*
X39065000Y-86007125D01*
X39065000Y-85696875D01*
X39107363Y-85483900D01*
X39125526Y-85392589D01*
X39184105Y-85251167D01*
X39244252Y-85105959D01*
X39392976Y-84883378D01*
X39416617Y-84847996D01*
X39635996Y-84628617D01*
X39893958Y-84456253D01*
X39893959Y-84456252D01*
X40061863Y-84386704D01*
X40180589Y-84337526D01*
X40484875Y-84277000D01*
X40795125Y-84277000D01*
X41099411Y-84337526D01*
G37*
G36*
X26494411Y-84337526D02*
G01*
X26613137Y-84386704D01*
X26781041Y-84456252D01*
X26781042Y-84456253D01*
X27039004Y-84628617D01*
X27258383Y-84847996D01*
X27282024Y-84883378D01*
X27430748Y-85105959D01*
X27490895Y-85251167D01*
X27549474Y-85392589D01*
X27567637Y-85483900D01*
X27610000Y-85696875D01*
X27610000Y-86007125D01*
X27549474Y-86311410D01*
X27430748Y-86598041D01*
X27430747Y-86598042D01*
X27258383Y-86856004D01*
X27039004Y-87075383D01*
X26919028Y-87155548D01*
X26781041Y-87247748D01*
X26613137Y-87317296D01*
X26494411Y-87366474D01*
X26342267Y-87396737D01*
X26190125Y-87427000D01*
X25879875Y-87427000D01*
X25727733Y-87396737D01*
X25575589Y-87366474D01*
X25456863Y-87317296D01*
X25288959Y-87247748D01*
X25150972Y-87155548D01*
X25030996Y-87075383D01*
X24811617Y-86856004D01*
X24639253Y-86598042D01*
X24639252Y-86598041D01*
X24520526Y-86311410D01*
X24460000Y-86007125D01*
X24460000Y-85696875D01*
X24502363Y-85483900D01*
X24520526Y-85392589D01*
X24579105Y-85251167D01*
X24639252Y-85105959D01*
X24787976Y-84883378D01*
X24811617Y-84847996D01*
X25030996Y-84628617D01*
X25288958Y-84456253D01*
X25288959Y-84456252D01*
X25456863Y-84386704D01*
X25575589Y-84337526D01*
X25879875Y-84277000D01*
X26190125Y-84277000D01*
X26494411Y-84337526D01*
G37*
G36*
X69684474Y-81472684D02*
G01*
X69902474Y-81562983D01*
X70056623Y-81626833D01*
X70391548Y-81850623D01*
X70676377Y-82135452D01*
X70900167Y-82470377D01*
X70932562Y-82548586D01*
X71054316Y-82842526D01*
X71132900Y-83237594D01*
X71132900Y-83640406D01*
X71054316Y-84035474D01*
X71003451Y-84158272D01*
X70900167Y-84407623D01*
X70676377Y-84742548D01*
X70391548Y-85027377D01*
X70056623Y-85251167D01*
X69902474Y-85315017D01*
X69684474Y-85405316D01*
X69289406Y-85483900D01*
X68886594Y-85483900D01*
X68491526Y-85405316D01*
X68273526Y-85315017D01*
X68119377Y-85251167D01*
X67784452Y-85027377D01*
X67499623Y-84742548D01*
X67275833Y-84407623D01*
X67172549Y-84158272D01*
X67121684Y-84035474D01*
X67043100Y-83640406D01*
X67043100Y-83237594D01*
X67121684Y-82842526D01*
X67243438Y-82548586D01*
X67275833Y-82470377D01*
X67499623Y-82135452D01*
X67784452Y-81850623D01*
X68119377Y-81626833D01*
X68273526Y-81562983D01*
X68491526Y-81472684D01*
X68886594Y-81394100D01*
X69289406Y-81394100D01*
X69684474Y-81472684D01*
G37*
G36*
X183984474Y-81472684D02*
G01*
X184202474Y-81562983D01*
X184356623Y-81626833D01*
X184691548Y-81850623D01*
X184976377Y-82135452D01*
X185200167Y-82470377D01*
X185232562Y-82548586D01*
X185354316Y-82842526D01*
X185432900Y-83237594D01*
X185432900Y-83640406D01*
X185354316Y-84035474D01*
X185303451Y-84158272D01*
X185200167Y-84407623D01*
X184976377Y-84742548D01*
X184691548Y-85027377D01*
X184356623Y-85251167D01*
X184202474Y-85315017D01*
X183984474Y-85405316D01*
X183589406Y-85483900D01*
X183186594Y-85483900D01*
X182791526Y-85405316D01*
X182573526Y-85315017D01*
X182419377Y-85251167D01*
X182084452Y-85027377D01*
X181799623Y-84742548D01*
X181575833Y-84407623D01*
X181472549Y-84158272D01*
X181421684Y-84035474D01*
X181343100Y-83640406D01*
X181343100Y-83237594D01*
X181421684Y-82842526D01*
X181543438Y-82548586D01*
X181575833Y-82470377D01*
X181799623Y-82135452D01*
X182084452Y-81850623D01*
X182419377Y-81626833D01*
X182573526Y-81562983D01*
X182791526Y-81472684D01*
X183186594Y-81394100D01*
X183589406Y-81394100D01*
X183984474Y-81472684D01*
G37*
G36*
X88734474Y-81472684D02*
G01*
X88952474Y-81562983D01*
X89106623Y-81626833D01*
X89441548Y-81850623D01*
X89726377Y-82135452D01*
X89950167Y-82470377D01*
X89982562Y-82548586D01*
X90104316Y-82842526D01*
X90182900Y-83237594D01*
X90182900Y-83640406D01*
X90104316Y-84035474D01*
X90053451Y-84158272D01*
X89950167Y-84407623D01*
X89726377Y-84742548D01*
X89441548Y-85027377D01*
X89106623Y-85251167D01*
X88952474Y-85315017D01*
X88734474Y-85405316D01*
X88339406Y-85483900D01*
X87936594Y-85483900D01*
X87541526Y-85405316D01*
X87323526Y-85315017D01*
X87169377Y-85251167D01*
X86834452Y-85027377D01*
X86549623Y-84742548D01*
X86325833Y-84407623D01*
X86222549Y-84158272D01*
X86171684Y-84035474D01*
X86093100Y-83640406D01*
X86093100Y-83237594D01*
X86171684Y-82842526D01*
X86293438Y-82548586D01*
X86325833Y-82470377D01*
X86549623Y-82135452D01*
X86834452Y-81850623D01*
X87169377Y-81626833D01*
X87323526Y-81562983D01*
X87541526Y-81472684D01*
X87936594Y-81394100D01*
X88339406Y-81394100D01*
X88734474Y-81472684D01*
G37*
G36*
X107784474Y-81472684D02*
G01*
X108002474Y-81562983D01*
X108156623Y-81626833D01*
X108491548Y-81850623D01*
X108776377Y-82135452D01*
X109000167Y-82470377D01*
X109032562Y-82548586D01*
X109154316Y-82842526D01*
X109232900Y-83237594D01*
X109232900Y-83640406D01*
X109154316Y-84035474D01*
X109103451Y-84158272D01*
X109000167Y-84407623D01*
X108776377Y-84742548D01*
X108491548Y-85027377D01*
X108156623Y-85251167D01*
X108002474Y-85315017D01*
X107784474Y-85405316D01*
X107389406Y-85483900D01*
X106986594Y-85483900D01*
X106591526Y-85405316D01*
X106373526Y-85315017D01*
X106219377Y-85251167D01*
X105884452Y-85027377D01*
X105599623Y-84742548D01*
X105375833Y-84407623D01*
X105272549Y-84158272D01*
X105221684Y-84035474D01*
X105143100Y-83640406D01*
X105143100Y-83237594D01*
X105221684Y-82842526D01*
X105343438Y-82548586D01*
X105375833Y-82470377D01*
X105599623Y-82135452D01*
X105884452Y-81850623D01*
X106219377Y-81626833D01*
X106373526Y-81562983D01*
X106591526Y-81472684D01*
X106986594Y-81394100D01*
X107389406Y-81394100D01*
X107784474Y-81472684D01*
G37*
G36*
X203034474Y-81472684D02*
G01*
X203252474Y-81562983D01*
X203406623Y-81626833D01*
X203741548Y-81850623D01*
X204026377Y-82135452D01*
X204250167Y-82470377D01*
X204282562Y-82548586D01*
X204404316Y-82842526D01*
X204482900Y-83237594D01*
X204482900Y-83640406D01*
X204404316Y-84035474D01*
X204353451Y-84158272D01*
X204250167Y-84407623D01*
X204026377Y-84742548D01*
X203741548Y-85027377D01*
X203406623Y-85251167D01*
X203252474Y-85315017D01*
X203034474Y-85405316D01*
X202639406Y-85483900D01*
X202236594Y-85483900D01*
X201841526Y-85405316D01*
X201623526Y-85315017D01*
X201469377Y-85251167D01*
X201134452Y-85027377D01*
X200849623Y-84742548D01*
X200625833Y-84407623D01*
X200522549Y-84158272D01*
X200471684Y-84035474D01*
X200393100Y-83640406D01*
X200393100Y-83237594D01*
X200471684Y-82842526D01*
X200593438Y-82548586D01*
X200625833Y-82470377D01*
X200849623Y-82135452D01*
X201134452Y-81850623D01*
X201469377Y-81626833D01*
X201623526Y-81562983D01*
X201841526Y-81472684D01*
X202236594Y-81394100D01*
X202639406Y-81394100D01*
X203034474Y-81472684D01*
G37*
G36*
X222084474Y-81472684D02*
G01*
X222302474Y-81562983D01*
X222456623Y-81626833D01*
X222791548Y-81850623D01*
X223076377Y-82135452D01*
X223300167Y-82470377D01*
X223332562Y-82548586D01*
X223454316Y-82842526D01*
X223532900Y-83237594D01*
X223532900Y-83640406D01*
X223454316Y-84035474D01*
X223403451Y-84158272D01*
X223300167Y-84407623D01*
X223076377Y-84742548D01*
X222791548Y-85027377D01*
X222456623Y-85251167D01*
X222302474Y-85315017D01*
X222084474Y-85405316D01*
X221689406Y-85483900D01*
X221286594Y-85483900D01*
X220891526Y-85405316D01*
X220673526Y-85315017D01*
X220519377Y-85251167D01*
X220184452Y-85027377D01*
X219899623Y-84742548D01*
X219675833Y-84407623D01*
X219572549Y-84158272D01*
X219521684Y-84035474D01*
X219443100Y-83640406D01*
X219443100Y-83237594D01*
X219521684Y-82842526D01*
X219643438Y-82548586D01*
X219675833Y-82470377D01*
X219899623Y-82135452D01*
X220184452Y-81850623D01*
X220519377Y-81626833D01*
X220673526Y-81562983D01*
X220891526Y-81472684D01*
X221286594Y-81394100D01*
X221689406Y-81394100D01*
X222084474Y-81472684D01*
G37*
G36*
X279234474Y-81472684D02*
G01*
X279452474Y-81562983D01*
X279606623Y-81626833D01*
X279941548Y-81850623D01*
X280226377Y-82135452D01*
X280450167Y-82470377D01*
X280482562Y-82548586D01*
X280604316Y-82842526D01*
X280682900Y-83237594D01*
X280682900Y-83640406D01*
X280604316Y-84035474D01*
X280553451Y-84158272D01*
X280450167Y-84407623D01*
X280226377Y-84742548D01*
X279941548Y-85027377D01*
X279606623Y-85251167D01*
X279452474Y-85315017D01*
X279234474Y-85405316D01*
X278839406Y-85483900D01*
X278436594Y-85483900D01*
X278041526Y-85405316D01*
X277823526Y-85315017D01*
X277669377Y-85251167D01*
X277334452Y-85027377D01*
X277049623Y-84742548D01*
X276825833Y-84407623D01*
X276722549Y-84158272D01*
X276671684Y-84035474D01*
X276593100Y-83640406D01*
X276593100Y-83237594D01*
X276671684Y-82842526D01*
X276793438Y-82548586D01*
X276825833Y-82470377D01*
X277049623Y-82135452D01*
X277334452Y-81850623D01*
X277669377Y-81626833D01*
X277823526Y-81562983D01*
X278041526Y-81472684D01*
X278436594Y-81394100D01*
X278839406Y-81394100D01*
X279234474Y-81472684D01*
G37*
G36*
X145884474Y-81472684D02*
G01*
X146102474Y-81562983D01*
X146256623Y-81626833D01*
X146591548Y-81850623D01*
X146876377Y-82135452D01*
X147100167Y-82470377D01*
X147132562Y-82548586D01*
X147254316Y-82842526D01*
X147332900Y-83237594D01*
X147332900Y-83640406D01*
X147254316Y-84035474D01*
X147203451Y-84158272D01*
X147100167Y-84407623D01*
X146876377Y-84742548D01*
X146591548Y-85027377D01*
X146256623Y-85251167D01*
X146102474Y-85315017D01*
X145884474Y-85405316D01*
X145489406Y-85483900D01*
X145086594Y-85483900D01*
X144691526Y-85405316D01*
X144473526Y-85315017D01*
X144319377Y-85251167D01*
X143984452Y-85027377D01*
X143699623Y-84742548D01*
X143475833Y-84407623D01*
X143372549Y-84158272D01*
X143321684Y-84035474D01*
X143243100Y-83640406D01*
X143243100Y-83237594D01*
X143321684Y-82842526D01*
X143443438Y-82548586D01*
X143475833Y-82470377D01*
X143699623Y-82135452D01*
X143984452Y-81850623D01*
X144319377Y-81626833D01*
X144473526Y-81562983D01*
X144691526Y-81472684D01*
X145086594Y-81394100D01*
X145489406Y-81394100D01*
X145884474Y-81472684D01*
G37*
G36*
X164934474Y-81472684D02*
G01*
X165152474Y-81562983D01*
X165306623Y-81626833D01*
X165641548Y-81850623D01*
X165926377Y-82135452D01*
X166150167Y-82470377D01*
X166182562Y-82548586D01*
X166304316Y-82842526D01*
X166382900Y-83237594D01*
X166382900Y-83640406D01*
X166304316Y-84035474D01*
X166253451Y-84158272D01*
X166150167Y-84407623D01*
X165926377Y-84742548D01*
X165641548Y-85027377D01*
X165306623Y-85251167D01*
X165152474Y-85315017D01*
X164934474Y-85405316D01*
X164539406Y-85483900D01*
X164136594Y-85483900D01*
X163741526Y-85405316D01*
X163523526Y-85315017D01*
X163369377Y-85251167D01*
X163034452Y-85027377D01*
X162749623Y-84742548D01*
X162525833Y-84407623D01*
X162422549Y-84158272D01*
X162371684Y-84035474D01*
X162293100Y-83640406D01*
X162293100Y-83237594D01*
X162371684Y-82842526D01*
X162493438Y-82548586D01*
X162525833Y-82470377D01*
X162749623Y-82135452D01*
X163034452Y-81850623D01*
X163369377Y-81626833D01*
X163523526Y-81562983D01*
X163741526Y-81472684D01*
X164136594Y-81394100D01*
X164539406Y-81394100D01*
X164934474Y-81472684D01*
G37*
G36*
X241134474Y-81472684D02*
G01*
X241352474Y-81562983D01*
X241506623Y-81626833D01*
X241841548Y-81850623D01*
X242126377Y-82135452D01*
X242350167Y-82470377D01*
X242382562Y-82548586D01*
X242504316Y-82842526D01*
X242582900Y-83237594D01*
X242582900Y-83640406D01*
X242504316Y-84035474D01*
X242453451Y-84158272D01*
X242350167Y-84407623D01*
X242126377Y-84742548D01*
X241841548Y-85027377D01*
X241506623Y-85251167D01*
X241352474Y-85315017D01*
X241134474Y-85405316D01*
X240739406Y-85483900D01*
X240336594Y-85483900D01*
X239941526Y-85405316D01*
X239723526Y-85315017D01*
X239569377Y-85251167D01*
X239234452Y-85027377D01*
X238949623Y-84742548D01*
X238725833Y-84407623D01*
X238622549Y-84158272D01*
X238571684Y-84035474D01*
X238493100Y-83640406D01*
X238493100Y-83237594D01*
X238571684Y-82842526D01*
X238693438Y-82548586D01*
X238725833Y-82470377D01*
X238949623Y-82135452D01*
X239234452Y-81850623D01*
X239569377Y-81626833D01*
X239723526Y-81562983D01*
X239941526Y-81472684D01*
X240336594Y-81394100D01*
X240739406Y-81394100D01*
X241134474Y-81472684D01*
G37*
G36*
X260184474Y-81472684D02*
G01*
X260402474Y-81562983D01*
X260556623Y-81626833D01*
X260891548Y-81850623D01*
X261176377Y-82135452D01*
X261400167Y-82470377D01*
X261432562Y-82548586D01*
X261554316Y-82842526D01*
X261632900Y-83237594D01*
X261632900Y-83640406D01*
X261554316Y-84035474D01*
X261503451Y-84158272D01*
X261400167Y-84407623D01*
X261176377Y-84742548D01*
X260891548Y-85027377D01*
X260556623Y-85251167D01*
X260402474Y-85315017D01*
X260184474Y-85405316D01*
X259789406Y-85483900D01*
X259386594Y-85483900D01*
X258991526Y-85405316D01*
X258773526Y-85315017D01*
X258619377Y-85251167D01*
X258284452Y-85027377D01*
X257999623Y-84742548D01*
X257775833Y-84407623D01*
X257672549Y-84158272D01*
X257621684Y-84035474D01*
X257543100Y-83640406D01*
X257543100Y-83237594D01*
X257621684Y-82842526D01*
X257743438Y-82548586D01*
X257775833Y-82470377D01*
X257999623Y-82135452D01*
X258284452Y-81850623D01*
X258619377Y-81626833D01*
X258773526Y-81562983D01*
X258991526Y-81472684D01*
X259386594Y-81394100D01*
X259789406Y-81394100D01*
X260184474Y-81472684D01*
G37*
G36*
X126834474Y-81472684D02*
G01*
X127052474Y-81562983D01*
X127206623Y-81626833D01*
X127541548Y-81850623D01*
X127826377Y-82135452D01*
X128050167Y-82470377D01*
X128082562Y-82548586D01*
X128204316Y-82842526D01*
X128282900Y-83237594D01*
X128282900Y-83640406D01*
X128204316Y-84035474D01*
X128153451Y-84158272D01*
X128050167Y-84407623D01*
X127826377Y-84742548D01*
X127541548Y-85027377D01*
X127206623Y-85251167D01*
X127052474Y-85315017D01*
X126834474Y-85405316D01*
X126439406Y-85483900D01*
X126036594Y-85483900D01*
X125641526Y-85405316D01*
X125423526Y-85315017D01*
X125269377Y-85251167D01*
X124934452Y-85027377D01*
X124649623Y-84742548D01*
X124425833Y-84407623D01*
X124322549Y-84158272D01*
X124271684Y-84035474D01*
X124193100Y-83640406D01*
X124193100Y-83237594D01*
X124271684Y-82842526D01*
X124393438Y-82548586D01*
X124425833Y-82470377D01*
X124649623Y-82135452D01*
X124934452Y-81850623D01*
X125269377Y-81626833D01*
X125423526Y-81562983D01*
X125641526Y-81472684D01*
X126036594Y-81394100D01*
X126439406Y-81394100D01*
X126834474Y-81472684D01*
G37*
G36*
X150638104Y-82548585D02*
G01*
X150806626Y-82618389D01*
X150958291Y-82719728D01*
X151087272Y-82848709D01*
X151188611Y-83000374D01*
X151258415Y-83168896D01*
X151294000Y-83347797D01*
X151294000Y-83530203D01*
X151258415Y-83709104D01*
X151188611Y-83877626D01*
X151087272Y-84029291D01*
X150958291Y-84158272D01*
X150806626Y-84259611D01*
X150638104Y-84329415D01*
X150459203Y-84365000D01*
X150276797Y-84365000D01*
X150097896Y-84329415D01*
X149929374Y-84259611D01*
X149777709Y-84158272D01*
X149648728Y-84029291D01*
X149547389Y-83877626D01*
X149477585Y-83709104D01*
X149442000Y-83530203D01*
X149442000Y-83347797D01*
X149477585Y-83168896D01*
X149547389Y-83000374D01*
X149648728Y-82848709D01*
X149777709Y-82719728D01*
X149929374Y-82618389D01*
X150097896Y-82548585D01*
X150276797Y-82513000D01*
X150459203Y-82513000D01*
X150638104Y-82548585D01*
G37*
G36*
X140478104Y-82548585D02*
G01*
X140646626Y-82618389D01*
X140798291Y-82719728D01*
X140927272Y-82848709D01*
X141028611Y-83000374D01*
X141098415Y-83168896D01*
X141134000Y-83347797D01*
X141134000Y-83530203D01*
X141098415Y-83709104D01*
X141028611Y-83877626D01*
X140927272Y-84029291D01*
X140798291Y-84158272D01*
X140646626Y-84259611D01*
X140478104Y-84329415D01*
X140299203Y-84365000D01*
X140116797Y-84365000D01*
X139937896Y-84329415D01*
X139769374Y-84259611D01*
X139617709Y-84158272D01*
X139488728Y-84029291D01*
X139387389Y-83877626D01*
X139317585Y-83709104D01*
X139282000Y-83530203D01*
X139282000Y-83347797D01*
X139317585Y-83168896D01*
X139387389Y-83000374D01*
X139488728Y-82848709D01*
X139617709Y-82719728D01*
X139769374Y-82618389D01*
X139937896Y-82548585D01*
X140116797Y-82513000D01*
X140299203Y-82513000D01*
X140478104Y-82548585D01*
G37*
G36*
X169688104Y-82548585D02*
G01*
X169856626Y-82618389D01*
X170008291Y-82719728D01*
X170137272Y-82848709D01*
X170238611Y-83000374D01*
X170308415Y-83168896D01*
X170344000Y-83347797D01*
X170344000Y-83530203D01*
X170308415Y-83709104D01*
X170238611Y-83877626D01*
X170137272Y-84029291D01*
X170008291Y-84158272D01*
X169856626Y-84259611D01*
X169688104Y-84329415D01*
X169509203Y-84365000D01*
X169326797Y-84365000D01*
X169147896Y-84329415D01*
X168979374Y-84259611D01*
X168827709Y-84158272D01*
X168698728Y-84029291D01*
X168597389Y-83877626D01*
X168527585Y-83709104D01*
X168492000Y-83530203D01*
X168492000Y-83347797D01*
X168527585Y-83168896D01*
X168597389Y-83000374D01*
X168698728Y-82848709D01*
X168827709Y-82719728D01*
X168979374Y-82618389D01*
X169147896Y-82548585D01*
X169326797Y-82513000D01*
X169509203Y-82513000D01*
X169688104Y-82548585D01*
G37*
G36*
X159528104Y-82548585D02*
G01*
X159696626Y-82618389D01*
X159848291Y-82719728D01*
X159977272Y-82848709D01*
X160078611Y-83000374D01*
X160148415Y-83168896D01*
X160184000Y-83347797D01*
X160184000Y-83530203D01*
X160148415Y-83709104D01*
X160078611Y-83877626D01*
X159977272Y-84029291D01*
X159848291Y-84158272D01*
X159696626Y-84259611D01*
X159528104Y-84329415D01*
X159349203Y-84365000D01*
X159166797Y-84365000D01*
X158987896Y-84329415D01*
X158819374Y-84259611D01*
X158667709Y-84158272D01*
X158538728Y-84029291D01*
X158437389Y-83877626D01*
X158367585Y-83709104D01*
X158332000Y-83530203D01*
X158332000Y-83347797D01*
X158367585Y-83168896D01*
X158437389Y-83000374D01*
X158538728Y-82848709D01*
X158667709Y-82719728D01*
X158819374Y-82618389D01*
X158987896Y-82548585D01*
X159166797Y-82513000D01*
X159349203Y-82513000D01*
X159528104Y-82548585D01*
G37*
G36*
X131588104Y-82548585D02*
G01*
X131756626Y-82618389D01*
X131908291Y-82719728D01*
X132037272Y-82848709D01*
X132138611Y-83000374D01*
X132208415Y-83168896D01*
X132244000Y-83347797D01*
X132244000Y-83530203D01*
X132208415Y-83709104D01*
X132138611Y-83877626D01*
X132037272Y-84029291D01*
X131908291Y-84158272D01*
X131756626Y-84259611D01*
X131588104Y-84329415D01*
X131409203Y-84365000D01*
X131226797Y-84365000D01*
X131047896Y-84329415D01*
X130879374Y-84259611D01*
X130727709Y-84158272D01*
X130598728Y-84029291D01*
X130497389Y-83877626D01*
X130427585Y-83709104D01*
X130392000Y-83530203D01*
X130392000Y-83347797D01*
X130427585Y-83168896D01*
X130497389Y-83000374D01*
X130598728Y-82848709D01*
X130727709Y-82719728D01*
X130879374Y-82618389D01*
X131047896Y-82548585D01*
X131226797Y-82513000D01*
X131409203Y-82513000D01*
X131588104Y-82548585D01*
G37*
G36*
X121428104Y-82548585D02*
G01*
X121596626Y-82618389D01*
X121748291Y-82719728D01*
X121877272Y-82848709D01*
X121978611Y-83000374D01*
X122048415Y-83168896D01*
X122084000Y-83347797D01*
X122084000Y-83530203D01*
X122048415Y-83709104D01*
X121978611Y-83877626D01*
X121877272Y-84029291D01*
X121748291Y-84158272D01*
X121596626Y-84259611D01*
X121428104Y-84329415D01*
X121249203Y-84365000D01*
X121066797Y-84365000D01*
X120887896Y-84329415D01*
X120719374Y-84259611D01*
X120567709Y-84158272D01*
X120438728Y-84029291D01*
X120337389Y-83877626D01*
X120267585Y-83709104D01*
X120232000Y-83530203D01*
X120232000Y-83347797D01*
X120267585Y-83168896D01*
X120337389Y-83000374D01*
X120438728Y-82848709D01*
X120567709Y-82719728D01*
X120719374Y-82618389D01*
X120887896Y-82548585D01*
X121066797Y-82513000D01*
X121249203Y-82513000D01*
X121428104Y-82548585D01*
G37*
G36*
X112538104Y-82548585D02*
G01*
X112706626Y-82618389D01*
X112858291Y-82719728D01*
X112987272Y-82848709D01*
X113088611Y-83000374D01*
X113158415Y-83168896D01*
X113194000Y-83347797D01*
X113194000Y-83530203D01*
X113158415Y-83709104D01*
X113088611Y-83877626D01*
X112987272Y-84029291D01*
X112858291Y-84158272D01*
X112706626Y-84259611D01*
X112538104Y-84329415D01*
X112359203Y-84365000D01*
X112176797Y-84365000D01*
X111997896Y-84329415D01*
X111829374Y-84259611D01*
X111677709Y-84158272D01*
X111548728Y-84029291D01*
X111447389Y-83877626D01*
X111377585Y-83709104D01*
X111342000Y-83530203D01*
X111342000Y-83347797D01*
X111377585Y-83168896D01*
X111447389Y-83000374D01*
X111548728Y-82848709D01*
X111677709Y-82719728D01*
X111829374Y-82618389D01*
X111997896Y-82548585D01*
X112176797Y-82513000D01*
X112359203Y-82513000D01*
X112538104Y-82548585D01*
G37*
G36*
X102378104Y-82548585D02*
G01*
X102546626Y-82618389D01*
X102698291Y-82719728D01*
X102827272Y-82848709D01*
X102928611Y-83000374D01*
X102998415Y-83168896D01*
X103034000Y-83347797D01*
X103034000Y-83530203D01*
X102998415Y-83709104D01*
X102928611Y-83877626D01*
X102827272Y-84029291D01*
X102698291Y-84158272D01*
X102546626Y-84259611D01*
X102378104Y-84329415D01*
X102199203Y-84365000D01*
X102016797Y-84365000D01*
X101837896Y-84329415D01*
X101669374Y-84259611D01*
X101517709Y-84158272D01*
X101388728Y-84029291D01*
X101287389Y-83877626D01*
X101217585Y-83709104D01*
X101182000Y-83530203D01*
X101182000Y-83347797D01*
X101217585Y-83168896D01*
X101287389Y-83000374D01*
X101388728Y-82848709D01*
X101517709Y-82719728D01*
X101669374Y-82618389D01*
X101837896Y-82548585D01*
X102016797Y-82513000D01*
X102199203Y-82513000D01*
X102378104Y-82548585D01*
G37*
G36*
X93488104Y-82548585D02*
G01*
X93656626Y-82618389D01*
X93808291Y-82719728D01*
X93937272Y-82848709D01*
X94038611Y-83000374D01*
X94108415Y-83168896D01*
X94144000Y-83347797D01*
X94144000Y-83530203D01*
X94108415Y-83709104D01*
X94038611Y-83877626D01*
X93937272Y-84029291D01*
X93808291Y-84158272D01*
X93656626Y-84259611D01*
X93488104Y-84329415D01*
X93309203Y-84365000D01*
X93126797Y-84365000D01*
X92947896Y-84329415D01*
X92779374Y-84259611D01*
X92627709Y-84158272D01*
X92498728Y-84029291D01*
X92397389Y-83877626D01*
X92327585Y-83709104D01*
X92292000Y-83530203D01*
X92292000Y-83347797D01*
X92327585Y-83168896D01*
X92397389Y-83000374D01*
X92498728Y-82848709D01*
X92627709Y-82719728D01*
X92779374Y-82618389D01*
X92947896Y-82548585D01*
X93126797Y-82513000D01*
X93309203Y-82513000D01*
X93488104Y-82548585D01*
G37*
G36*
X83328104Y-82548585D02*
G01*
X83496626Y-82618389D01*
X83648291Y-82719728D01*
X83777272Y-82848709D01*
X83878611Y-83000374D01*
X83948415Y-83168896D01*
X83984000Y-83347797D01*
X83984000Y-83530203D01*
X83948415Y-83709104D01*
X83878611Y-83877626D01*
X83777272Y-84029291D01*
X83648291Y-84158272D01*
X83496626Y-84259611D01*
X83328104Y-84329415D01*
X83149203Y-84365000D01*
X82966797Y-84365000D01*
X82787896Y-84329415D01*
X82619374Y-84259611D01*
X82467709Y-84158272D01*
X82338728Y-84029291D01*
X82237389Y-83877626D01*
X82167585Y-83709104D01*
X82132000Y-83530203D01*
X82132000Y-83347797D01*
X82167585Y-83168896D01*
X82237389Y-83000374D01*
X82338728Y-82848709D01*
X82467709Y-82719728D01*
X82619374Y-82618389D01*
X82787896Y-82548585D01*
X82966797Y-82513000D01*
X83149203Y-82513000D01*
X83328104Y-82548585D01*
G37*
G36*
X74438104Y-82548585D02*
G01*
X74606626Y-82618389D01*
X74758291Y-82719728D01*
X74887272Y-82848709D01*
X74988611Y-83000374D01*
X75058415Y-83168896D01*
X75094000Y-83347797D01*
X75094000Y-83530203D01*
X75058415Y-83709104D01*
X74988611Y-83877626D01*
X74887272Y-84029291D01*
X74758291Y-84158272D01*
X74606626Y-84259611D01*
X74438104Y-84329415D01*
X74259203Y-84365000D01*
X74076797Y-84365000D01*
X73897896Y-84329415D01*
X73729374Y-84259611D01*
X73577709Y-84158272D01*
X73448728Y-84029291D01*
X73347389Y-83877626D01*
X73277585Y-83709104D01*
X73242000Y-83530203D01*
X73242000Y-83347797D01*
X73277585Y-83168896D01*
X73347389Y-83000374D01*
X73448728Y-82848709D01*
X73577709Y-82719728D01*
X73729374Y-82618389D01*
X73897896Y-82548585D01*
X74076797Y-82513000D01*
X74259203Y-82513000D01*
X74438104Y-82548585D01*
G37*
G36*
X64278104Y-82548585D02*
G01*
X64446626Y-82618389D01*
X64598291Y-82719728D01*
X64727272Y-82848709D01*
X64828611Y-83000374D01*
X64898415Y-83168896D01*
X64934000Y-83347797D01*
X64934000Y-83530203D01*
X64898415Y-83709104D01*
X64828611Y-83877626D01*
X64727272Y-84029291D01*
X64598291Y-84158272D01*
X64446626Y-84259611D01*
X64278104Y-84329415D01*
X64099203Y-84365000D01*
X63916797Y-84365000D01*
X63737896Y-84329415D01*
X63569374Y-84259611D01*
X63417709Y-84158272D01*
X63288728Y-84029291D01*
X63187389Y-83877626D01*
X63117585Y-83709104D01*
X63082000Y-83530203D01*
X63082000Y-83347797D01*
X63117585Y-83168896D01*
X63187389Y-83000374D01*
X63288728Y-82848709D01*
X63417709Y-82719728D01*
X63569374Y-82618389D01*
X63737896Y-82548585D01*
X63916797Y-82513000D01*
X64099203Y-82513000D01*
X64278104Y-82548585D01*
G37*
G36*
X207788104Y-82548585D02*
G01*
X207956626Y-82618389D01*
X208108291Y-82719728D01*
X208237272Y-82848709D01*
X208338611Y-83000374D01*
X208408415Y-83168896D01*
X208444000Y-83347797D01*
X208444000Y-83530203D01*
X208408415Y-83709104D01*
X208338611Y-83877626D01*
X208237272Y-84029291D01*
X208108291Y-84158272D01*
X207956626Y-84259611D01*
X207788104Y-84329415D01*
X207609203Y-84365000D01*
X207426797Y-84365000D01*
X207247896Y-84329415D01*
X207079374Y-84259611D01*
X206927709Y-84158272D01*
X206798728Y-84029291D01*
X206697389Y-83877626D01*
X206627585Y-83709104D01*
X206592000Y-83530203D01*
X206592000Y-83347797D01*
X206627585Y-83168896D01*
X206697389Y-83000374D01*
X206798728Y-82848709D01*
X206927709Y-82719728D01*
X207079374Y-82618389D01*
X207247896Y-82548585D01*
X207426797Y-82513000D01*
X207609203Y-82513000D01*
X207788104Y-82548585D01*
G37*
G36*
X197628104Y-82548585D02*
G01*
X197796626Y-82618389D01*
X197948291Y-82719728D01*
X198077272Y-82848709D01*
X198178611Y-83000374D01*
X198248415Y-83168896D01*
X198284000Y-83347797D01*
X198284000Y-83530203D01*
X198248415Y-83709104D01*
X198178611Y-83877626D01*
X198077272Y-84029291D01*
X197948291Y-84158272D01*
X197796626Y-84259611D01*
X197628104Y-84329415D01*
X197449203Y-84365000D01*
X197266797Y-84365000D01*
X197087896Y-84329415D01*
X196919374Y-84259611D01*
X196767709Y-84158272D01*
X196638728Y-84029291D01*
X196537389Y-83877626D01*
X196467585Y-83709104D01*
X196432000Y-83530203D01*
X196432000Y-83347797D01*
X196467585Y-83168896D01*
X196537389Y-83000374D01*
X196638728Y-82848709D01*
X196767709Y-82719728D01*
X196919374Y-82618389D01*
X197087896Y-82548585D01*
X197266797Y-82513000D01*
X197449203Y-82513000D01*
X197628104Y-82548585D01*
G37*
G36*
X283988104Y-82548585D02*
G01*
X284156626Y-82618389D01*
X284308291Y-82719728D01*
X284437272Y-82848709D01*
X284538611Y-83000374D01*
X284608415Y-83168896D01*
X284644000Y-83347797D01*
X284644000Y-83530203D01*
X284608415Y-83709104D01*
X284538611Y-83877626D01*
X284437272Y-84029291D01*
X284308291Y-84158272D01*
X284156626Y-84259611D01*
X283988104Y-84329415D01*
X283809203Y-84365000D01*
X283626797Y-84365000D01*
X283447896Y-84329415D01*
X283279374Y-84259611D01*
X283127709Y-84158272D01*
X282998728Y-84029291D01*
X282897389Y-83877626D01*
X282827585Y-83709104D01*
X282792000Y-83530203D01*
X282792000Y-83347797D01*
X282827585Y-83168896D01*
X282897389Y-83000374D01*
X282998728Y-82848709D01*
X283127709Y-82719728D01*
X283279374Y-82618389D01*
X283447896Y-82548585D01*
X283626797Y-82513000D01*
X283809203Y-82513000D01*
X283988104Y-82548585D01*
G37*
G36*
X226838104Y-82548585D02*
G01*
X227006626Y-82618389D01*
X227158291Y-82719728D01*
X227287272Y-82848709D01*
X227388611Y-83000374D01*
X227458415Y-83168896D01*
X227494000Y-83347797D01*
X227494000Y-83530203D01*
X227458415Y-83709104D01*
X227388611Y-83877626D01*
X227287272Y-84029291D01*
X227158291Y-84158272D01*
X227006626Y-84259611D01*
X226838104Y-84329415D01*
X226659203Y-84365000D01*
X226476797Y-84365000D01*
X226297896Y-84329415D01*
X226129374Y-84259611D01*
X225977709Y-84158272D01*
X225848728Y-84029291D01*
X225747389Y-83877626D01*
X225677585Y-83709104D01*
X225642000Y-83530203D01*
X225642000Y-83347797D01*
X225677585Y-83168896D01*
X225747389Y-83000374D01*
X225848728Y-82848709D01*
X225977709Y-82719728D01*
X226129374Y-82618389D01*
X226297896Y-82548585D01*
X226476797Y-82513000D01*
X226659203Y-82513000D01*
X226838104Y-82548585D01*
G37*
G36*
X216678104Y-82548585D02*
G01*
X216846626Y-82618389D01*
X216998291Y-82719728D01*
X217127272Y-82848709D01*
X217228611Y-83000374D01*
X217298415Y-83168896D01*
X217334000Y-83347797D01*
X217334000Y-83530203D01*
X217298415Y-83709104D01*
X217228611Y-83877626D01*
X217127272Y-84029291D01*
X216998291Y-84158272D01*
X216846626Y-84259611D01*
X216678104Y-84329415D01*
X216499203Y-84365000D01*
X216316797Y-84365000D01*
X216137896Y-84329415D01*
X215969374Y-84259611D01*
X215817709Y-84158272D01*
X215688728Y-84029291D01*
X215587389Y-83877626D01*
X215517585Y-83709104D01*
X215482000Y-83530203D01*
X215482000Y-83347797D01*
X215517585Y-83168896D01*
X215587389Y-83000374D01*
X215688728Y-82848709D01*
X215817709Y-82719728D01*
X215969374Y-82618389D01*
X216137896Y-82548585D01*
X216316797Y-82513000D01*
X216499203Y-82513000D01*
X216678104Y-82548585D01*
G37*
G36*
X245888104Y-82548585D02*
G01*
X246056626Y-82618389D01*
X246208291Y-82719728D01*
X246337272Y-82848709D01*
X246438611Y-83000374D01*
X246508415Y-83168896D01*
X246544000Y-83347797D01*
X246544000Y-83530203D01*
X246508415Y-83709104D01*
X246438611Y-83877626D01*
X246337272Y-84029291D01*
X246208291Y-84158272D01*
X246056626Y-84259611D01*
X245888104Y-84329415D01*
X245709203Y-84365000D01*
X245526797Y-84365000D01*
X245347896Y-84329415D01*
X245179374Y-84259611D01*
X245027709Y-84158272D01*
X244898728Y-84029291D01*
X244797389Y-83877626D01*
X244727585Y-83709104D01*
X244692000Y-83530203D01*
X244692000Y-83347797D01*
X244727585Y-83168896D01*
X244797389Y-83000374D01*
X244898728Y-82848709D01*
X245027709Y-82719728D01*
X245179374Y-82618389D01*
X245347896Y-82548585D01*
X245526797Y-82513000D01*
X245709203Y-82513000D01*
X245888104Y-82548585D01*
G37*
G36*
X235728104Y-82548585D02*
G01*
X235896626Y-82618389D01*
X236048291Y-82719728D01*
X236177272Y-82848709D01*
X236278611Y-83000374D01*
X236348415Y-83168896D01*
X236384000Y-83347797D01*
X236384000Y-83530203D01*
X236348415Y-83709104D01*
X236278611Y-83877626D01*
X236177272Y-84029291D01*
X236048291Y-84158272D01*
X235896626Y-84259611D01*
X235728104Y-84329415D01*
X235549203Y-84365000D01*
X235366797Y-84365000D01*
X235187896Y-84329415D01*
X235019374Y-84259611D01*
X234867709Y-84158272D01*
X234738728Y-84029291D01*
X234637389Y-83877626D01*
X234567585Y-83709104D01*
X234532000Y-83530203D01*
X234532000Y-83347797D01*
X234567585Y-83168896D01*
X234637389Y-83000374D01*
X234738728Y-82848709D01*
X234867709Y-82719728D01*
X235019374Y-82618389D01*
X235187896Y-82548585D01*
X235366797Y-82513000D01*
X235549203Y-82513000D01*
X235728104Y-82548585D01*
G37*
G36*
X188738104Y-82548585D02*
G01*
X188906626Y-82618389D01*
X189058291Y-82719728D01*
X189187272Y-82848709D01*
X189288611Y-83000374D01*
X189358415Y-83168896D01*
X189394000Y-83347797D01*
X189394000Y-83530203D01*
X189358415Y-83709104D01*
X189288611Y-83877626D01*
X189187272Y-84029291D01*
X189058291Y-84158272D01*
X188906626Y-84259611D01*
X188738104Y-84329415D01*
X188559203Y-84365000D01*
X188376797Y-84365000D01*
X188197896Y-84329415D01*
X188029374Y-84259611D01*
X187877709Y-84158272D01*
X187748728Y-84029291D01*
X187647389Y-83877626D01*
X187577585Y-83709104D01*
X187542000Y-83530203D01*
X187542000Y-83347797D01*
X187577585Y-83168896D01*
X187647389Y-83000374D01*
X187748728Y-82848709D01*
X187877709Y-82719728D01*
X188029374Y-82618389D01*
X188197896Y-82548585D01*
X188376797Y-82513000D01*
X188559203Y-82513000D01*
X188738104Y-82548585D01*
G37*
G36*
X264938104Y-82548585D02*
G01*
X265106626Y-82618389D01*
X265258291Y-82719728D01*
X265387272Y-82848709D01*
X265488611Y-83000374D01*
X265558415Y-83168896D01*
X265594000Y-83347797D01*
X265594000Y-83530203D01*
X265558415Y-83709104D01*
X265488611Y-83877626D01*
X265387272Y-84029291D01*
X265258291Y-84158272D01*
X265106626Y-84259611D01*
X264938104Y-84329415D01*
X264759203Y-84365000D01*
X264576797Y-84365000D01*
X264397896Y-84329415D01*
X264229374Y-84259611D01*
X264077709Y-84158272D01*
X263948728Y-84029291D01*
X263847389Y-83877626D01*
X263777585Y-83709104D01*
X263742000Y-83530203D01*
X263742000Y-83347797D01*
X263777585Y-83168896D01*
X263847389Y-83000374D01*
X263948728Y-82848709D01*
X264077709Y-82719728D01*
X264229374Y-82618389D01*
X264397896Y-82548585D01*
X264576797Y-82513000D01*
X264759203Y-82513000D01*
X264938104Y-82548585D01*
G37*
G36*
X254778104Y-82548585D02*
G01*
X254946626Y-82618389D01*
X255098291Y-82719728D01*
X255227272Y-82848709D01*
X255328611Y-83000374D01*
X255398415Y-83168896D01*
X255434000Y-83347797D01*
X255434000Y-83530203D01*
X255398415Y-83709104D01*
X255328611Y-83877626D01*
X255227272Y-84029291D01*
X255098291Y-84158272D01*
X254946626Y-84259611D01*
X254778104Y-84329415D01*
X254599203Y-84365000D01*
X254416797Y-84365000D01*
X254237896Y-84329415D01*
X254069374Y-84259611D01*
X253917709Y-84158272D01*
X253788728Y-84029291D01*
X253687389Y-83877626D01*
X253617585Y-83709104D01*
X253582000Y-83530203D01*
X253582000Y-83347797D01*
X253617585Y-83168896D01*
X253687389Y-83000374D01*
X253788728Y-82848709D01*
X253917709Y-82719728D01*
X254069374Y-82618389D01*
X254237896Y-82548585D01*
X254416797Y-82513000D01*
X254599203Y-82513000D01*
X254778104Y-82548585D01*
G37*
G36*
X273828104Y-82548585D02*
G01*
X273996626Y-82618389D01*
X274148291Y-82719728D01*
X274277272Y-82848709D01*
X274378611Y-83000374D01*
X274448415Y-83168896D01*
X274484000Y-83347797D01*
X274484000Y-83530203D01*
X274448415Y-83709104D01*
X274378611Y-83877626D01*
X274277272Y-84029291D01*
X274148291Y-84158272D01*
X273996626Y-84259611D01*
X273828104Y-84329415D01*
X273649203Y-84365000D01*
X273466797Y-84365000D01*
X273287896Y-84329415D01*
X273119374Y-84259611D01*
X272967709Y-84158272D01*
X272838728Y-84029291D01*
X272737389Y-83877626D01*
X272667585Y-83709104D01*
X272632000Y-83530203D01*
X272632000Y-83347797D01*
X272667585Y-83168896D01*
X272737389Y-83000374D01*
X272838728Y-82848709D01*
X272967709Y-82719728D01*
X273119374Y-82618389D01*
X273287896Y-82548585D01*
X273466797Y-82513000D01*
X273649203Y-82513000D01*
X273828104Y-82548585D01*
G37*
G36*
X178578104Y-82548585D02*
G01*
X178746626Y-82618389D01*
X178898291Y-82719728D01*
X179027272Y-82848709D01*
X179128611Y-83000374D01*
X179198415Y-83168896D01*
X179234000Y-83347797D01*
X179234000Y-83530203D01*
X179198415Y-83709104D01*
X179128611Y-83877626D01*
X179027272Y-84029291D01*
X178898291Y-84158272D01*
X178746626Y-84259611D01*
X178578104Y-84329415D01*
X178399203Y-84365000D01*
X178216797Y-84365000D01*
X178037896Y-84329415D01*
X177869374Y-84259611D01*
X177717709Y-84158272D01*
X177588728Y-84029291D01*
X177487389Y-83877626D01*
X177417585Y-83709104D01*
X177382000Y-83530203D01*
X177382000Y-83347797D01*
X177417585Y-83168896D01*
X177487389Y-83000374D01*
X177588728Y-82848709D01*
X177717709Y-82719728D01*
X177869374Y-82618389D01*
X178037896Y-82548585D01*
X178216797Y-82513000D01*
X178399203Y-82513000D01*
X178578104Y-82548585D01*
G37*
G36*
X48221474Y-71947684D02*
G01*
X48439474Y-72037983D01*
X48593623Y-72101833D01*
X48928548Y-72325623D01*
X49213377Y-72610452D01*
X49437167Y-72945377D01*
X49469562Y-73023586D01*
X49591316Y-73317526D01*
X49669900Y-73712594D01*
X49669900Y-74115406D01*
X49591316Y-74510474D01*
X49540451Y-74633272D01*
X49437167Y-74882623D01*
X49213377Y-75217548D01*
X48928548Y-75502377D01*
X48593623Y-75726167D01*
X48439474Y-75790017D01*
X48221474Y-75880316D01*
X47826406Y-75958900D01*
X47423594Y-75958900D01*
X47028526Y-75880316D01*
X46810526Y-75790017D01*
X46656377Y-75726167D01*
X46321452Y-75502377D01*
X46036623Y-75217548D01*
X45812833Y-74882623D01*
X45709549Y-74633272D01*
X45658684Y-74510474D01*
X45580100Y-74115406D01*
X45580100Y-73712594D01*
X45658684Y-73317526D01*
X45780438Y-73023586D01*
X45812833Y-72945377D01*
X46036623Y-72610452D01*
X46321452Y-72325623D01*
X46656377Y-72101833D01*
X46810526Y-72037983D01*
X47028526Y-71947684D01*
X47423594Y-71869100D01*
X47826406Y-71869100D01*
X48221474Y-71947684D01*
G37*
G36*
X19646474Y-71947684D02*
G01*
X19864474Y-72037983D01*
X20018623Y-72101833D01*
X20353548Y-72325623D01*
X20638377Y-72610452D01*
X20862167Y-72945377D01*
X20894562Y-73023586D01*
X21016316Y-73317526D01*
X21094900Y-73712594D01*
X21094900Y-74115406D01*
X21016316Y-74510474D01*
X20965451Y-74633272D01*
X20862167Y-74882623D01*
X20638377Y-75217548D01*
X20353548Y-75502377D01*
X20018623Y-75726167D01*
X19864474Y-75790017D01*
X19646474Y-75880316D01*
X19251406Y-75958900D01*
X18848594Y-75958900D01*
X18453526Y-75880316D01*
X18235526Y-75790017D01*
X18081377Y-75726167D01*
X17746452Y-75502377D01*
X17461623Y-75217548D01*
X17237833Y-74882623D01*
X17134549Y-74633272D01*
X17083684Y-74510474D01*
X17005100Y-74115406D01*
X17005100Y-73712594D01*
X17083684Y-73317526D01*
X17205438Y-73023586D01*
X17237833Y-72945377D01*
X17461623Y-72610452D01*
X17746452Y-72325623D01*
X18081377Y-72101833D01*
X18235526Y-72037983D01*
X18453526Y-71947684D01*
X18848594Y-71869100D01*
X19251406Y-71869100D01*
X19646474Y-71947684D01*
G37*
G36*
X52975104Y-73023585D02*
G01*
X53143626Y-73093389D01*
X53295291Y-73194728D01*
X53424272Y-73323709D01*
X53525611Y-73475374D01*
X53595415Y-73643896D01*
X53631000Y-73822797D01*
X53631000Y-74005203D01*
X53595415Y-74184104D01*
X53525611Y-74352626D01*
X53424272Y-74504291D01*
X53295291Y-74633272D01*
X53143626Y-74734611D01*
X52975104Y-74804415D01*
X52796203Y-74840000D01*
X52613797Y-74840000D01*
X52434896Y-74804415D01*
X52266374Y-74734611D01*
X52114709Y-74633272D01*
X51985728Y-74504291D01*
X51884389Y-74352626D01*
X51814585Y-74184104D01*
X51779000Y-74005203D01*
X51779000Y-73822797D01*
X51814585Y-73643896D01*
X51884389Y-73475374D01*
X51985728Y-73323709D01*
X52114709Y-73194728D01*
X52266374Y-73093389D01*
X52434896Y-73023585D01*
X52613797Y-72988000D01*
X52796203Y-72988000D01*
X52975104Y-73023585D01*
G37*
G36*
X14240104Y-73023585D02*
G01*
X14408626Y-73093389D01*
X14560291Y-73194728D01*
X14689272Y-73323709D01*
X14790611Y-73475374D01*
X14860415Y-73643896D01*
X14896000Y-73822797D01*
X14896000Y-74005203D01*
X14860415Y-74184104D01*
X14790611Y-74352626D01*
X14689272Y-74504291D01*
X14560291Y-74633272D01*
X14408626Y-74734611D01*
X14240104Y-74804415D01*
X14061203Y-74840000D01*
X13878797Y-74840000D01*
X13699896Y-74804415D01*
X13531374Y-74734611D01*
X13379709Y-74633272D01*
X13250728Y-74504291D01*
X13149389Y-74352626D01*
X13079585Y-74184104D01*
X13044000Y-74005203D01*
X13044000Y-73822797D01*
X13079585Y-73643896D01*
X13149389Y-73475374D01*
X13250728Y-73323709D01*
X13379709Y-73194728D01*
X13531374Y-73093389D01*
X13699896Y-73023585D01*
X13878797Y-72988000D01*
X14061203Y-72988000D01*
X14240104Y-73023585D01*
G37*
G36*
X24400104Y-73023585D02*
G01*
X24568626Y-73093389D01*
X24720291Y-73194728D01*
X24849272Y-73323709D01*
X24950611Y-73475374D01*
X25020415Y-73643896D01*
X25056000Y-73822797D01*
X25056000Y-74005203D01*
X25020415Y-74184104D01*
X24950611Y-74352626D01*
X24849272Y-74504291D01*
X24720291Y-74633272D01*
X24568626Y-74734611D01*
X24400104Y-74804415D01*
X24221203Y-74840000D01*
X24038797Y-74840000D01*
X23859896Y-74804415D01*
X23691374Y-74734611D01*
X23539709Y-74633272D01*
X23410728Y-74504291D01*
X23309389Y-74352626D01*
X23239585Y-74184104D01*
X23204000Y-74005203D01*
X23204000Y-73822797D01*
X23239585Y-73643896D01*
X23309389Y-73475374D01*
X23410728Y-73323709D01*
X23539709Y-73194728D01*
X23691374Y-73093389D01*
X23859896Y-73023585D01*
X24038797Y-72988000D01*
X24221203Y-72988000D01*
X24400104Y-73023585D01*
G37*
G36*
X42815104Y-73023585D02*
G01*
X42983626Y-73093389D01*
X43135291Y-73194728D01*
X43264272Y-73323709D01*
X43365611Y-73475374D01*
X43435415Y-73643896D01*
X43471000Y-73822797D01*
X43471000Y-74005203D01*
X43435415Y-74184104D01*
X43365611Y-74352626D01*
X43264272Y-74504291D01*
X43135291Y-74633272D01*
X42983626Y-74734611D01*
X42815104Y-74804415D01*
X42636203Y-74840000D01*
X42453797Y-74840000D01*
X42274896Y-74804415D01*
X42106374Y-74734611D01*
X41954709Y-74633272D01*
X41825728Y-74504291D01*
X41724389Y-74352626D01*
X41654585Y-74184104D01*
X41619000Y-74005203D01*
X41619000Y-73822797D01*
X41654585Y-73643896D01*
X41724389Y-73475374D01*
X41825728Y-73323709D01*
X41954709Y-73194728D01*
X42106374Y-73093389D01*
X42274896Y-73023585D01*
X42453797Y-72988000D01*
X42636203Y-72988000D01*
X42815104Y-73023585D01*
G37*
G36*
X69684474Y-62422684D02*
G01*
X69834686Y-62484904D01*
X70056623Y-62576833D01*
X70391548Y-62800623D01*
X70676377Y-63085452D01*
X70900167Y-63420377D01*
X70955995Y-63555158D01*
X71054316Y-63792526D01*
X71132900Y-64187594D01*
X71132900Y-64590406D01*
X71054316Y-64985474D01*
X71003451Y-65108272D01*
X70900167Y-65357623D01*
X70676377Y-65692548D01*
X70391548Y-65977377D01*
X70056623Y-66201167D01*
X69902474Y-66265017D01*
X69684474Y-66355316D01*
X69289406Y-66433900D01*
X68886594Y-66433900D01*
X68491526Y-66355316D01*
X68273526Y-66265017D01*
X68119377Y-66201167D01*
X67784452Y-65977377D01*
X67499623Y-65692548D01*
X67275833Y-65357623D01*
X67172549Y-65108272D01*
X67121684Y-64985474D01*
X67043100Y-64590406D01*
X67043100Y-64187594D01*
X67121684Y-63792526D01*
X67220005Y-63555158D01*
X67275833Y-63420377D01*
X67499623Y-63085452D01*
X67784452Y-62800623D01*
X68119377Y-62576833D01*
X68341314Y-62484904D01*
X68491526Y-62422684D01*
X68886594Y-62344100D01*
X69289406Y-62344100D01*
X69684474Y-62422684D01*
G37*
G36*
X126834474Y-62422684D02*
G01*
X126984686Y-62484904D01*
X127206623Y-62576833D01*
X127541548Y-62800623D01*
X127826377Y-63085452D01*
X128050167Y-63420377D01*
X128105995Y-63555158D01*
X128204316Y-63792526D01*
X128282900Y-64187594D01*
X128282900Y-64590406D01*
X128204316Y-64985474D01*
X128153451Y-65108272D01*
X128050167Y-65357623D01*
X127826377Y-65692548D01*
X127541548Y-65977377D01*
X127206623Y-66201167D01*
X127052474Y-66265017D01*
X126834474Y-66355316D01*
X126439406Y-66433900D01*
X126036594Y-66433900D01*
X125641526Y-66355316D01*
X125423526Y-66265017D01*
X125269377Y-66201167D01*
X124934452Y-65977377D01*
X124649623Y-65692548D01*
X124425833Y-65357623D01*
X124322549Y-65108272D01*
X124271684Y-64985474D01*
X124193100Y-64590406D01*
X124193100Y-64187594D01*
X124271684Y-63792526D01*
X124370005Y-63555158D01*
X124425833Y-63420377D01*
X124649623Y-63085452D01*
X124934452Y-62800623D01*
X125269377Y-62576833D01*
X125491314Y-62484904D01*
X125641526Y-62422684D01*
X126036594Y-62344100D01*
X126439406Y-62344100D01*
X126834474Y-62422684D01*
G37*
G36*
X107784474Y-62422684D02*
G01*
X107934686Y-62484904D01*
X108156623Y-62576833D01*
X108491548Y-62800623D01*
X108776377Y-63085452D01*
X109000167Y-63420377D01*
X109055995Y-63555158D01*
X109154316Y-63792526D01*
X109232900Y-64187594D01*
X109232900Y-64590406D01*
X109154316Y-64985474D01*
X109103451Y-65108272D01*
X109000167Y-65357623D01*
X108776377Y-65692548D01*
X108491548Y-65977377D01*
X108156623Y-66201167D01*
X108002474Y-66265017D01*
X107784474Y-66355316D01*
X107389406Y-66433900D01*
X106986594Y-66433900D01*
X106591526Y-66355316D01*
X106373526Y-66265017D01*
X106219377Y-66201167D01*
X105884452Y-65977377D01*
X105599623Y-65692548D01*
X105375833Y-65357623D01*
X105272549Y-65108272D01*
X105221684Y-64985474D01*
X105143100Y-64590406D01*
X105143100Y-64187594D01*
X105221684Y-63792526D01*
X105320005Y-63555158D01*
X105375833Y-63420377D01*
X105599623Y-63085452D01*
X105884452Y-62800623D01*
X106219377Y-62576833D01*
X106441314Y-62484904D01*
X106591526Y-62422684D01*
X106986594Y-62344100D01*
X107389406Y-62344100D01*
X107784474Y-62422684D01*
G37*
G36*
X145884474Y-62422684D02*
G01*
X146034686Y-62484904D01*
X146256623Y-62576833D01*
X146591548Y-62800623D01*
X146876377Y-63085452D01*
X147100167Y-63420377D01*
X147155995Y-63555158D01*
X147254316Y-63792526D01*
X147332900Y-64187594D01*
X147332900Y-64590406D01*
X147254316Y-64985474D01*
X147203451Y-65108272D01*
X147100167Y-65357623D01*
X146876377Y-65692548D01*
X146591548Y-65977377D01*
X146256623Y-66201167D01*
X146102474Y-66265017D01*
X145884474Y-66355316D01*
X145489406Y-66433900D01*
X145086594Y-66433900D01*
X144691526Y-66355316D01*
X144473526Y-66265017D01*
X144319377Y-66201167D01*
X143984452Y-65977377D01*
X143699623Y-65692548D01*
X143475833Y-65357623D01*
X143372549Y-65108272D01*
X143321684Y-64985474D01*
X143243100Y-64590406D01*
X143243100Y-64187594D01*
X143321684Y-63792526D01*
X143420005Y-63555158D01*
X143475833Y-63420377D01*
X143699623Y-63085452D01*
X143984452Y-62800623D01*
X144319377Y-62576833D01*
X144541314Y-62484904D01*
X144691526Y-62422684D01*
X145086594Y-62344100D01*
X145489406Y-62344100D01*
X145884474Y-62422684D01*
G37*
G36*
X164934474Y-62422684D02*
G01*
X165084686Y-62484904D01*
X165306623Y-62576833D01*
X165641548Y-62800623D01*
X165926377Y-63085452D01*
X166150167Y-63420377D01*
X166205995Y-63555158D01*
X166304316Y-63792526D01*
X166382900Y-64187594D01*
X166382900Y-64590406D01*
X166304316Y-64985474D01*
X166253451Y-65108272D01*
X166150167Y-65357623D01*
X165926377Y-65692548D01*
X165641548Y-65977377D01*
X165306623Y-66201167D01*
X165152474Y-66265017D01*
X164934474Y-66355316D01*
X164539406Y-66433900D01*
X164136594Y-66433900D01*
X163741526Y-66355316D01*
X163523526Y-66265017D01*
X163369377Y-66201167D01*
X163034452Y-65977377D01*
X162749623Y-65692548D01*
X162525833Y-65357623D01*
X162422549Y-65108272D01*
X162371684Y-64985474D01*
X162293100Y-64590406D01*
X162293100Y-64187594D01*
X162371684Y-63792526D01*
X162470005Y-63555158D01*
X162525833Y-63420377D01*
X162749623Y-63085452D01*
X163034452Y-62800623D01*
X163369377Y-62576833D01*
X163591314Y-62484904D01*
X163741526Y-62422684D01*
X164136594Y-62344100D01*
X164539406Y-62344100D01*
X164934474Y-62422684D01*
G37*
G36*
X183984474Y-62422684D02*
G01*
X184134686Y-62484904D01*
X184356623Y-62576833D01*
X184691548Y-62800623D01*
X184976377Y-63085452D01*
X185200167Y-63420377D01*
X185255995Y-63555158D01*
X185354316Y-63792526D01*
X185432900Y-64187594D01*
X185432900Y-64590406D01*
X185354316Y-64985474D01*
X185303451Y-65108272D01*
X185200167Y-65357623D01*
X184976377Y-65692548D01*
X184691548Y-65977377D01*
X184356623Y-66201167D01*
X184202474Y-66265017D01*
X183984474Y-66355316D01*
X183589406Y-66433900D01*
X183186594Y-66433900D01*
X182791526Y-66355316D01*
X182573526Y-66265017D01*
X182419377Y-66201167D01*
X182084452Y-65977377D01*
X181799623Y-65692548D01*
X181575833Y-65357623D01*
X181472549Y-65108272D01*
X181421684Y-64985474D01*
X181343100Y-64590406D01*
X181343100Y-64187594D01*
X181421684Y-63792526D01*
X181520005Y-63555158D01*
X181575833Y-63420377D01*
X181799623Y-63085452D01*
X182084452Y-62800623D01*
X182419377Y-62576833D01*
X182641314Y-62484904D01*
X182791526Y-62422684D01*
X183186594Y-62344100D01*
X183589406Y-62344100D01*
X183984474Y-62422684D01*
G37*
G36*
X222084474Y-62422684D02*
G01*
X222234686Y-62484904D01*
X222456623Y-62576833D01*
X222791548Y-62800623D01*
X223076377Y-63085452D01*
X223300167Y-63420377D01*
X223355995Y-63555158D01*
X223454316Y-63792526D01*
X223532900Y-64187594D01*
X223532900Y-64590406D01*
X223454316Y-64985474D01*
X223403451Y-65108272D01*
X223300167Y-65357623D01*
X223076377Y-65692548D01*
X222791548Y-65977377D01*
X222456623Y-66201167D01*
X222302474Y-66265017D01*
X222084474Y-66355316D01*
X221689406Y-66433900D01*
X221286594Y-66433900D01*
X220891526Y-66355316D01*
X220673526Y-66265017D01*
X220519377Y-66201167D01*
X220184452Y-65977377D01*
X219899623Y-65692548D01*
X219675833Y-65357623D01*
X219572549Y-65108272D01*
X219521684Y-64985474D01*
X219443100Y-64590406D01*
X219443100Y-64187594D01*
X219521684Y-63792526D01*
X219620005Y-63555158D01*
X219675833Y-63420377D01*
X219899623Y-63085452D01*
X220184452Y-62800623D01*
X220519377Y-62576833D01*
X220741314Y-62484904D01*
X220891526Y-62422684D01*
X221286594Y-62344100D01*
X221689406Y-62344100D01*
X222084474Y-62422684D01*
G37*
G36*
X203034474Y-62422684D02*
G01*
X203184686Y-62484904D01*
X203406623Y-62576833D01*
X203741548Y-62800623D01*
X204026377Y-63085452D01*
X204250167Y-63420377D01*
X204305995Y-63555158D01*
X204404316Y-63792526D01*
X204482900Y-64187594D01*
X204482900Y-64590406D01*
X204404316Y-64985474D01*
X204353451Y-65108272D01*
X204250167Y-65357623D01*
X204026377Y-65692548D01*
X203741548Y-65977377D01*
X203406623Y-66201167D01*
X203252474Y-66265017D01*
X203034474Y-66355316D01*
X202639406Y-66433900D01*
X202236594Y-66433900D01*
X201841526Y-66355316D01*
X201623526Y-66265017D01*
X201469377Y-66201167D01*
X201134452Y-65977377D01*
X200849623Y-65692548D01*
X200625833Y-65357623D01*
X200522549Y-65108272D01*
X200471684Y-64985474D01*
X200393100Y-64590406D01*
X200393100Y-64187594D01*
X200471684Y-63792526D01*
X200570005Y-63555158D01*
X200625833Y-63420377D01*
X200849623Y-63085452D01*
X201134452Y-62800623D01*
X201469377Y-62576833D01*
X201691314Y-62484904D01*
X201841526Y-62422684D01*
X202236594Y-62344100D01*
X202639406Y-62344100D01*
X203034474Y-62422684D01*
G37*
G36*
X88734474Y-62422684D02*
G01*
X88884686Y-62484904D01*
X89106623Y-62576833D01*
X89441548Y-62800623D01*
X89726377Y-63085452D01*
X89950167Y-63420377D01*
X90005995Y-63555158D01*
X90104316Y-63792526D01*
X90182900Y-64187594D01*
X90182900Y-64590406D01*
X90104316Y-64985474D01*
X90053451Y-65108272D01*
X89950167Y-65357623D01*
X89726377Y-65692548D01*
X89441548Y-65977377D01*
X89106623Y-66201167D01*
X88952474Y-66265017D01*
X88734474Y-66355316D01*
X88339406Y-66433900D01*
X87936594Y-66433900D01*
X87541526Y-66355316D01*
X87323526Y-66265017D01*
X87169377Y-66201167D01*
X86834452Y-65977377D01*
X86549623Y-65692548D01*
X86325833Y-65357623D01*
X86222549Y-65108272D01*
X86171684Y-64985474D01*
X86093100Y-64590406D01*
X86093100Y-64187594D01*
X86171684Y-63792526D01*
X86270005Y-63555158D01*
X86325833Y-63420377D01*
X86549623Y-63085452D01*
X86834452Y-62800623D01*
X87169377Y-62576833D01*
X87391314Y-62484904D01*
X87541526Y-62422684D01*
X87936594Y-62344100D01*
X88339406Y-62344100D01*
X88734474Y-62422684D01*
G37*
G36*
X279234474Y-62422684D02*
G01*
X279384686Y-62484904D01*
X279606623Y-62576833D01*
X279941548Y-62800623D01*
X280226377Y-63085452D01*
X280450167Y-63420377D01*
X280505995Y-63555158D01*
X280604316Y-63792526D01*
X280682900Y-64187594D01*
X280682900Y-64590406D01*
X280604316Y-64985474D01*
X280553451Y-65108272D01*
X280450167Y-65357623D01*
X280226377Y-65692548D01*
X279941548Y-65977377D01*
X279606623Y-66201167D01*
X279452474Y-66265017D01*
X279234474Y-66355316D01*
X278839406Y-66433900D01*
X278436594Y-66433900D01*
X278041526Y-66355316D01*
X277823526Y-66265017D01*
X277669377Y-66201167D01*
X277334452Y-65977377D01*
X277049623Y-65692548D01*
X276825833Y-65357623D01*
X276722549Y-65108272D01*
X276671684Y-64985474D01*
X276593100Y-64590406D01*
X276593100Y-64187594D01*
X276671684Y-63792526D01*
X276770005Y-63555158D01*
X276825833Y-63420377D01*
X277049623Y-63085452D01*
X277334452Y-62800623D01*
X277669377Y-62576833D01*
X277891314Y-62484904D01*
X278041526Y-62422684D01*
X278436594Y-62344100D01*
X278839406Y-62344100D01*
X279234474Y-62422684D01*
G37*
G36*
X260184474Y-62422684D02*
G01*
X260334686Y-62484904D01*
X260556623Y-62576833D01*
X260891548Y-62800623D01*
X261176377Y-63085452D01*
X261400167Y-63420377D01*
X261455995Y-63555158D01*
X261554316Y-63792526D01*
X261632900Y-64187594D01*
X261632900Y-64590406D01*
X261554316Y-64985474D01*
X261503451Y-65108272D01*
X261400167Y-65357623D01*
X261176377Y-65692548D01*
X260891548Y-65977377D01*
X260556623Y-66201167D01*
X260402474Y-66265017D01*
X260184474Y-66355316D01*
X259789406Y-66433900D01*
X259386594Y-66433900D01*
X258991526Y-66355316D01*
X258773526Y-66265017D01*
X258619377Y-66201167D01*
X258284452Y-65977377D01*
X257999623Y-65692548D01*
X257775833Y-65357623D01*
X257672549Y-65108272D01*
X257621684Y-64985474D01*
X257543100Y-64590406D01*
X257543100Y-64187594D01*
X257621684Y-63792526D01*
X257720005Y-63555158D01*
X257775833Y-63420377D01*
X257999623Y-63085452D01*
X258284452Y-62800623D01*
X258619377Y-62576833D01*
X258841314Y-62484904D01*
X258991526Y-62422684D01*
X259386594Y-62344100D01*
X259789406Y-62344100D01*
X260184474Y-62422684D01*
G37*
G36*
X241134474Y-62422684D02*
G01*
X241284686Y-62484904D01*
X241506623Y-62576833D01*
X241841548Y-62800623D01*
X242126377Y-63085452D01*
X242350167Y-63420377D01*
X242405995Y-63555158D01*
X242504316Y-63792526D01*
X242582900Y-64187594D01*
X242582900Y-64590406D01*
X242504316Y-64985474D01*
X242453451Y-65108272D01*
X242350167Y-65357623D01*
X242126377Y-65692548D01*
X241841548Y-65977377D01*
X241506623Y-66201167D01*
X241352474Y-66265017D01*
X241134474Y-66355316D01*
X240739406Y-66433900D01*
X240336594Y-66433900D01*
X239941526Y-66355316D01*
X239723526Y-66265017D01*
X239569377Y-66201167D01*
X239234452Y-65977377D01*
X238949623Y-65692548D01*
X238725833Y-65357623D01*
X238622549Y-65108272D01*
X238571684Y-64985474D01*
X238493100Y-64590406D01*
X238493100Y-64187594D01*
X238571684Y-63792526D01*
X238670005Y-63555158D01*
X238725833Y-63420377D01*
X238949623Y-63085452D01*
X239234452Y-62800623D01*
X239569377Y-62576833D01*
X239791314Y-62484904D01*
X239941526Y-62422684D01*
X240336594Y-62344100D01*
X240739406Y-62344100D01*
X241134474Y-62422684D01*
G37*
G36*
X131588104Y-63498585D02*
G01*
X131756626Y-63568389D01*
X131908291Y-63669728D01*
X132037272Y-63798709D01*
X132138611Y-63950374D01*
X132208415Y-64118896D01*
X132244000Y-64297797D01*
X132244000Y-64480203D01*
X132208415Y-64659104D01*
X132138611Y-64827626D01*
X132037272Y-64979291D01*
X131908291Y-65108272D01*
X131756626Y-65209611D01*
X131588104Y-65279415D01*
X131409203Y-65315000D01*
X131226797Y-65315000D01*
X131047896Y-65279415D01*
X130879374Y-65209611D01*
X130727709Y-65108272D01*
X130598728Y-64979291D01*
X130497389Y-64827626D01*
X130427585Y-64659104D01*
X130392000Y-64480203D01*
X130392000Y-64297797D01*
X130427585Y-64118896D01*
X130497389Y-63950374D01*
X130598728Y-63798709D01*
X130727709Y-63669728D01*
X130879374Y-63568389D01*
X131047896Y-63498585D01*
X131226797Y-63463000D01*
X131409203Y-63463000D01*
X131588104Y-63498585D01*
G37*
G36*
X121428104Y-63498585D02*
G01*
X121596626Y-63568389D01*
X121748291Y-63669728D01*
X121877272Y-63798709D01*
X121978611Y-63950374D01*
X122048415Y-64118896D01*
X122084000Y-64297797D01*
X122084000Y-64480203D01*
X122048415Y-64659104D01*
X121978611Y-64827626D01*
X121877272Y-64979291D01*
X121748291Y-65108272D01*
X121596626Y-65209611D01*
X121428104Y-65279415D01*
X121249203Y-65315000D01*
X121066797Y-65315000D01*
X120887896Y-65279415D01*
X120719374Y-65209611D01*
X120567709Y-65108272D01*
X120438728Y-64979291D01*
X120337389Y-64827626D01*
X120267585Y-64659104D01*
X120232000Y-64480203D01*
X120232000Y-64297797D01*
X120267585Y-64118896D01*
X120337389Y-63950374D01*
X120438728Y-63798709D01*
X120567709Y-63669728D01*
X120719374Y-63568389D01*
X120887896Y-63498585D01*
X121066797Y-63463000D01*
X121249203Y-63463000D01*
X121428104Y-63498585D01*
G37*
G36*
X102378104Y-63498585D02*
G01*
X102546626Y-63568389D01*
X102698291Y-63669728D01*
X102827272Y-63798709D01*
X102928611Y-63950374D01*
X102998415Y-64118896D01*
X103034000Y-64297797D01*
X103034000Y-64480203D01*
X102998415Y-64659104D01*
X102928611Y-64827626D01*
X102827272Y-64979291D01*
X102698291Y-65108272D01*
X102546626Y-65209611D01*
X102378104Y-65279415D01*
X102199203Y-65315000D01*
X102016797Y-65315000D01*
X101837896Y-65279415D01*
X101669374Y-65209611D01*
X101517709Y-65108272D01*
X101388728Y-64979291D01*
X101287389Y-64827626D01*
X101217585Y-64659104D01*
X101182000Y-64480203D01*
X101182000Y-64297797D01*
X101217585Y-64118896D01*
X101287389Y-63950374D01*
X101388728Y-63798709D01*
X101517709Y-63669728D01*
X101669374Y-63568389D01*
X101837896Y-63498585D01*
X102016797Y-63463000D01*
X102199203Y-63463000D01*
X102378104Y-63498585D01*
G37*
G36*
X150638104Y-63498585D02*
G01*
X150806626Y-63568389D01*
X150958291Y-63669728D01*
X151087272Y-63798709D01*
X151188611Y-63950374D01*
X151258415Y-64118896D01*
X151294000Y-64297797D01*
X151294000Y-64480203D01*
X151258415Y-64659104D01*
X151188611Y-64827626D01*
X151087272Y-64979291D01*
X150958291Y-65108272D01*
X150806626Y-65209611D01*
X150638104Y-65279415D01*
X150459203Y-65315000D01*
X150276797Y-65315000D01*
X150097896Y-65279415D01*
X149929374Y-65209611D01*
X149777709Y-65108272D01*
X149648728Y-64979291D01*
X149547389Y-64827626D01*
X149477585Y-64659104D01*
X149442000Y-64480203D01*
X149442000Y-64297797D01*
X149477585Y-64118896D01*
X149547389Y-63950374D01*
X149648728Y-63798709D01*
X149777709Y-63669728D01*
X149929374Y-63568389D01*
X150097896Y-63498585D01*
X150276797Y-63463000D01*
X150459203Y-63463000D01*
X150638104Y-63498585D01*
G37*
G36*
X140478104Y-63498585D02*
G01*
X140646626Y-63568389D01*
X140798291Y-63669728D01*
X140927272Y-63798709D01*
X141028611Y-63950374D01*
X141098415Y-64118896D01*
X141134000Y-64297797D01*
X141134000Y-64480203D01*
X141098415Y-64659104D01*
X141028611Y-64827626D01*
X140927272Y-64979291D01*
X140798291Y-65108272D01*
X140646626Y-65209611D01*
X140478104Y-65279415D01*
X140299203Y-65315000D01*
X140116797Y-65315000D01*
X139937896Y-65279415D01*
X139769374Y-65209611D01*
X139617709Y-65108272D01*
X139488728Y-64979291D01*
X139387389Y-64827626D01*
X139317585Y-64659104D01*
X139282000Y-64480203D01*
X139282000Y-64297797D01*
X139317585Y-64118896D01*
X139387389Y-63950374D01*
X139488728Y-63798709D01*
X139617709Y-63669728D01*
X139769374Y-63568389D01*
X139937896Y-63498585D01*
X140116797Y-63463000D01*
X140299203Y-63463000D01*
X140478104Y-63498585D01*
G37*
G36*
X112538104Y-63498585D02*
G01*
X112706626Y-63568389D01*
X112858291Y-63669728D01*
X112987272Y-63798709D01*
X113088611Y-63950374D01*
X113158415Y-64118896D01*
X113194000Y-64297797D01*
X113194000Y-64480203D01*
X113158415Y-64659104D01*
X113088611Y-64827626D01*
X112987272Y-64979291D01*
X112858291Y-65108272D01*
X112706626Y-65209611D01*
X112538104Y-65279415D01*
X112359203Y-65315000D01*
X112176797Y-65315000D01*
X111997896Y-65279415D01*
X111829374Y-65209611D01*
X111677709Y-65108272D01*
X111548728Y-64979291D01*
X111447389Y-64827626D01*
X111377585Y-64659104D01*
X111342000Y-64480203D01*
X111342000Y-64297797D01*
X111377585Y-64118896D01*
X111447389Y-63950374D01*
X111548728Y-63798709D01*
X111677709Y-63669728D01*
X111829374Y-63568389D01*
X111997896Y-63498585D01*
X112176797Y-63463000D01*
X112359203Y-63463000D01*
X112538104Y-63498585D01*
G37*
G36*
X169688104Y-63498585D02*
G01*
X169856626Y-63568389D01*
X170008291Y-63669728D01*
X170137272Y-63798709D01*
X170238611Y-63950374D01*
X170308415Y-64118896D01*
X170344000Y-64297797D01*
X170344000Y-64480203D01*
X170308415Y-64659104D01*
X170238611Y-64827626D01*
X170137272Y-64979291D01*
X170008291Y-65108272D01*
X169856626Y-65209611D01*
X169688104Y-65279415D01*
X169509203Y-65315000D01*
X169326797Y-65315000D01*
X169147896Y-65279415D01*
X168979374Y-65209611D01*
X168827709Y-65108272D01*
X168698728Y-64979291D01*
X168597389Y-64827626D01*
X168527585Y-64659104D01*
X168492000Y-64480203D01*
X168492000Y-64297797D01*
X168527585Y-64118896D01*
X168597389Y-63950374D01*
X168698728Y-63798709D01*
X168827709Y-63669728D01*
X168979374Y-63568389D01*
X169147896Y-63498585D01*
X169326797Y-63463000D01*
X169509203Y-63463000D01*
X169688104Y-63498585D01*
G37*
G36*
X159528104Y-63498585D02*
G01*
X159696626Y-63568389D01*
X159848291Y-63669728D01*
X159977272Y-63798709D01*
X160078611Y-63950374D01*
X160148415Y-64118896D01*
X160184000Y-64297797D01*
X160184000Y-64480203D01*
X160148415Y-64659104D01*
X160078611Y-64827626D01*
X159977272Y-64979291D01*
X159848291Y-65108272D01*
X159696626Y-65209611D01*
X159528104Y-65279415D01*
X159349203Y-65315000D01*
X159166797Y-65315000D01*
X158987896Y-65279415D01*
X158819374Y-65209611D01*
X158667709Y-65108272D01*
X158538728Y-64979291D01*
X158437389Y-64827626D01*
X158367585Y-64659104D01*
X158332000Y-64480203D01*
X158332000Y-64297797D01*
X158367585Y-64118896D01*
X158437389Y-63950374D01*
X158538728Y-63798709D01*
X158667709Y-63669728D01*
X158819374Y-63568389D01*
X158987896Y-63498585D01*
X159166797Y-63463000D01*
X159349203Y-63463000D01*
X159528104Y-63498585D01*
G37*
G36*
X83328104Y-63498585D02*
G01*
X83496626Y-63568389D01*
X83648291Y-63669728D01*
X83777272Y-63798709D01*
X83878611Y-63950374D01*
X83948415Y-64118896D01*
X83984000Y-64297797D01*
X83984000Y-64480203D01*
X83948415Y-64659104D01*
X83878611Y-64827626D01*
X83777272Y-64979291D01*
X83648291Y-65108272D01*
X83496626Y-65209611D01*
X83328104Y-65279415D01*
X83149203Y-65315000D01*
X82966797Y-65315000D01*
X82787896Y-65279415D01*
X82619374Y-65209611D01*
X82467709Y-65108272D01*
X82338728Y-64979291D01*
X82237389Y-64827626D01*
X82167585Y-64659104D01*
X82132000Y-64480203D01*
X82132000Y-64297797D01*
X82167585Y-64118896D01*
X82237389Y-63950374D01*
X82338728Y-63798709D01*
X82467709Y-63669728D01*
X82619374Y-63568389D01*
X82787896Y-63498585D01*
X82966797Y-63463000D01*
X83149203Y-63463000D01*
X83328104Y-63498585D01*
G37*
G36*
X188738104Y-63498585D02*
G01*
X188906626Y-63568389D01*
X189058291Y-63669728D01*
X189187272Y-63798709D01*
X189288611Y-63950374D01*
X189358415Y-64118896D01*
X189394000Y-64297797D01*
X189394000Y-64480203D01*
X189358415Y-64659104D01*
X189288611Y-64827626D01*
X189187272Y-64979291D01*
X189058291Y-65108272D01*
X188906626Y-65209611D01*
X188738104Y-65279415D01*
X188559203Y-65315000D01*
X188376797Y-65315000D01*
X188197896Y-65279415D01*
X188029374Y-65209611D01*
X187877709Y-65108272D01*
X187748728Y-64979291D01*
X187647389Y-64827626D01*
X187577585Y-64659104D01*
X187542000Y-64480203D01*
X187542000Y-64297797D01*
X187577585Y-64118896D01*
X187647389Y-63950374D01*
X187748728Y-63798709D01*
X187877709Y-63669728D01*
X188029374Y-63568389D01*
X188197896Y-63498585D01*
X188376797Y-63463000D01*
X188559203Y-63463000D01*
X188738104Y-63498585D01*
G37*
G36*
X178578104Y-63498585D02*
G01*
X178746626Y-63568389D01*
X178898291Y-63669728D01*
X179027272Y-63798709D01*
X179128611Y-63950374D01*
X179198415Y-64118896D01*
X179234000Y-64297797D01*
X179234000Y-64480203D01*
X179198415Y-64659104D01*
X179128611Y-64827626D01*
X179027272Y-64979291D01*
X178898291Y-65108272D01*
X178746626Y-65209611D01*
X178578104Y-65279415D01*
X178399203Y-65315000D01*
X178216797Y-65315000D01*
X178037896Y-65279415D01*
X177869374Y-65209611D01*
X177717709Y-65108272D01*
X177588728Y-64979291D01*
X177487389Y-64827626D01*
X177417585Y-64659104D01*
X177382000Y-64480203D01*
X177382000Y-64297797D01*
X177417585Y-64118896D01*
X177487389Y-63950374D01*
X177588728Y-63798709D01*
X177717709Y-63669728D01*
X177869374Y-63568389D01*
X178037896Y-63498585D01*
X178216797Y-63463000D01*
X178399203Y-63463000D01*
X178578104Y-63498585D01*
G37*
G36*
X93488104Y-63498585D02*
G01*
X93656626Y-63568389D01*
X93808291Y-63669728D01*
X93937272Y-63798709D01*
X94038611Y-63950374D01*
X94108415Y-64118896D01*
X94144000Y-64297797D01*
X94144000Y-64480203D01*
X94108415Y-64659104D01*
X94038611Y-64827626D01*
X93937272Y-64979291D01*
X93808291Y-65108272D01*
X93656626Y-65209611D01*
X93488104Y-65279415D01*
X93309203Y-65315000D01*
X93126797Y-65315000D01*
X92947896Y-65279415D01*
X92779374Y-65209611D01*
X92627709Y-65108272D01*
X92498728Y-64979291D01*
X92397389Y-64827626D01*
X92327585Y-64659104D01*
X92292000Y-64480203D01*
X92292000Y-64297797D01*
X92327585Y-64118896D01*
X92397389Y-63950374D01*
X92498728Y-63798709D01*
X92627709Y-63669728D01*
X92779374Y-63568389D01*
X92947896Y-63498585D01*
X93126797Y-63463000D01*
X93309203Y-63463000D01*
X93488104Y-63498585D01*
G37*
G36*
X226838104Y-63498585D02*
G01*
X227006626Y-63568389D01*
X227158291Y-63669728D01*
X227287272Y-63798709D01*
X227388611Y-63950374D01*
X227458415Y-64118896D01*
X227494000Y-64297797D01*
X227494000Y-64480203D01*
X227458415Y-64659104D01*
X227388611Y-64827626D01*
X227287272Y-64979291D01*
X227158291Y-65108272D01*
X227006626Y-65209611D01*
X226838104Y-65279415D01*
X226659203Y-65315000D01*
X226476797Y-65315000D01*
X226297896Y-65279415D01*
X226129374Y-65209611D01*
X225977709Y-65108272D01*
X225848728Y-64979291D01*
X225747389Y-64827626D01*
X225677585Y-64659104D01*
X225642000Y-64480203D01*
X225642000Y-64297797D01*
X225677585Y-64118896D01*
X225747389Y-63950374D01*
X225848728Y-63798709D01*
X225977709Y-63669728D01*
X226129374Y-63568389D01*
X226297896Y-63498585D01*
X226476797Y-63463000D01*
X226659203Y-63463000D01*
X226838104Y-63498585D01*
G37*
G36*
X207788104Y-63498585D02*
G01*
X207956626Y-63568389D01*
X208108291Y-63669728D01*
X208237272Y-63798709D01*
X208338611Y-63950374D01*
X208408415Y-64118896D01*
X208444000Y-64297797D01*
X208444000Y-64480203D01*
X208408415Y-64659104D01*
X208338611Y-64827626D01*
X208237272Y-64979291D01*
X208108291Y-65108272D01*
X207956626Y-65209611D01*
X207788104Y-65279415D01*
X207609203Y-65315000D01*
X207426797Y-65315000D01*
X207247896Y-65279415D01*
X207079374Y-65209611D01*
X206927709Y-65108272D01*
X206798728Y-64979291D01*
X206697389Y-64827626D01*
X206627585Y-64659104D01*
X206592000Y-64480203D01*
X206592000Y-64297797D01*
X206627585Y-64118896D01*
X206697389Y-63950374D01*
X206798728Y-63798709D01*
X206927709Y-63669728D01*
X207079374Y-63568389D01*
X207247896Y-63498585D01*
X207426797Y-63463000D01*
X207609203Y-63463000D01*
X207788104Y-63498585D01*
G37*
G36*
X197628104Y-63498585D02*
G01*
X197796626Y-63568389D01*
X197948291Y-63669728D01*
X198077272Y-63798709D01*
X198178611Y-63950374D01*
X198248415Y-64118896D01*
X198284000Y-64297797D01*
X198284000Y-64480203D01*
X198248415Y-64659104D01*
X198178611Y-64827626D01*
X198077272Y-64979291D01*
X197948291Y-65108272D01*
X197796626Y-65209611D01*
X197628104Y-65279415D01*
X197449203Y-65315000D01*
X197266797Y-65315000D01*
X197087896Y-65279415D01*
X196919374Y-65209611D01*
X196767709Y-65108272D01*
X196638728Y-64979291D01*
X196537389Y-64827626D01*
X196467585Y-64659104D01*
X196432000Y-64480203D01*
X196432000Y-64297797D01*
X196467585Y-64118896D01*
X196537389Y-63950374D01*
X196638728Y-63798709D01*
X196767709Y-63669728D01*
X196919374Y-63568389D01*
X197087896Y-63498585D01*
X197266797Y-63463000D01*
X197449203Y-63463000D01*
X197628104Y-63498585D01*
G37*
G36*
X74438104Y-63498585D02*
G01*
X74606626Y-63568389D01*
X74758291Y-63669728D01*
X74887272Y-63798709D01*
X74988611Y-63950374D01*
X75058415Y-64118896D01*
X75094000Y-64297797D01*
X75094000Y-64480203D01*
X75058415Y-64659104D01*
X74988611Y-64827626D01*
X74887272Y-64979291D01*
X74758291Y-65108272D01*
X74606626Y-65209611D01*
X74438104Y-65279415D01*
X74259203Y-65315000D01*
X74076797Y-65315000D01*
X73897896Y-65279415D01*
X73729374Y-65209611D01*
X73577709Y-65108272D01*
X73448728Y-64979291D01*
X73347389Y-64827626D01*
X73277585Y-64659104D01*
X73242000Y-64480203D01*
X73242000Y-64297797D01*
X73277585Y-64118896D01*
X73347389Y-63950374D01*
X73448728Y-63798709D01*
X73577709Y-63669728D01*
X73729374Y-63568389D01*
X73897896Y-63498585D01*
X74076797Y-63463000D01*
X74259203Y-63463000D01*
X74438104Y-63498585D01*
G37*
G36*
X273828104Y-63498585D02*
G01*
X273996626Y-63568389D01*
X274148291Y-63669728D01*
X274277272Y-63798709D01*
X274378611Y-63950374D01*
X274448415Y-64118896D01*
X274484000Y-64297797D01*
X274484000Y-64480203D01*
X274448415Y-64659104D01*
X274378611Y-64827626D01*
X274277272Y-64979291D01*
X274148291Y-65108272D01*
X273996626Y-65209611D01*
X273828104Y-65279415D01*
X273649203Y-65315000D01*
X273466797Y-65315000D01*
X273287896Y-65279415D01*
X273119374Y-65209611D01*
X272967709Y-65108272D01*
X272838728Y-64979291D01*
X272737389Y-64827626D01*
X272667585Y-64659104D01*
X272632000Y-64480203D01*
X272632000Y-64297797D01*
X272667585Y-64118896D01*
X272737389Y-63950374D01*
X272838728Y-63798709D01*
X272967709Y-63669728D01*
X273119374Y-63568389D01*
X273287896Y-63498585D01*
X273466797Y-63463000D01*
X273649203Y-63463000D01*
X273828104Y-63498585D01*
G37*
G36*
X283988104Y-63498585D02*
G01*
X284156626Y-63568389D01*
X284308291Y-63669728D01*
X284437272Y-63798709D01*
X284538611Y-63950374D01*
X284608415Y-64118896D01*
X284644000Y-64297797D01*
X284644000Y-64480203D01*
X284608415Y-64659104D01*
X284538611Y-64827626D01*
X284437272Y-64979291D01*
X284308291Y-65108272D01*
X284156626Y-65209611D01*
X283988104Y-65279415D01*
X283809203Y-65315000D01*
X283626797Y-65315000D01*
X283447896Y-65279415D01*
X283279374Y-65209611D01*
X283127709Y-65108272D01*
X282998728Y-64979291D01*
X282897389Y-64827626D01*
X282827585Y-64659104D01*
X282792000Y-64480203D01*
X282792000Y-64297797D01*
X282827585Y-64118896D01*
X282897389Y-63950374D01*
X282998728Y-63798709D01*
X283127709Y-63669728D01*
X283279374Y-63568389D01*
X283447896Y-63498585D01*
X283626797Y-63463000D01*
X283809203Y-63463000D01*
X283988104Y-63498585D01*
G37*
G36*
X254778104Y-63498585D02*
G01*
X254946626Y-63568389D01*
X255098291Y-63669728D01*
X255227272Y-63798709D01*
X255328611Y-63950374D01*
X255398415Y-64118896D01*
X255434000Y-64297797D01*
X255434000Y-64480203D01*
X255398415Y-64659104D01*
X255328611Y-64827626D01*
X255227272Y-64979291D01*
X255098291Y-65108272D01*
X254946626Y-65209611D01*
X254778104Y-65279415D01*
X254599203Y-65315000D01*
X254416797Y-65315000D01*
X254237896Y-65279415D01*
X254069374Y-65209611D01*
X253917709Y-65108272D01*
X253788728Y-64979291D01*
X253687389Y-64827626D01*
X253617585Y-64659104D01*
X253582000Y-64480203D01*
X253582000Y-64297797D01*
X253617585Y-64118896D01*
X253687389Y-63950374D01*
X253788728Y-63798709D01*
X253917709Y-63669728D01*
X254069374Y-63568389D01*
X254237896Y-63498585D01*
X254416797Y-63463000D01*
X254599203Y-63463000D01*
X254778104Y-63498585D01*
G37*
G36*
X264938104Y-63498585D02*
G01*
X265106626Y-63568389D01*
X265258291Y-63669728D01*
X265387272Y-63798709D01*
X265488611Y-63950374D01*
X265558415Y-64118896D01*
X265594000Y-64297797D01*
X265594000Y-64480203D01*
X265558415Y-64659104D01*
X265488611Y-64827626D01*
X265387272Y-64979291D01*
X265258291Y-65108272D01*
X265106626Y-65209611D01*
X264938104Y-65279415D01*
X264759203Y-65315000D01*
X264576797Y-65315000D01*
X264397896Y-65279415D01*
X264229374Y-65209611D01*
X264077709Y-65108272D01*
X263948728Y-64979291D01*
X263847389Y-64827626D01*
X263777585Y-64659104D01*
X263742000Y-64480203D01*
X263742000Y-64297797D01*
X263777585Y-64118896D01*
X263847389Y-63950374D01*
X263948728Y-63798709D01*
X264077709Y-63669728D01*
X264229374Y-63568389D01*
X264397896Y-63498585D01*
X264576797Y-63463000D01*
X264759203Y-63463000D01*
X264938104Y-63498585D01*
G37*
G36*
X235728104Y-63498585D02*
G01*
X235896626Y-63568389D01*
X236048291Y-63669728D01*
X236177272Y-63798709D01*
X236278611Y-63950374D01*
X236348415Y-64118896D01*
X236384000Y-64297797D01*
X236384000Y-64480203D01*
X236348415Y-64659104D01*
X236278611Y-64827626D01*
X236177272Y-64979291D01*
X236048291Y-65108272D01*
X235896626Y-65209611D01*
X235728104Y-65279415D01*
X235549203Y-65315000D01*
X235366797Y-65315000D01*
X235187896Y-65279415D01*
X235019374Y-65209611D01*
X234867709Y-65108272D01*
X234738728Y-64979291D01*
X234637389Y-64827626D01*
X234567585Y-64659104D01*
X234532000Y-64480203D01*
X234532000Y-64297797D01*
X234567585Y-64118896D01*
X234637389Y-63950374D01*
X234738728Y-63798709D01*
X234867709Y-63669728D01*
X235019374Y-63568389D01*
X235187896Y-63498585D01*
X235366797Y-63463000D01*
X235549203Y-63463000D01*
X235728104Y-63498585D01*
G37*
G36*
X245888104Y-63498585D02*
G01*
X246056626Y-63568389D01*
X246208291Y-63669728D01*
X246337272Y-63798709D01*
X246438611Y-63950374D01*
X246508415Y-64118896D01*
X246544000Y-64297797D01*
X246544000Y-64480203D01*
X246508415Y-64659104D01*
X246438611Y-64827626D01*
X246337272Y-64979291D01*
X246208291Y-65108272D01*
X246056626Y-65209611D01*
X245888104Y-65279415D01*
X245709203Y-65315000D01*
X245526797Y-65315000D01*
X245347896Y-65279415D01*
X245179374Y-65209611D01*
X245027709Y-65108272D01*
X244898728Y-64979291D01*
X244797389Y-64827626D01*
X244727585Y-64659104D01*
X244692000Y-64480203D01*
X244692000Y-64297797D01*
X244727585Y-64118896D01*
X244797389Y-63950374D01*
X244898728Y-63798709D01*
X245027709Y-63669728D01*
X245179374Y-63568389D01*
X245347896Y-63498585D01*
X245526797Y-63463000D01*
X245709203Y-63463000D01*
X245888104Y-63498585D01*
G37*
G36*
X64278104Y-63498585D02*
G01*
X64446626Y-63568389D01*
X64598291Y-63669728D01*
X64727272Y-63798709D01*
X64828611Y-63950374D01*
X64898415Y-64118896D01*
X64934000Y-64297797D01*
X64934000Y-64480203D01*
X64898415Y-64659104D01*
X64828611Y-64827626D01*
X64727272Y-64979291D01*
X64598291Y-65108272D01*
X64446626Y-65209611D01*
X64278104Y-65279415D01*
X64099203Y-65315000D01*
X63916797Y-65315000D01*
X63737896Y-65279415D01*
X63569374Y-65209611D01*
X63417709Y-65108272D01*
X63288728Y-64979291D01*
X63187389Y-64827626D01*
X63117585Y-64659104D01*
X63082000Y-64480203D01*
X63082000Y-64297797D01*
X63117585Y-64118896D01*
X63187389Y-63950374D01*
X63288728Y-63798709D01*
X63417709Y-63669728D01*
X63569374Y-63568389D01*
X63737896Y-63498585D01*
X63916797Y-63463000D01*
X64099203Y-63463000D01*
X64278104Y-63498585D01*
G37*
G36*
X216678104Y-63498585D02*
G01*
X216846626Y-63568389D01*
X216998291Y-63669728D01*
X217127272Y-63798709D01*
X217228611Y-63950374D01*
X217298415Y-64118896D01*
X217334000Y-64297797D01*
X217334000Y-64480203D01*
X217298415Y-64659104D01*
X217228611Y-64827626D01*
X217127272Y-64979291D01*
X216998291Y-65108272D01*
X216846626Y-65209611D01*
X216678104Y-65279415D01*
X216499203Y-65315000D01*
X216316797Y-65315000D01*
X216137896Y-65279415D01*
X215969374Y-65209611D01*
X215817709Y-65108272D01*
X215688728Y-64979291D01*
X215587389Y-64827626D01*
X215517585Y-64659104D01*
X215482000Y-64480203D01*
X215482000Y-64297797D01*
X215517585Y-64118896D01*
X215587389Y-63950374D01*
X215688728Y-63798709D01*
X215817709Y-63669728D01*
X215969374Y-63568389D01*
X216137896Y-63498585D01*
X216316797Y-63463000D01*
X216499203Y-63463000D01*
X216678104Y-63498585D01*
G37*
G36*
X11391474Y-60009684D02*
G01*
X11609474Y-60099983D01*
X11763623Y-60163833D01*
X12098548Y-60387623D01*
X12383377Y-60672452D01*
X12607167Y-61007377D01*
X12607167Y-61007378D01*
X12761316Y-61379526D01*
X12839900Y-61774594D01*
X12839900Y-62177406D01*
X12761316Y-62572474D01*
X12701221Y-62717555D01*
X12607167Y-62944623D01*
X12383377Y-63279548D01*
X12098548Y-63564377D01*
X11763623Y-63788167D01*
X11609474Y-63852017D01*
X11391474Y-63942316D01*
X10996406Y-64020900D01*
X10593594Y-64020900D01*
X10198526Y-63942316D01*
X9980526Y-63852017D01*
X9826377Y-63788167D01*
X9491452Y-63564377D01*
X9206623Y-63279548D01*
X8982833Y-62944623D01*
X8888779Y-62717555D01*
X8828684Y-62572474D01*
X8750100Y-62177406D01*
X8750100Y-61774594D01*
X8828684Y-61379526D01*
X8982833Y-61007378D01*
X8982833Y-61007377D01*
X9206623Y-60672452D01*
X9491452Y-60387623D01*
X9826377Y-60163833D01*
X9980526Y-60099983D01*
X10198526Y-60009684D01*
X10593594Y-59931100D01*
X10996406Y-59931100D01*
X11391474Y-60009684D01*
G37*
G36*
X56476474Y-60009684D02*
G01*
X56694474Y-60099983D01*
X56848623Y-60163833D01*
X57183548Y-60387623D01*
X57468377Y-60672452D01*
X57692167Y-61007377D01*
X57692167Y-61007378D01*
X57846316Y-61379526D01*
X57924900Y-61774594D01*
X57924900Y-62177406D01*
X57846316Y-62572474D01*
X57786221Y-62717555D01*
X57692167Y-62944623D01*
X57468377Y-63279548D01*
X57183548Y-63564377D01*
X56848623Y-63788167D01*
X56694474Y-63852017D01*
X56476474Y-63942316D01*
X56081406Y-64020900D01*
X55678594Y-64020900D01*
X55283526Y-63942316D01*
X55065526Y-63852017D01*
X54911377Y-63788167D01*
X54576452Y-63564377D01*
X54291623Y-63279548D01*
X54067833Y-62944623D01*
X53973779Y-62717555D01*
X53913684Y-62572474D01*
X53835100Y-62177406D01*
X53835100Y-61774594D01*
X53913684Y-61379526D01*
X54067833Y-61007378D01*
X54067833Y-61007377D01*
X54291623Y-60672452D01*
X54576452Y-60387623D01*
X54911377Y-60163833D01*
X55065526Y-60099983D01*
X55283526Y-60009684D01*
X55678594Y-59931100D01*
X56081406Y-59931100D01*
X56476474Y-60009684D01*
G37*
G36*
X15178672Y-62926449D02*
G01*
X15178674Y-62926450D01*
X15178675Y-62926450D01*
X15247103Y-62954793D01*
X15308686Y-62995942D01*
X15361058Y-63048314D01*
X15402207Y-63109897D01*
X15415162Y-63141175D01*
X15430551Y-63178328D01*
X15445000Y-63250966D01*
X15445000Y-63325034D01*
X15435708Y-63371748D01*
X15430550Y-63397675D01*
X15402207Y-63466103D01*
X15361058Y-63527686D01*
X15308686Y-63580058D01*
X15247103Y-63621207D01*
X15178675Y-63649550D01*
X15178674Y-63649550D01*
X15178672Y-63649551D01*
X15106034Y-63664000D01*
X15031966Y-63664000D01*
X14959328Y-63649551D01*
X14959326Y-63649550D01*
X14959325Y-63649550D01*
X14890897Y-63621207D01*
X14829314Y-63580058D01*
X14776942Y-63527686D01*
X14735793Y-63466103D01*
X14707450Y-63397675D01*
X14702293Y-63371748D01*
X14693000Y-63325034D01*
X14693000Y-63250966D01*
X14707449Y-63178328D01*
X14722838Y-63141175D01*
X14735793Y-63109897D01*
X14776942Y-63048314D01*
X14829314Y-62995942D01*
X14890897Y-62954793D01*
X14959325Y-62926450D01*
X14959326Y-62926450D01*
X14959328Y-62926449D01*
X15031966Y-62912000D01*
X15106034Y-62912000D01*
X15178672Y-62926449D01*
G37*
G36*
X22887409Y-61293525D02*
G01*
X22972425Y-61319314D01*
X23050774Y-61361193D01*
X23119449Y-61417552D01*
X23175807Y-61486225D01*
X23217686Y-61564574D01*
X23243475Y-61649590D01*
X23250000Y-61715842D01*
X23250000Y-62360158D01*
X23243475Y-62426410D01*
X23217686Y-62511426D01*
X23175807Y-62589775D01*
X23119449Y-62658449D01*
X23050775Y-62714807D01*
X22972426Y-62756686D01*
X22887410Y-62782475D01*
X22807707Y-62790324D01*
X22799000Y-62791182D01*
X22798999Y-62791182D01*
X22762846Y-62787622D01*
X22738342Y-62787622D01*
X22714309Y-62792403D01*
X22691670Y-62801780D01*
X22671296Y-62815394D01*
X22653969Y-62832721D01*
X22640355Y-62853096D01*
X22630978Y-62875735D01*
X22626198Y-62899768D01*
X22626198Y-62924272D01*
X22630979Y-62948305D01*
X22640356Y-62970944D01*
X22653970Y-62991318D01*
X22671297Y-63008645D01*
X22686159Y-63020842D01*
X22733146Y-63078096D01*
X22768060Y-63143415D01*
X22789560Y-63214290D01*
X22796819Y-63288000D01*
X22789560Y-63361710D01*
X22768060Y-63432585D01*
X22733146Y-63497904D01*
X22686159Y-63555159D01*
X22628904Y-63602146D01*
X22563585Y-63637060D01*
X22492710Y-63658560D01*
X22437472Y-63664000D01*
X22100528Y-63664000D01*
X22045290Y-63658560D01*
X21974415Y-63637060D01*
X21909096Y-63602146D01*
X21851841Y-63555159D01*
X21804854Y-63497904D01*
X21769940Y-63432585D01*
X21748440Y-63361710D01*
X21741181Y-63288000D01*
X21748440Y-63214290D01*
X21770620Y-63141175D01*
X21775401Y-63117142D01*
X21775401Y-63092638D01*
X21770621Y-63068604D01*
X21761244Y-63045965D01*
X21747630Y-63025591D01*
X21730303Y-63008264D01*
X21709929Y-62994650D01*
X21687290Y-62985273D01*
X21663257Y-62980492D01*
X21638753Y-62980492D01*
X21614719Y-62985272D01*
X21603169Y-62989405D01*
X21578674Y-62999551D01*
X21506034Y-63014000D01*
X21431966Y-63014000D01*
X21359328Y-62999551D01*
X21359326Y-62999550D01*
X21359325Y-62999550D01*
X21290897Y-62971207D01*
X21229314Y-62930058D01*
X21176942Y-62877686D01*
X21135793Y-62816103D01*
X21107450Y-62747675D01*
X21101459Y-62717555D01*
X21093000Y-62675034D01*
X21093000Y-62600966D01*
X21107449Y-62528326D01*
X21125435Y-62484904D01*
X21132548Y-62461455D01*
X21134950Y-62437069D01*
X21132548Y-62412683D01*
X21125435Y-62389234D01*
X21113884Y-62367624D01*
X21098339Y-62348682D01*
X21079397Y-62333136D01*
X21057786Y-62321585D01*
X21034338Y-62314472D01*
X20959327Y-62299551D01*
X20949304Y-62295399D01*
X20890897Y-62271207D01*
X20829314Y-62230058D01*
X20776942Y-62177686D01*
X20772928Y-62171679D01*
X20757388Y-62152744D01*
X20738447Y-62137199D01*
X20716836Y-62125647D01*
X20693387Y-62118534D01*
X20669001Y-62116132D01*
X20644615Y-62118534D01*
X20621166Y-62125647D01*
X20599555Y-62137197D01*
X20580613Y-62152743D01*
X20565072Y-62171679D01*
X20561058Y-62177686D01*
X20508686Y-62230058D01*
X20447103Y-62271207D01*
X20388696Y-62295399D01*
X20378673Y-62299551D01*
X20303662Y-62314472D01*
X20280214Y-62321585D01*
X20258603Y-62333136D01*
X20239661Y-62348682D01*
X20224116Y-62367624D01*
X20212565Y-62389234D01*
X20205452Y-62412683D01*
X20203050Y-62437069D01*
X20205452Y-62461456D01*
X20212565Y-62484904D01*
X20230551Y-62528326D01*
X20245000Y-62600966D01*
X20245000Y-62675034D01*
X20236542Y-62717555D01*
X20230550Y-62747675D01*
X20202207Y-62816103D01*
X20161058Y-62877686D01*
X20108686Y-62930058D01*
X20047103Y-62971207D01*
X19978675Y-62999550D01*
X19978674Y-62999550D01*
X19978672Y-62999551D01*
X19906034Y-63014000D01*
X19831966Y-63014000D01*
X19759328Y-62999551D01*
X19759326Y-62999550D01*
X19759325Y-62999550D01*
X19690897Y-62971207D01*
X19629314Y-62930058D01*
X19576942Y-62877686D01*
X19572928Y-62871679D01*
X19557388Y-62852744D01*
X19538447Y-62837199D01*
X19516836Y-62825647D01*
X19493387Y-62818534D01*
X19469001Y-62816132D01*
X19444615Y-62818534D01*
X19421166Y-62825647D01*
X19399555Y-62837197D01*
X19380613Y-62852743D01*
X19365072Y-62871679D01*
X19361058Y-62877686D01*
X19308686Y-62930058D01*
X19247103Y-62971207D01*
X19178675Y-62999550D01*
X19178674Y-62999550D01*
X19178672Y-62999551D01*
X19106034Y-63014000D01*
X19031966Y-63014000D01*
X18959328Y-62999551D01*
X18959326Y-62999550D01*
X18959325Y-62999550D01*
X18890897Y-62971207D01*
X18829314Y-62930058D01*
X18776942Y-62877686D01*
X18772928Y-62871679D01*
X18757388Y-62852744D01*
X18738447Y-62837199D01*
X18716836Y-62825647D01*
X18693387Y-62818534D01*
X18669001Y-62816132D01*
X18644615Y-62818534D01*
X18621166Y-62825647D01*
X18599555Y-62837197D01*
X18580613Y-62852743D01*
X18565072Y-62871679D01*
X18561058Y-62877686D01*
X18508686Y-62930058D01*
X18447103Y-62971207D01*
X18378675Y-62999550D01*
X18378674Y-62999550D01*
X18378672Y-62999551D01*
X18306034Y-63014000D01*
X18231966Y-63014000D01*
X18159328Y-62999551D01*
X18159326Y-62999550D01*
X18159325Y-62999550D01*
X18090897Y-62971207D01*
X18029314Y-62930058D01*
X17976942Y-62877686D01*
X17972928Y-62871679D01*
X17957388Y-62852744D01*
X17938447Y-62837199D01*
X17916836Y-62825647D01*
X17893387Y-62818534D01*
X17869001Y-62816132D01*
X17844615Y-62818534D01*
X17821166Y-62825647D01*
X17799555Y-62837197D01*
X17780613Y-62852743D01*
X17765072Y-62871679D01*
X17761058Y-62877686D01*
X17708686Y-62930058D01*
X17647103Y-62971207D01*
X17578675Y-62999550D01*
X17578674Y-62999550D01*
X17578672Y-62999551D01*
X17506034Y-63014000D01*
X17431966Y-63014000D01*
X17359328Y-62999551D01*
X17359326Y-62999550D01*
X17359325Y-62999550D01*
X17290897Y-62971207D01*
X17229314Y-62930058D01*
X17176942Y-62877686D01*
X17135793Y-62816103D01*
X17107450Y-62747675D01*
X17101459Y-62717555D01*
X17093000Y-62675034D01*
X17093000Y-62600966D01*
X17107449Y-62528326D01*
X17125435Y-62484904D01*
X17132548Y-62461455D01*
X17134950Y-62437069D01*
X17132548Y-62412683D01*
X17125435Y-62389234D01*
X17113884Y-62367624D01*
X17098339Y-62348682D01*
X17079397Y-62333136D01*
X17057786Y-62321585D01*
X17034338Y-62314472D01*
X16959327Y-62299551D01*
X16949304Y-62295399D01*
X16890897Y-62271207D01*
X16829314Y-62230058D01*
X16776942Y-62177686D01*
X16772928Y-62171679D01*
X16757388Y-62152744D01*
X16738447Y-62137199D01*
X16716836Y-62125647D01*
X16693387Y-62118534D01*
X16669001Y-62116132D01*
X16644615Y-62118534D01*
X16621166Y-62125647D01*
X16599555Y-62137197D01*
X16580613Y-62152743D01*
X16565072Y-62171679D01*
X16561058Y-62177686D01*
X16508686Y-62230058D01*
X16447103Y-62271207D01*
X16388696Y-62295399D01*
X16378673Y-62299551D01*
X16303662Y-62314472D01*
X16280214Y-62321585D01*
X16258603Y-62333136D01*
X16239661Y-62348682D01*
X16224116Y-62367624D01*
X16212565Y-62389234D01*
X16205452Y-62412683D01*
X16203050Y-62437069D01*
X16205452Y-62461456D01*
X16212565Y-62484904D01*
X16230551Y-62528326D01*
X16245000Y-62600966D01*
X16245000Y-62675034D01*
X16236542Y-62717555D01*
X16230550Y-62747675D01*
X16202207Y-62816103D01*
X16161058Y-62877686D01*
X16108686Y-62930058D01*
X16047103Y-62971207D01*
X15978675Y-62999550D01*
X15978674Y-62999550D01*
X15978672Y-62999551D01*
X15906034Y-63014000D01*
X15831966Y-63014000D01*
X15759328Y-62999551D01*
X15759326Y-62999550D01*
X15759325Y-62999550D01*
X15690897Y-62971207D01*
X15629314Y-62930058D01*
X15576942Y-62877686D01*
X15535793Y-62816103D01*
X15507450Y-62747675D01*
X15501459Y-62717555D01*
X15493000Y-62675034D01*
X15493000Y-62600966D01*
X15507449Y-62528328D01*
X15514451Y-62511423D01*
X15535793Y-62459897D01*
X15576942Y-62398314D01*
X15629314Y-62345942D01*
X15690897Y-62304793D01*
X15759325Y-62276450D01*
X15759324Y-62276450D01*
X15759327Y-62276449D01*
X15834338Y-62261528D01*
X15857786Y-62254415D01*
X15879397Y-62242864D01*
X15898339Y-62227318D01*
X15913884Y-62208376D01*
X15925435Y-62186766D01*
X15932548Y-62163317D01*
X15934950Y-62138931D01*
X15932548Y-62114544D01*
X15925435Y-62091096D01*
X15907449Y-62047674D01*
X15893000Y-61975034D01*
X15893000Y-61900966D01*
X15907449Y-61828328D01*
X15907450Y-61828325D01*
X15935793Y-61759897D01*
X15976942Y-61698314D01*
X16029314Y-61645942D01*
X16090897Y-61604793D01*
X16159325Y-61576450D01*
X16159326Y-61576450D01*
X16159328Y-61576449D01*
X16231966Y-61562000D01*
X16306034Y-61562000D01*
X16378672Y-61576449D01*
X16378674Y-61576450D01*
X16378675Y-61576450D01*
X16447103Y-61604793D01*
X16508686Y-61645942D01*
X16561058Y-61698314D01*
X16565072Y-61704321D01*
X16580612Y-61723256D01*
X16599553Y-61738801D01*
X16621164Y-61750353D01*
X16644613Y-61757466D01*
X16668999Y-61759868D01*
X16693385Y-61757466D01*
X16716834Y-61750353D01*
X16738445Y-61738803D01*
X16757387Y-61723257D01*
X16772928Y-61704321D01*
X16776942Y-61698314D01*
X16829314Y-61645942D01*
X16890897Y-61604793D01*
X16959325Y-61576450D01*
X16959326Y-61576450D01*
X16959328Y-61576449D01*
X17031966Y-61562000D01*
X17106034Y-61562000D01*
X17178672Y-61576449D01*
X17178674Y-61576450D01*
X17178675Y-61576450D01*
X17247103Y-61604793D01*
X17308686Y-61645942D01*
X17361058Y-61698314D01*
X17365072Y-61704321D01*
X17380612Y-61723256D01*
X17399553Y-61738801D01*
X17421164Y-61750353D01*
X17444613Y-61757466D01*
X17468999Y-61759868D01*
X17493385Y-61757466D01*
X17516834Y-61750353D01*
X17538445Y-61738803D01*
X17557387Y-61723257D01*
X17572928Y-61704321D01*
X17576942Y-61698314D01*
X17629314Y-61645942D01*
X17690897Y-61604793D01*
X17759325Y-61576450D01*
X17759326Y-61576450D01*
X17759328Y-61576449D01*
X17831966Y-61562000D01*
X17906034Y-61562000D01*
X17978672Y-61576449D01*
X17978674Y-61576450D01*
X17978675Y-61576450D01*
X18047103Y-61604793D01*
X18108686Y-61645942D01*
X18161058Y-61698314D01*
X18202207Y-61759897D01*
X18230550Y-61828325D01*
X18230551Y-61828328D01*
X18245000Y-61900966D01*
X18245000Y-61975034D01*
X18230551Y-62047674D01*
X18212565Y-62091096D01*
X18205452Y-62114545D01*
X18203050Y-62138931D01*
X18205452Y-62163317D01*
X18212565Y-62186766D01*
X18224116Y-62208376D01*
X18239661Y-62227318D01*
X18258603Y-62242864D01*
X18280214Y-62254415D01*
X18303662Y-62261528D01*
X18378673Y-62276449D01*
X18378676Y-62276450D01*
X18378675Y-62276450D01*
X18447103Y-62304793D01*
X18508686Y-62345942D01*
X18561058Y-62398314D01*
X18565072Y-62404321D01*
X18580612Y-62423256D01*
X18599553Y-62438801D01*
X18621164Y-62450353D01*
X18644613Y-62457466D01*
X18668999Y-62459868D01*
X18693385Y-62457466D01*
X18716834Y-62450353D01*
X18738445Y-62438803D01*
X18757387Y-62423257D01*
X18772928Y-62404321D01*
X18776942Y-62398314D01*
X18829314Y-62345942D01*
X18890897Y-62304793D01*
X18959325Y-62276450D01*
X18959324Y-62276450D01*
X18959327Y-62276449D01*
X19034338Y-62261528D01*
X19057786Y-62254415D01*
X19079397Y-62242864D01*
X19098339Y-62227318D01*
X19113884Y-62208376D01*
X19125435Y-62186766D01*
X19132548Y-62163317D01*
X19134950Y-62138931D01*
X19132548Y-62114544D01*
X19125435Y-62091096D01*
X19107449Y-62047674D01*
X19093000Y-61975034D01*
X19093000Y-61900966D01*
X19107449Y-61828328D01*
X19107450Y-61828325D01*
X19135793Y-61759897D01*
X19176942Y-61698314D01*
X19229314Y-61645942D01*
X19290897Y-61604793D01*
X19359325Y-61576450D01*
X19359326Y-61576450D01*
X19359328Y-61576449D01*
X19431966Y-61562000D01*
X19506034Y-61562000D01*
X19578672Y-61576449D01*
X19578674Y-61576450D01*
X19578675Y-61576450D01*
X19647103Y-61604793D01*
X19708686Y-61645942D01*
X19761058Y-61698314D01*
X19765072Y-61704321D01*
X19780612Y-61723256D01*
X19799553Y-61738801D01*
X19821164Y-61750353D01*
X19844613Y-61757466D01*
X19868999Y-61759868D01*
X19893385Y-61757466D01*
X19916834Y-61750353D01*
X19938445Y-61738803D01*
X19957387Y-61723257D01*
X19972928Y-61704321D01*
X19976942Y-61698314D01*
X20029314Y-61645942D01*
X20090897Y-61604793D01*
X20159325Y-61576450D01*
X20159326Y-61576450D01*
X20159328Y-61576449D01*
X20231966Y-61562000D01*
X20306034Y-61562000D01*
X20378672Y-61576449D01*
X20378674Y-61576450D01*
X20378675Y-61576450D01*
X20447103Y-61604793D01*
X20508686Y-61645942D01*
X20561058Y-61698314D01*
X20565072Y-61704321D01*
X20580612Y-61723256D01*
X20599553Y-61738801D01*
X20621164Y-61750353D01*
X20644613Y-61757466D01*
X20668999Y-61759868D01*
X20693385Y-61757466D01*
X20716834Y-61750353D01*
X20738445Y-61738803D01*
X20757387Y-61723257D01*
X20772928Y-61704321D01*
X20776942Y-61698314D01*
X20829314Y-61645942D01*
X20890897Y-61604793D01*
X20959325Y-61576450D01*
X20959326Y-61576450D01*
X20959328Y-61576449D01*
X21031966Y-61562000D01*
X21106034Y-61562000D01*
X21178672Y-61576449D01*
X21178674Y-61576450D01*
X21178675Y-61576450D01*
X21247103Y-61604793D01*
X21308686Y-61645942D01*
X21361058Y-61698314D01*
X21402207Y-61759897D01*
X21430550Y-61828325D01*
X21430551Y-61828328D01*
X21445000Y-61900966D01*
X21445000Y-61975034D01*
X21430551Y-62047674D01*
X21412565Y-62091096D01*
X21405452Y-62114545D01*
X21403050Y-62138931D01*
X21405452Y-62163317D01*
X21412565Y-62186766D01*
X21424116Y-62208376D01*
X21439661Y-62227318D01*
X21458603Y-62242864D01*
X21480214Y-62254415D01*
X21503662Y-62261528D01*
X21578673Y-62276449D01*
X21578676Y-62276450D01*
X21578675Y-62276450D01*
X21647103Y-62304793D01*
X21708686Y-62345942D01*
X21761058Y-62398314D01*
X21802207Y-62459897D01*
X21823549Y-62511423D01*
X21830551Y-62528328D01*
X21845000Y-62600966D01*
X21845000Y-62675034D01*
X21830551Y-62747674D01*
X21820405Y-62772169D01*
X21813292Y-62795618D01*
X21810890Y-62820004D01*
X21813292Y-62844390D01*
X21820405Y-62867839D01*
X21831956Y-62889450D01*
X21847501Y-62908392D01*
X21866443Y-62923937D01*
X21888054Y-62935488D01*
X21911503Y-62942601D01*
X21935889Y-62945003D01*
X21960275Y-62942601D01*
X21972175Y-62939620D01*
X22045290Y-62917440D01*
X22100528Y-62912000D01*
X22438157Y-62912000D01*
X22462543Y-62909598D01*
X22485992Y-62902485D01*
X22507603Y-62890934D01*
X22526545Y-62875389D01*
X22542090Y-62856447D01*
X22553641Y-62834836D01*
X22560754Y-62811387D01*
X22563156Y-62787001D01*
X22560754Y-62762615D01*
X22553641Y-62739166D01*
X22542090Y-62717555D01*
X22526545Y-62698613D01*
X22517455Y-62690375D01*
X22478553Y-62658449D01*
X22422195Y-62589776D01*
X22380313Y-62511423D01*
X22354525Y-62426410D01*
X22348000Y-62360158D01*
X22348000Y-61715843D01*
X22354525Y-61649591D01*
X22380314Y-61564575D01*
X22422193Y-61486226D01*
X22478552Y-61417551D01*
X22547225Y-61361193D01*
X22625574Y-61319314D01*
X22710590Y-61293525D01*
X22799000Y-61284818D01*
X22887409Y-61293525D01*
G37*
G36*
X40947267Y-60431263D02*
G01*
X41099411Y-60461526D01*
X41218137Y-60510704D01*
X41386041Y-60580252D01*
X41386042Y-60580253D01*
X41644004Y-60752617D01*
X41863383Y-60971996D01*
X41887024Y-61007378D01*
X42035748Y-61229959D01*
X42062078Y-61293526D01*
X42141898Y-61486227D01*
X42154474Y-61516590D01*
X42215000Y-61820875D01*
X42215000Y-62131125D01*
X42206932Y-62171686D01*
X42154474Y-62435411D01*
X42115987Y-62528326D01*
X42035748Y-62722041D01*
X41986585Y-62795618D01*
X41863383Y-62980004D01*
X41644004Y-63199383D01*
X41524028Y-63279548D01*
X41386041Y-63371748D01*
X41268637Y-63420378D01*
X41099411Y-63490474D01*
X40795125Y-63551000D01*
X40484875Y-63551000D01*
X40180589Y-63490474D01*
X40011363Y-63420378D01*
X39893959Y-63371748D01*
X39755972Y-63279548D01*
X39635996Y-63199383D01*
X39416617Y-62980004D01*
X39293415Y-62795618D01*
X39244252Y-62722041D01*
X39164013Y-62528326D01*
X39125526Y-62435411D01*
X39073068Y-62171686D01*
X39065000Y-62131125D01*
X39065000Y-61820875D01*
X39125526Y-61516590D01*
X39138103Y-61486227D01*
X39217922Y-61293526D01*
X39244252Y-61229959D01*
X39392976Y-61007378D01*
X39416617Y-60971996D01*
X39635996Y-60752617D01*
X39893958Y-60580253D01*
X39893959Y-60580252D01*
X40061863Y-60510704D01*
X40180589Y-60461526D01*
X40332733Y-60431263D01*
X40484875Y-60401000D01*
X40795125Y-60401000D01*
X40947267Y-60431263D01*
G37*
G36*
X26342267Y-60431263D02*
G01*
X26494411Y-60461526D01*
X26613137Y-60510704D01*
X26781041Y-60580252D01*
X26781042Y-60580253D01*
X27039004Y-60752617D01*
X27258383Y-60971996D01*
X27282024Y-61007378D01*
X27430748Y-61229959D01*
X27457078Y-61293526D01*
X27536898Y-61486227D01*
X27549474Y-61516590D01*
X27610000Y-61820875D01*
X27610000Y-62131125D01*
X27601932Y-62171686D01*
X27549474Y-62435411D01*
X27510987Y-62528326D01*
X27430748Y-62722041D01*
X27381585Y-62795618D01*
X27258383Y-62980004D01*
X27039004Y-63199383D01*
X26919028Y-63279548D01*
X26781041Y-63371748D01*
X26663637Y-63420378D01*
X26494411Y-63490474D01*
X26190125Y-63551000D01*
X25879875Y-63551000D01*
X25575589Y-63490474D01*
X25406363Y-63420378D01*
X25288959Y-63371748D01*
X25150972Y-63279548D01*
X25030996Y-63199383D01*
X24811617Y-62980004D01*
X24688415Y-62795618D01*
X24639252Y-62722041D01*
X24559013Y-62528326D01*
X24520526Y-62435411D01*
X24468068Y-62171686D01*
X24460000Y-62131125D01*
X24460000Y-61820875D01*
X24520526Y-61516590D01*
X24533103Y-61486227D01*
X24612922Y-61293526D01*
X24639252Y-61229959D01*
X24787976Y-61007378D01*
X24811617Y-60971996D01*
X25030996Y-60752617D01*
X25288958Y-60580253D01*
X25288959Y-60580252D01*
X25456863Y-60510704D01*
X25575589Y-60461526D01*
X25727733Y-60431263D01*
X25879875Y-60401000D01*
X26190125Y-60401000D01*
X26342267Y-60431263D01*
G37*
G36*
X14627409Y-61293525D02*
G01*
X14712425Y-61319314D01*
X14790774Y-61361193D01*
X14859449Y-61417552D01*
X14915807Y-61486225D01*
X14957686Y-61564574D01*
X14983475Y-61649590D01*
X14990000Y-61715842D01*
X14990000Y-62360158D01*
X14983475Y-62426410D01*
X14957686Y-62511426D01*
X14915807Y-62589775D01*
X14859449Y-62658449D01*
X14790775Y-62714807D01*
X14712426Y-62756686D01*
X14627410Y-62782475D01*
X14539000Y-62791182D01*
X14450591Y-62782475D01*
X14365575Y-62756686D01*
X14287226Y-62714807D01*
X14218552Y-62658449D01*
X14162195Y-62589776D01*
X14120313Y-62511423D01*
X14094525Y-62426410D01*
X14088000Y-62360158D01*
X14088000Y-61715843D01*
X14094525Y-61649591D01*
X14120314Y-61564575D01*
X14162193Y-61486226D01*
X14218552Y-61417551D01*
X14287225Y-61361193D01*
X14365574Y-61319314D01*
X14450590Y-61293525D01*
X14539000Y-61284818D01*
X14627409Y-61293525D01*
G37*
G36*
X23247409Y-55343525D02*
G01*
X23332425Y-55369314D01*
X23410774Y-55411193D01*
X23479449Y-55467552D01*
X23535807Y-55536225D01*
X23577686Y-55614574D01*
X23603475Y-55699590D01*
X23610000Y-55765842D01*
X23610000Y-56410158D01*
X23603475Y-56476410D01*
X23577686Y-56561426D01*
X23535807Y-56639775D01*
X23479449Y-56708449D01*
X23410775Y-56764807D01*
X23332426Y-56806686D01*
X23247410Y-56832475D01*
X23159000Y-56841182D01*
X23070591Y-56832475D01*
X22985575Y-56806686D01*
X22907226Y-56764807D01*
X22838552Y-56708449D01*
X22782195Y-56639776D01*
X22740313Y-56561423D01*
X22714525Y-56476410D01*
X22708000Y-56410158D01*
X22708000Y-55765843D01*
X22714525Y-55699591D01*
X22740314Y-55614575D01*
X22782193Y-55536226D01*
X22838552Y-55467551D01*
X22907225Y-55411193D01*
X22985574Y-55369314D01*
X23070590Y-55343525D01*
X23159000Y-55334818D01*
X23247409Y-55343525D01*
G37*
G36*
X14267409Y-55343525D02*
G01*
X14352425Y-55369314D01*
X14430774Y-55411193D01*
X14499449Y-55467552D01*
X14555807Y-55536225D01*
X14597686Y-55614574D01*
X14623475Y-55699590D01*
X14630000Y-55765842D01*
X14630000Y-56410158D01*
X14623475Y-56476410D01*
X14597686Y-56561426D01*
X14555807Y-56639775D01*
X14499449Y-56708449D01*
X14430775Y-56764807D01*
X14352426Y-56806686D01*
X14267410Y-56832475D01*
X14179000Y-56841182D01*
X14090591Y-56832475D01*
X14005575Y-56806686D01*
X13927226Y-56764807D01*
X13858552Y-56708449D01*
X13802195Y-56639776D01*
X13760313Y-56561423D01*
X13734525Y-56476410D01*
X13728000Y-56410158D01*
X13728000Y-55765843D01*
X13734525Y-55699591D01*
X13760314Y-55614575D01*
X13802193Y-55536226D01*
X13858552Y-55467551D01*
X13927225Y-55411193D01*
X14005574Y-55369314D01*
X14090590Y-55343525D01*
X14179000Y-55334818D01*
X14267409Y-55343525D01*
G37*
M02*
