G04 #@! TF.GenerationSoftware,KiCad,Pcbnew,(5.1.5)-3*
G04 #@! TF.CreationDate,2020-01-24T23:39:41-08:00*
G04 #@! TF.ProjectId,EUISOpcb,45554953-4f70-4636-922e-6b696361645f,rev?*
G04 #@! TF.SameCoordinates,Original*
G04 #@! TF.FileFunction,Legend,Top*
G04 #@! TF.FilePolarity,Positive*
%FSLAX46Y46*%
G04 Gerber Fmt 4.6, Leading zero omitted, Abs format (unit mm)*
G04 Created by KiCad (PCBNEW (5.1.5)-3) date 2020-01-24 23:39:41*
%MOMM*%
%LPD*%
G04 APERTURE LIST*
%ADD10C,0.150000*%
G04 APERTURE END LIST*
D10*
X24845014Y-56062571D02*
X25178348Y-56062571D01*
X25255729Y-56586380D02*
X24779538Y-56586380D01*
X24904538Y-55586380D01*
X25380729Y-55586380D01*
X25809300Y-55586380D02*
X25708110Y-56395904D01*
X25743824Y-56491142D01*
X25785491Y-56538761D01*
X25874776Y-56586380D01*
X26065252Y-56586380D01*
X26166443Y-56538761D01*
X26220014Y-56491142D01*
X26279538Y-56395904D01*
X26380729Y-55586380D01*
X27493824Y-56586380D02*
X27618824Y-55586380D01*
X27928348Y-56538761D02*
X28065252Y-56586380D01*
X28303348Y-56586380D01*
X28404538Y-56538761D01*
X28458110Y-56491142D01*
X28517633Y-56395904D01*
X28529538Y-56300666D01*
X28493824Y-56205428D01*
X28452157Y-56157809D01*
X28362872Y-56110190D01*
X28178348Y-56062571D01*
X28089062Y-56014952D01*
X28047395Y-55967333D01*
X28011681Y-55872095D01*
X28023586Y-55776857D01*
X28083110Y-55681619D01*
X28136681Y-55634000D01*
X28237872Y-55586380D01*
X28475967Y-55586380D01*
X28612872Y-55634000D01*
X29237872Y-55586380D02*
X29428348Y-55586380D01*
X29517633Y-55634000D01*
X29600967Y-55729238D01*
X29624776Y-55919714D01*
X29583110Y-56253047D01*
X29511681Y-56443523D01*
X29404538Y-56538761D01*
X29303348Y-56586380D01*
X29112872Y-56586380D01*
X29023586Y-56538761D01*
X28940252Y-56443523D01*
X28916443Y-56253047D01*
X28958110Y-55919714D01*
X29029538Y-55729238D01*
X29136681Y-55634000D01*
X29237872Y-55586380D01*
X30112872Y-56586380D02*
X30023586Y-56538761D01*
X29987872Y-56443523D01*
X30095014Y-55586380D01*
X30922395Y-56586380D02*
X30987872Y-56062571D01*
X30952157Y-55967333D01*
X30862872Y-55919714D01*
X30672395Y-55919714D01*
X30571205Y-55967333D01*
X30928348Y-56538761D02*
X30827157Y-56586380D01*
X30589062Y-56586380D01*
X30499776Y-56538761D01*
X30464062Y-56443523D01*
X30475967Y-56348285D01*
X30535491Y-56253047D01*
X30636681Y-56205428D01*
X30874776Y-56205428D01*
X30975967Y-56157809D01*
X31339062Y-55919714D02*
X31720014Y-55919714D01*
X31523586Y-55586380D02*
X31416443Y-56443523D01*
X31452157Y-56538761D01*
X31541443Y-56586380D01*
X31636681Y-56586380D01*
X31970014Y-56586380D02*
X32053348Y-55919714D01*
X32095014Y-55586380D02*
X32041443Y-55634000D01*
X32083110Y-55681619D01*
X32136681Y-55634000D01*
X32095014Y-55586380D01*
X32083110Y-55681619D01*
X32589062Y-56586380D02*
X32499776Y-56538761D01*
X32458110Y-56491142D01*
X32422395Y-56395904D01*
X32458110Y-56110190D01*
X32517633Y-56014952D01*
X32571205Y-55967333D01*
X32672395Y-55919714D01*
X32815252Y-55919714D01*
X32904538Y-55967333D01*
X32946205Y-56014952D01*
X32981919Y-56110190D01*
X32946205Y-56395904D01*
X32886681Y-56491142D01*
X32833110Y-56538761D01*
X32731919Y-56586380D01*
X32589062Y-56586380D01*
X33434300Y-55919714D02*
X33350967Y-56586380D01*
X33422395Y-56014952D02*
X33475967Y-55967333D01*
X33577157Y-55919714D01*
X33720014Y-55919714D01*
X33809300Y-55967333D01*
X33845014Y-56062571D01*
X33779538Y-56586380D01*
X35065252Y-56205428D02*
X35827157Y-56205428D01*
X37005729Y-56300666D02*
X37481919Y-56300666D01*
X36874776Y-56586380D02*
X37333110Y-55586380D01*
X37541443Y-56586380D01*
X38577157Y-55919714D02*
X38958110Y-55919714D01*
X38761681Y-55586380D02*
X38654538Y-56443523D01*
X38690252Y-56538761D01*
X38779538Y-56586380D01*
X38874776Y-56586380D01*
X39595014Y-56538761D02*
X39493824Y-56586380D01*
X39303348Y-56586380D01*
X39214062Y-56538761D01*
X39178348Y-56443523D01*
X39225967Y-56062571D01*
X39285491Y-55967333D01*
X39386681Y-55919714D01*
X39577157Y-55919714D01*
X39666443Y-55967333D01*
X39702157Y-56062571D01*
X39690252Y-56157809D01*
X39202157Y-56253047D01*
X40065252Y-56586380D02*
X40148586Y-55919714D01*
X40124776Y-56110190D02*
X40184300Y-56014952D01*
X40237872Y-55967333D01*
X40339062Y-55919714D01*
X40434300Y-55919714D01*
X40684300Y-56586380D02*
X40767633Y-55919714D01*
X40743824Y-56110190D02*
X40803348Y-56014952D01*
X40856919Y-55967333D01*
X40958110Y-55919714D01*
X41053348Y-55919714D01*
X41303348Y-56586380D02*
X41386681Y-55919714D01*
X41428348Y-55586380D02*
X41374776Y-55634000D01*
X41416443Y-55681619D01*
X41470014Y-55634000D01*
X41428348Y-55586380D01*
X41416443Y-55681619D01*
X41779538Y-56586380D02*
X41904538Y-55586380D01*
X41856919Y-55967333D02*
X41958110Y-55919714D01*
X42148586Y-55919714D01*
X42237872Y-55967333D01*
X42279538Y-56014952D01*
X42315252Y-56110190D01*
X42279538Y-56395904D01*
X42220014Y-56491142D01*
X42166443Y-56538761D01*
X42065252Y-56586380D01*
X41874776Y-56586380D01*
X41785491Y-56538761D01*
X42827157Y-56586380D02*
X42737872Y-56538761D01*
X42702157Y-56443523D01*
X42809300Y-55586380D01*
X43595014Y-56538761D02*
X43493824Y-56586380D01*
X43303348Y-56586380D01*
X43214062Y-56538761D01*
X43178348Y-56443523D01*
X43225967Y-56062571D01*
X43285491Y-55967333D01*
X43386681Y-55919714D01*
X43577157Y-55919714D01*
X43666443Y-55967333D01*
X43702157Y-56062571D01*
X43690252Y-56157809D01*
X43202157Y-56253047D01*
X44767633Y-55919714D02*
X45148586Y-55919714D01*
X44827157Y-56586380D02*
X44934300Y-55729238D01*
X44993824Y-55634000D01*
X45095014Y-55586380D01*
X45190252Y-55586380D01*
X45910491Y-55919714D02*
X45827157Y-56586380D01*
X45481919Y-55919714D02*
X45416443Y-56443523D01*
X45452157Y-56538761D01*
X45541443Y-56586380D01*
X45684300Y-56586380D01*
X45785491Y-56538761D01*
X45839062Y-56491142D01*
X46737872Y-56538761D02*
X46636681Y-56586380D01*
X46446205Y-56586380D01*
X46356919Y-56538761D01*
X46315252Y-56491142D01*
X46279538Y-56395904D01*
X46315252Y-56110190D01*
X46374776Y-56014952D01*
X46428348Y-55967333D01*
X46529538Y-55919714D01*
X46720014Y-55919714D01*
X46809300Y-55967333D01*
X47160491Y-56586380D02*
X47285491Y-55586380D01*
X47303348Y-56205428D02*
X47541443Y-56586380D01*
X47624776Y-55919714D02*
X47196205Y-56300666D01*
X47970014Y-56586380D02*
X48053348Y-55919714D01*
X48095014Y-55586380D02*
X48041443Y-55634000D01*
X48083110Y-55681619D01*
X48136681Y-55634000D01*
X48095014Y-55586380D01*
X48083110Y-55681619D01*
X48529538Y-55919714D02*
X48446205Y-56586380D01*
X48517633Y-56014952D02*
X48571205Y-55967333D01*
X48672395Y-55919714D01*
X48815252Y-55919714D01*
X48904538Y-55967333D01*
X48940252Y-56062571D01*
X48874776Y-56586380D01*
X49862872Y-55919714D02*
X49761681Y-56729238D01*
X49702157Y-56824476D01*
X49648586Y-56872095D01*
X49547395Y-56919714D01*
X49404538Y-56919714D01*
X49315252Y-56872095D01*
X49785491Y-56538761D02*
X49684300Y-56586380D01*
X49493824Y-56586380D01*
X49404538Y-56538761D01*
X49362872Y-56491142D01*
X49327157Y-56395904D01*
X49362872Y-56110190D01*
X49422395Y-56014952D01*
X49475967Y-55967333D01*
X49577157Y-55919714D01*
X49767633Y-55919714D01*
X49856919Y-55967333D01*
X51452157Y-56538761D02*
X51350967Y-56586380D01*
X51160491Y-56586380D01*
X51071205Y-56538761D01*
X51029538Y-56491142D01*
X50993824Y-56395904D01*
X51029538Y-56110190D01*
X51089062Y-56014952D01*
X51142633Y-55967333D01*
X51243824Y-55919714D01*
X51434300Y-55919714D01*
X51523586Y-55967333D01*
X51874776Y-56586380D02*
X51958110Y-55919714D01*
X51934300Y-56110190D02*
X51993824Y-56014952D01*
X52047395Y-55967333D01*
X52148586Y-55919714D01*
X52243824Y-55919714D01*
X52880729Y-56538761D02*
X52779538Y-56586380D01*
X52589062Y-56586380D01*
X52499776Y-56538761D01*
X52464062Y-56443523D01*
X52511681Y-56062571D01*
X52571205Y-55967333D01*
X52672395Y-55919714D01*
X52862872Y-55919714D01*
X52952157Y-55967333D01*
X52987872Y-56062571D01*
X52975967Y-56157809D01*
X52487872Y-56253047D01*
X53779538Y-56586380D02*
X53845014Y-56062571D01*
X53809300Y-55967333D01*
X53720014Y-55919714D01*
X53529538Y-55919714D01*
X53428348Y-55967333D01*
X53785491Y-56538761D02*
X53684300Y-56586380D01*
X53446205Y-56586380D01*
X53356919Y-56538761D01*
X53321205Y-56443523D01*
X53333110Y-56348285D01*
X53392633Y-56253047D01*
X53493824Y-56205428D01*
X53731919Y-56205428D01*
X53833110Y-56157809D01*
X54196205Y-55919714D02*
X54577157Y-55919714D01*
X54380729Y-55586380D02*
X54273586Y-56443523D01*
X54309300Y-56538761D01*
X54398586Y-56586380D01*
X54493824Y-56586380D01*
X54827157Y-56586380D02*
X54910491Y-55919714D01*
X54952157Y-55586380D02*
X54898586Y-55634000D01*
X54940252Y-55681619D01*
X54993824Y-55634000D01*
X54952157Y-55586380D01*
X54940252Y-55681619D01*
X55446205Y-56586380D02*
X55356919Y-56538761D01*
X55315252Y-56491142D01*
X55279538Y-56395904D01*
X55315252Y-56110190D01*
X55374776Y-56014952D01*
X55428348Y-55967333D01*
X55529538Y-55919714D01*
X55672395Y-55919714D01*
X55761681Y-55967333D01*
X55803348Y-56014952D01*
X55839062Y-56110190D01*
X55803348Y-56395904D01*
X55743824Y-56491142D01*
X55690252Y-56538761D01*
X55589062Y-56586380D01*
X55446205Y-56586380D01*
X56291443Y-55919714D02*
X56208110Y-56586380D01*
X56279538Y-56014952D02*
X56333110Y-55967333D01*
X56434300Y-55919714D01*
X56577157Y-55919714D01*
X56666443Y-55967333D01*
X56702157Y-56062571D01*
X56636681Y-56586380D01*
X57874776Y-56586380D02*
X57999776Y-55586380D01*
X57952157Y-55967333D02*
X58053348Y-55919714D01*
X58243824Y-55919714D01*
X58333110Y-55967333D01*
X58374776Y-56014952D01*
X58410491Y-56110190D01*
X58374776Y-56395904D01*
X58315252Y-56491142D01*
X58261681Y-56538761D01*
X58160491Y-56586380D01*
X57970014Y-56586380D01*
X57880729Y-56538761D01*
X58767633Y-55919714D02*
X58922395Y-56586380D01*
X59243824Y-55919714D02*
X58922395Y-56586380D01*
X58797395Y-56824476D01*
X58743824Y-56872095D01*
X58642633Y-56919714D01*
X60291443Y-56300666D02*
X60767633Y-56300666D01*
X60160491Y-56586380D02*
X60618824Y-55586380D01*
X60827157Y-56586380D01*
X61672395Y-55919714D02*
X61589062Y-56586380D01*
X61243824Y-55919714D02*
X61178348Y-56443523D01*
X61214062Y-56538761D01*
X61303348Y-56586380D01*
X61446205Y-56586380D01*
X61547395Y-56538761D01*
X61600967Y-56491142D01*
X62023586Y-56538761D02*
X62112872Y-56586380D01*
X62303348Y-56586380D01*
X62404538Y-56538761D01*
X62464062Y-56443523D01*
X62470014Y-56395904D01*
X62434300Y-56300666D01*
X62345014Y-56253047D01*
X62202157Y-56253047D01*
X62112872Y-56205428D01*
X62077157Y-56110190D01*
X62083110Y-56062571D01*
X62142633Y-55967333D01*
X62243824Y-55919714D01*
X62386681Y-55919714D01*
X62475967Y-55967333D01*
X62815252Y-55919714D02*
X63196205Y-55919714D01*
X62999776Y-55586380D02*
X62892633Y-56443523D01*
X62928348Y-56538761D01*
X63017633Y-56586380D01*
X63112872Y-56586380D01*
X63446205Y-56586380D02*
X63529538Y-55919714D01*
X63571205Y-55586380D02*
X63517633Y-55634000D01*
X63559300Y-55681619D01*
X63612872Y-55634000D01*
X63571205Y-55586380D01*
X63559300Y-55681619D01*
X64005729Y-55919714D02*
X63922395Y-56586380D01*
X63993824Y-56014952D02*
X64047395Y-55967333D01*
X64148586Y-55919714D01*
X64291443Y-55919714D01*
X64380729Y-55967333D01*
X64416443Y-56062571D01*
X64350967Y-56586380D01*
X65577157Y-56300666D02*
X66053348Y-56300666D01*
X65446205Y-56586380D02*
X65904538Y-55586380D01*
X66112872Y-56586380D01*
X66458110Y-56491142D02*
X66499776Y-56538761D01*
X66446205Y-56586380D01*
X66404538Y-56538761D01*
X66458110Y-56491142D01*
X66446205Y-56586380D01*
X67761681Y-55586380D02*
X67737872Y-55776857D01*
X68142633Y-55586380D02*
X68118824Y-55776857D01*
X68428348Y-55586380D02*
X68999776Y-55586380D01*
X68589062Y-56586380D02*
X68714062Y-55586380D01*
X69720014Y-55919714D02*
X69636681Y-56586380D01*
X69291443Y-55919714D02*
X69225967Y-56443523D01*
X69261681Y-56538761D01*
X69350967Y-56586380D01*
X69493824Y-56586380D01*
X69595014Y-56538761D01*
X69648586Y-56491142D01*
X70547395Y-56538761D02*
X70446205Y-56586380D01*
X70255729Y-56586380D01*
X70166443Y-56538761D01*
X70124776Y-56491142D01*
X70089062Y-56395904D01*
X70124776Y-56110190D01*
X70184300Y-56014952D01*
X70237872Y-55967333D01*
X70339062Y-55919714D01*
X70529538Y-55919714D01*
X70618824Y-55967333D01*
X70970014Y-56586380D02*
X71095014Y-55586380D01*
X71112872Y-56205428D02*
X71350967Y-56586380D01*
X71434300Y-55919714D02*
X71005729Y-56300666D01*
X71761681Y-55586380D02*
X72333110Y-55586380D01*
X71922395Y-56586380D02*
X72047395Y-55586380D01*
X73053348Y-55919714D02*
X72970014Y-56586380D01*
X72624776Y-55919714D02*
X72559300Y-56443523D01*
X72595014Y-56538761D01*
X72684300Y-56586380D01*
X72827157Y-56586380D01*
X72928348Y-56538761D01*
X72981919Y-56491142D01*
X73880729Y-56538761D02*
X73779538Y-56586380D01*
X73589062Y-56586380D01*
X73499776Y-56538761D01*
X73458110Y-56491142D01*
X73422395Y-56395904D01*
X73458110Y-56110190D01*
X73517633Y-56014952D01*
X73571205Y-55967333D01*
X73672395Y-55919714D01*
X73862872Y-55919714D01*
X73952157Y-55967333D01*
X74303348Y-56586380D02*
X74428348Y-55586380D01*
X74446205Y-56205428D02*
X74684300Y-56586380D01*
X74767633Y-55919714D02*
X74339062Y-56300666D01*
X75511681Y-56062571D02*
X75178348Y-56062571D01*
X75112872Y-56586380D02*
X75237872Y-55586380D01*
X75714062Y-55586380D01*
X76112872Y-56586380D02*
X76023586Y-56538761D01*
X75987872Y-56443523D01*
X76095014Y-55586380D01*
X76636681Y-56586380D02*
X76547395Y-56538761D01*
X76505729Y-56491142D01*
X76470014Y-56395904D01*
X76505729Y-56110190D01*
X76565252Y-56014952D01*
X76618824Y-55967333D01*
X76720014Y-55919714D01*
X76862872Y-55919714D01*
X76952157Y-55967333D01*
X76993824Y-56014952D01*
X77029538Y-56110190D01*
X76993824Y-56395904D01*
X76934300Y-56491142D01*
X76880729Y-56538761D01*
X76779538Y-56586380D01*
X76636681Y-56586380D01*
X77541443Y-56586380D02*
X77452157Y-56538761D01*
X77410491Y-56491142D01*
X77374776Y-56395904D01*
X77410491Y-56110190D01*
X77470014Y-56014952D01*
X77523586Y-55967333D01*
X77624776Y-55919714D01*
X77767633Y-55919714D01*
X77856919Y-55967333D01*
X77898586Y-56014952D01*
X77934300Y-56110190D01*
X77898586Y-56395904D01*
X77839062Y-56491142D01*
X77785491Y-56538761D01*
X77684300Y-56586380D01*
X77541443Y-56586380D01*
X78243824Y-55919714D02*
X78624776Y-55919714D01*
X78303348Y-56586380D02*
X78410491Y-55729238D01*
X78470014Y-55634000D01*
X78571205Y-55586380D01*
X78666443Y-55586380D01*
X78952157Y-55586380D02*
X78928348Y-55776857D01*
X79333110Y-55586380D02*
X79309300Y-55776857D01*
M02*
