0
SECTION
2
HEADER
9
$INSUNITS
70
4
9
$ACADVER
1
AC1014
9
$HANDSEED
5
FFFF
0
ENDSEC
0
SECTION
2
TABLES
0
TABLE
2
VPORT
5
8
100
AcDbSymbolTable
0
ENDTAB
0
TABLE
2
LTYPE
5
5
100
AcDbSymbolTable
0
LTYPE
5
14
100
AcDbSymbolTableRecord
100
AcDbLinetypeTableRecord
2
BYBLOCK
70
0
0
LTYPE
5
15
100
AcDbSymbolTableRecord
100
AcDbLinetypeTableRecord
2
BYLAYER
70
0
0
ENDTAB
0
TABLE
2
LAYER
5
2
100
AcDbSymbolTable
70
2
0
LAYER
5
50
100
AcDbSymbolTableRecord
100
AcDbLayerTableRecord
2
0
70
0
6
CONTINUOUS
0
ENDTAB
0
TABLE
2
STYLE
5
3
100
AcDbSymbolTable
70
1
0
STYLE
5
11
100
AcDbSymbolTableRecord
100
AcDbTextStyleTableRecord
2
STANDARD
70
0
0
ENDTAB
0
TABLE
2
VIEW
5
6
100
AcDbSymbolTable
70
0
0
ENDTAB
0
TABLE
2
UCS
5
7
100
AcDbSymbolTable
70
0
0
ENDTAB
0
TABLE
2
APPID
5
9
100
AcDbSymbolTable
70
2
0
APPID
5
12
100
AcDbSymbolTableRecord
100
AcDbRegAppTableRecord
2
ACAD
70
0
0
ENDTAB
0
TABLE
2
DIMSTYLE
5
A
100
AcDbSymbolTable
70
1
0
ENDTAB
0
TABLE
2
BLOCK_RECORD
5
1
100
AcDbSymbolTable
70
1
0
BLOCK_RECORD
5
1F
100
AcDbSymbolTableRecord
100
AcDbBlockTableRecord
2
*MODEL_SPACE
0
BLOCK_RECORD
5
1B
100
AcDbSymbolTableRecord
100
AcDbBlockTableRecord
2
*PAPER_SPACE
0
ENDTAB
0
ENDSEC
0
SECTION
2
BLOCKS
0
BLOCK
5
20
100
AcDbEntity
100
AcDbBlockBegin
2
*MODEL_SPACE
0
ENDBLK
5
21
100
AcDbEntity
100
AcDbBlockEnd
0
BLOCK
5
1C
100
AcDbEntity
100
AcDbBlockBegin
2
*PAPER_SPACE
0
ENDBLK
5
1D
100
AcDbEntity
100
AcDbBlockEnd
0
ENDSEC
0
SECTION
2
ENTITIES
0
LWPOLYLINE
5
100
100
AcDbEntity
8
0
100
AcDbPolyline
90
32
70
1
43
0.0
10
-9.7500000000000089
20
12.175000000000001
42
-0.41421356237309587
10
-12.175000000000011
20
9.75
10
-42.004465710183396
20
9.75
42
0.40378914930299109
10
-46.251754386143496
20
5.6517857142856975
42
-0.96490128135401321
10
-51.748245613856518
20
5.6517857142857109
42
0.40378914930299059
10
-55.995534289816611
20
9.75
10
-142.9980657101834
20
9.75
42
0.40378914930298665
10
-147.24535438614345
20
5.6517857142857135
42
-0.96490128135401709
10
-152.74184561385653
20
5.6517857142857197
42
0.40378914930298615
10
-156.9891342898166
20
9.7499999999999822
10
-243.99196571018339
20
9.75
42
0.40378914930299348
10
-248.2392543861435
20
5.6517857142857162
42
-0.9649012813540162
10
-253.73574561385655
20
5.6517857142857073
42
0.40378914930299431
10
-257.98303428981666
20
9.75
10
-287.81250000000006
20
9.7500000000000036
42
-0.41421356237309531
10
-290.23750000000001
20
12.175000000000002
10
-290.23750000000007
20
83.025000000000006
42
-0.41421356237309503
10
-287.81250000000006
20
85.450000000000017
10
-257.98303428981666
20
85.450000000000017
42
0.40378914930299104
10
-253.73574561385658
20
89.548214285714295
42
-0.96490128135402153
10
-248.23925438614344
20
89.54821428571428
42
0.40378914930298981
10
-243.99196571018339
20
85.450000000000017
10
-156.9891342898166
20
85.450000000000017
42
0.40378914930298987
10
-152.74184561385653
20
89.54821428571428
42
-0.96490128135401854
10
-147.24535438614345
20
89.54821428571428
42
0.40378914930298987
10
-142.9980657101834
20
85.450000000000003
10
-55.995534289816611
20
85.450000000000017
42
0.40378914930298748
10
-51.74824561385654
20
89.54821428571428
42
-0.96490128135401254
10
-46.251754386143489
20
89.54821428571428
42
0.40378914930299048
10
-42.004465710183389
20
85.450000000000017
10
-12.175000000000011
20
85.450000000000003
42
-0.41421356237309503
10
-9.7500000000000124
20
83.025000000000006
0
LWPOLYLINE
5
101
100
AcDbEntity
8
0
100
AcDbPolyline
90
4
70
1
43
0.0
10
-192.71250000002277
20
45.075000000000003
10
-192.71250000002277
20
31.074999999999999
10
-178.71250000002277
20
31.074999999999999
10
-178.71250000002277
20
45.075000000000003
0
LWPOLYLINE
5
102
100
AcDbEntity
8
0
100
AcDbPolyline
90
4
70
1
43
0.0
10
-154.61250000000004
20
45.075000000000003
10
-154.61250000000004
20
31.074999999999999
10
-140.61250000000004
20
31.074999999999999
10
-140.61250000000004
20
45.075000000000003
0
LWPOLYLINE
5
103
100
AcDbEntity
8
0
100
AcDbPolyline
90
4
70
1
43
0.0
10
-116.51250000000003
20
45.075000000000003
10
-116.51250000000003
20
31.074999999999999
10
-102.51250000000002
20
31.074999999999999
10
-102.51250000000002
20
45.075000000000003
0
LWPOLYLINE
5
104
100
AcDbEntity
8
0
100
AcDbPolyline
90
4
70
1
43
0.0
10
-97.462500000000006
20
50.125
10
-83.462499999999991
20
50.125
10
-83.462499999999991
20
64.125
10
-97.462500000000006
20
64.125
0
LWPOLYLINE
5
105
100
AcDbEntity
8
0
100
AcDbPolyline
90
4
70
1
43
0.0
10
-173.66250000000332
20
50.125
10
-159.66250000000332
20
50.125
10
-159.66250000000332
20
64.125
10
-173.66250000000332
20
64.125
0
LWPOLYLINE
5
106
100
AcDbEntity
8
0
100
AcDbPolyline
90
4
70
1
43
0.0
10
-211.76250000000005
20
12.024999999999999
10
-197.76250000000005
20
12.024999999999999
10
-197.76250000000005
20
26.024999999999999
10
-211.76250000000005
20
26.024999999999999
0
LWPOLYLINE
5
107
100
AcDbEntity
8
0
100
AcDbPolyline
90
4
70
1
43
0.0
10
-249.86250000003383
20
50.125
10
-235.86250000003386
20
50.125
10
-235.86250000003386
20
64.125
10
-249.86250000003383
20
64.125
0
LWPOLYLINE
5
108
100
AcDbEntity
8
0
100
AcDbPolyline
90
4
70
1
43
0.0
10
-287.96250000000009
20
12.024999999999997
10
-273.96250000000009
20
12.024999999999997
10
-273.96250000000009
20
26.024999999999995
10
-287.96250000000009
20
26.024999999999995
0
LWPOLYLINE
5
109
100
AcDbEntity
8
0
100
AcDbPolyline
90
4
70
1
43
0.0
10
-287.96250000000009
20
50.125
10
-273.96250000000009
20
50.125
10
-273.96250000000009
20
64.125
10
-287.96250000000009
20
64.125
0
LWPOLYLINE
5
110
100
AcDbEntity
8
0
100
AcDbPolyline
90
4
70
1
43
0.0
10
-78.412500000000009
20
64.125
10
-78.412500000000009
20
50.125
10
-64.412500000000009
20
50.125
10
-64.412500000000009
20
64.125
0
LWPOLYLINE
5
111
100
AcDbEntity
8
0
100
AcDbPolyline
90
4
70
1
43
0.0
10
-28.406000000000013
20
82.650000000000006
10
-28.406000000000013
20
50.650000000000006
10
-14.406000000000008
20
50.650000000000006
10
-14.406000000000008
20
82.650000000000006
0
LWPOLYLINE
5
112
100
AcDbEntity
8
0
100
AcDbPolyline
90
4
70
1
43
0.0
10
-56.98125000000001
20
44.549999999999997
10
-56.98125000000001
20
12.549999999999999
10
-42.981250000000003
20
12.549999999999999
10
-42.981250000000003
20
44.549999999999997
0
LWPOLYLINE
5
113
100
AcDbEntity
8
0
100
AcDbPolyline
90
4
70
1
43
0.0
10
-78.412500000000009
20
45.075000000000003
10
-78.412500000000009
20
31.074999999999999
10
-64.412500000000009
20
31.074999999999999
10
-64.412500000000009
20
45.075000000000003
0
LWPOLYLINE
5
114
100
AcDbEntity
8
0
100
AcDbPolyline
90
4
70
1
43
0.0
10
-154.61250000000004
20
83.175000000000011
10
-154.61250000000004
20
69.175000000000011
10
-140.61250000000004
20
69.175000000000011
10
-140.61250000000004
20
83.175000000000011
0
LWPOLYLINE
5
115
100
AcDbEntity
8
0
100
AcDbPolyline
90
4
70
1
43
0.0
10
-287.96250000002181
20
83.174999999999983
10
-287.96250000002181
20
69.174999999999997
10
-271.58124999999995
20
69.174999999999997
10
-271.58124999999995
20
83.174999999999983
0
LWPOLYLINE
5
116
100
AcDbEntity
8
0
100
AcDbPolyline
90
4
70
1
43
0.0
10
-268.91250000000008
20
31.074999999999999
10
-254.91250000000008
20
31.074999999999999
10
-254.91250000000008
20
45.075000000000003
10
-268.91250000000008
20
45.075000000000003
0
LWPOLYLINE
5
117
100
AcDbEntity
8
0
100
AcDbPolyline
90
4
70
1
43
0.0
10
-249.86250000005302
20
31.074999999999999
10
-235.86250000005305
20
31.074999999999999
10
-235.86250000005305
20
45.075000000000003
10
-249.86250000005302
20
45.075000000000003
0
LWPOLYLINE
5
118
100
AcDbEntity
8
0
100
AcDbPolyline
90
4
70
1
43
0.0
10
-216.81250000000006
20
12.024999999999999
10
-216.81250000000006
20
26.024999999999999
10
-230.81250000000006
20
26.024999999999999
10
-230.81250000000006
20
12.024999999999999
0
LWPOLYLINE
5
119
100
AcDbEntity
8
0
100
AcDbPolyline
90
4
70
1
43
0.0
10
-192.71250000002021
20
50.125
10
-178.71250000002021
20
50.125
10
-178.71250000002021
20
64.125
10
-192.71250000002021
20
64.125
0
LWPOLYLINE
5
120
100
AcDbEntity
8
0
100
AcDbPolyline
90
4
70
1
43
0.0
10
-116.51250000000002
20
50.125
10
-102.5125
20
50.125
10
-102.5125
20
64.125
10
-116.51250000000002
20
64.125
0
LWPOLYLINE
5
121
100
AcDbEntity
8
0
100
AcDbPolyline
90
4
70
1
43
0.0
10
-116.51250000000002
20
12.024999999999999
10
-102.5125
20
12.024999999999999
10
-102.5125
20
26.024999999999999
10
-116.51250000000002
20
26.024999999999999
0
LWPOLYLINE
5
122
100
AcDbEntity
8
0
100
AcDbPolyline
90
4
70
1
43
0.0
10
-154.61250000000001
20
12.024999999999999
10
-140.61249999999998
20
12.024999999999999
10
-140.61249999999998
20
26.024999999999999
10
-154.61250000000001
20
26.024999999999999
0
LWPOLYLINE
5
123
100
AcDbEntity
8
0
100
AcDbPolyline
90
4
70
1
43
0.0
10
-192.71250000000003
20
12.024999999999999
10
-178.71250000000003
20
12.024999999999999
10
-178.71250000000003
20
26.024999999999999
10
-192.71250000000003
20
26.024999999999999
0
LWPOLYLINE
5
124
100
AcDbEntity
8
0
100
AcDbPolyline
90
4
70
1
43
0.0
10
-173.66250000000193
20
45.075000000000003
10
-173.66250000000193
20
31.074999999999999
10
-159.66250000000196
20
31.074999999999999
10
-159.66250000000196
20
45.075000000000003
0
LWPOLYLINE
5
125
100
AcDbEntity
8
0
100
AcDbPolyline
90
4
70
1
43
0.0
10
-135.56250000000003
20
45.075000000000003
10
-135.56250000000003
20
31.074999999999999
10
-121.56250000000003
20
31.074999999999999
10
-121.56250000000003
20
45.075000000000003
0
LWPOLYLINE
5
126
100
AcDbEntity
8
0
100
AcDbPolyline
90
4
70
1
43
0.0
10
-97.46250000000002
20
45.075000000000003
10
-97.46250000000002
20
31.074999999999999
10
-83.462500000000006
20
31.074999999999999
10
-83.462500000000006
20
45.075000000000003
0
LWPOLYLINE
5
127
100
AcDbEntity
8
0
100
AcDbPolyline
90
4
70
1
43
0.0
10
-154.61250000000007
20
50.125
10
-140.61250000000007
20
50.125
10
-140.61250000000007
20
64.125
10
-154.61250000000007
20
64.125
0
LWPOLYLINE
5
128
100
AcDbEntity
8
0
100
AcDbPolyline
90
4
70
1
43
0.0
10
-211.762500000042
20
45.075000000000003
10
-211.762500000042
20
31.074999999999999
10
-197.762500000042
20
31.074999999999999
10
-197.762500000042
20
45.075000000000003
0
LWPOLYLINE
5
129
100
AcDbEntity
8
0
100
AcDbPolyline
90
4
70
1
43
0.0
10
-230.8125000000316
20
50.125
10
-216.8125000000316
20
50.125
10
-216.8125000000316
20
64.125
10
-230.8125000000316
20
64.125
0
LWPOLYLINE
5
130
100
AcDbEntity
8
0
100
AcDbPolyline
90
4
70
1
43
0.0
10
-268.91250000000008
20
12.024999999999997
10
-254.91250000000008
20
12.024999999999997
10
-254.91250000000008
20
26.024999999999995
10
-268.91250000000008
20
26.024999999999995
0
LWPOLYLINE
5
131
100
AcDbEntity
8
0
100
AcDbPolyline
90
4
70
1
43
0.0
10
-268.91250000003561
20
50.125
10
-254.91250000003564
20
50.125
10
-254.91250000003564
20
64.125
10
-268.91250000003561
20
64.125
0
LWPOLYLINE
5
132
100
AcDbEntity
8
0
100
AcDbPolyline
90
4
70
1
43
0.0
10
-211.76250000002022
20
83.175000000000011
10
-211.76250000002022
20
69.175000000000011
10
-197.76250000002022
20
69.175000000000011
10
-197.76250000002022
20
83.175000000000011
0
LWPOLYLINE
5
133
100
AcDbEntity
8
0
100
AcDbPolyline
90
4
70
1
43
0.0
10
-80.793750000000003
20
69.175000000000011
10
-64.412500000000009
20
69.175000000000011
10
-64.412500000000009
20
83.175000000000011
10
-80.793750000000003
20
83.175000000000011
0
LWPOLYLINE
5
134
100
AcDbEntity
8
0
100
AcDbPolyline
90
4
70
1
43
0.0
10
-56.981000000000009
20
82.650000000000006
10
-56.981000000000009
20
47.650000000000006
10
-42.981000000000009
20
47.650000000000006
10
-42.981000000000009
20
82.650000000000006
0
LWPOLYLINE
5
135
100
AcDbEntity
8
0
100
AcDbPolyline
90
4
70
1
43
0.0
10
-28.406249999999964
20
12.549999999999999
10
-14.406249999999964
20
12.549999999999999
10
-14.406249999999964
20
44.549999999999997
10
-28.406249999999964
20
44.549999999999997
0
LWPOLYLINE
5
136
100
AcDbEntity
8
0
100
AcDbPolyline
90
4
70
1
43
0.0
10
-78.412500000000009
20
26.024999999999999
10
-78.412500000000009
20
12.024999999999997
10
-64.412500000000009
20
12.024999999999997
10
-64.412500000000009
20
26.024999999999999
0
LWPOLYLINE
5
137
100
AcDbEntity
8
0
100
AcDbPolyline
90
4
70
1
43
0.0
10
-135.56250000000003
20
69.175000000000011
10
-83.462500000000006
20
69.175000000000011
10
-83.462500000000006
20
83.175000000000011
10
-135.56250000000003
20
83.175000000000011
0
LWPOLYLINE
5
138
100
AcDbEntity
8
0
100
AcDbPolyline
90
4
70
1
43
0.0
10
-268.91250000002179
20
83.175001028180134
10
-268.91250000002179
20
69.17500102818012
10
-216.8125000000212
20
69.175000000000011
10
-216.8125000000212
20
83.175000000000011
0
LWPOLYLINE
5
139
100
AcDbEntity
8
0
100
AcDbPolyline
90
4
70
1
43
0.0
10
-287.96250000000009
20
31.074999999999999
10
-273.96250000000009
20
31.074999999999999
10
-273.96250000000009
20
45.075000000000003
10
-287.96250000000009
20
45.075000000000003
0
LWPOLYLINE
5
140
100
AcDbEntity
8
0
100
AcDbPolyline
90
4
70
1
43
0.0
10
-235.86250000005305
20
12.024999999999997
10
-235.86250000005305
20
26.024999999999999
10
-249.86250000005302
20
26.024999999999999
10
-249.86250000005302
20
12.024999999999997
0
LWPOLYLINE
5
141
100
AcDbEntity
8
0
100
AcDbPolyline
90
4
70
1
43
0.0
10
-230.81250000004772
20
45.075000000000003
10
-230.81250000004772
20
31.074999999999999
10
-216.81250000004775
20
31.074999999999999
10
-216.81250000004775
20
45.075000000000003
0
LWPOLYLINE
5
142
100
AcDbEntity
8
0
100
AcDbPolyline
90
4
70
1
43
0.0
10
-211.76250000002676
20
50.125
10
-197.76250000002676
20
50.125
10
-197.76250000002676
20
64.125
10
-211.76250000002676
20
64.125
0
LWPOLYLINE
5
143
100
AcDbEntity
8
0
100
AcDbPolyline
90
4
70
1
43
0.0
10
-135.56250000000003
20
50.125
10
-121.56250000000001
20
50.125
10
-121.56250000000001
20
64.125
10
-135.56250000000003
20
64.125
0
LWPOLYLINE
5
144
100
AcDbEntity
8
0
100
AcDbPolyline
90
4
70
1
43
0.0
10
-97.462500000000006
20
12.024999999999999
10
-83.462499999999991
20
12.024999999999999
10
-83.462499999999991
20
26.024999999999999
10
-97.462500000000006
20
26.024999999999999
0
LWPOLYLINE
5
145
100
AcDbEntity
8
0
100
AcDbPolyline
90
4
70
1
43
0.0
10
-135.56250000000003
20
12.024999999999999
10
-121.56250000000001
20
12.024999999999999
10
-121.56250000000001
20
26.024999999999999
10
-135.56250000000003
20
26.024999999999999
0
LWPOLYLINE
5
146
100
AcDbEntity
8
0
100
AcDbPolyline
90
4
70
1
43
0.0
10
-173.66250000000002
20
12.024999999999999
10
-159.66250000000002
20
12.024999999999999
10
-159.66250000000002
20
26.024999999999999
10
-173.66250000000002
20
26.024999999999999
0
LWPOLYLINE
5
147
100
AcDbEntity
8
0
100
AcDbPolyline
90
4
70
1
43
0.0
10
-159.66250000000332
20
83.174999999999983
10
-192.71250000000327
20
83.174999999999983
10
-192.71250000000327
20
69.175000000000011
10
-159.66250000000332
20
69.175000000000011
0
ENDSEC
0
SECTION
2
OBJECTS
0
DICTIONARY
5
C
100
AcDbDictionary
3
ACAD_GROUP
350
D
3
ACAD_MLINESTYLE
350
17
0
DICTIONARY
5
D
100
AcDbDictionary
0
DICTIONARY
5
1A
330
C
100
AcDbDictionary
0
DICTIONARY
5
17
100
AcDbDictionary
0
ENDSEC
0
EOF
