G04 #@! TF.GenerationSoftware,KiCad,Pcbnew,(5.1.5)-3*
G04 #@! TF.CreationDate,2020-09-20T23:58:44-07:00*
G04 #@! TF.ProjectId,EUISOpcb,45554953-4f70-4636-922e-6b696361645f,rev?*
G04 #@! TF.SameCoordinates,Original*
G04 #@! TF.FileFunction,Paste,Bot*
G04 #@! TF.FilePolarity,Positive*
%FSLAX46Y46*%
G04 Gerber Fmt 4.6, Leading zero omitted, Abs format (unit mm)*
G04 Created by KiCad (PCBNEW (5.1.5)-3) date 2020-09-20 23:58:44*
%MOMM*%
%LPD*%
G04 APERTURE LIST*
%ADD10R,0.600000X1.450000*%
%ADD11R,0.300000X1.450000*%
%ADD12C,0.100000*%
%ADD13R,1.400000X1.200000*%
%ADD14R,0.550000X1.500000*%
%ADD15R,1.500000X0.550000*%
%ADD16R,1.800000X1.100000*%
%ADD17R,1.200000X0.900000*%
%ADD18R,0.900000X1.200000*%
G04 APERTURE END LIST*
D10*
X22046000Y-61576000D03*
X21246000Y-61576000D03*
X16346000Y-61576000D03*
X15546000Y-61576000D03*
X15546000Y-61576000D03*
X16346000Y-61576000D03*
X21246000Y-61576000D03*
X22046000Y-61576000D03*
D11*
X17046000Y-61576000D03*
X17546000Y-61576000D03*
X18046000Y-61576000D03*
X19046000Y-61576000D03*
X19546000Y-61576000D03*
X20046000Y-61576000D03*
X20546000Y-61576000D03*
X18546000Y-61576000D03*
D12*
G36*
X25668504Y-66048204D02*
G01*
X25692773Y-66051804D01*
X25716571Y-66057765D01*
X25739671Y-66066030D01*
X25761849Y-66076520D01*
X25782893Y-66089133D01*
X25802598Y-66103747D01*
X25820777Y-66120223D01*
X25837253Y-66138402D01*
X25851867Y-66158107D01*
X25864480Y-66179151D01*
X25874970Y-66201329D01*
X25883235Y-66224429D01*
X25889196Y-66248227D01*
X25892796Y-66272496D01*
X25894000Y-66297000D01*
X25894000Y-67047000D01*
X25892796Y-67071504D01*
X25889196Y-67095773D01*
X25883235Y-67119571D01*
X25874970Y-67142671D01*
X25864480Y-67164849D01*
X25851867Y-67185893D01*
X25837253Y-67205598D01*
X25820777Y-67223777D01*
X25802598Y-67240253D01*
X25782893Y-67254867D01*
X25761849Y-67267480D01*
X25739671Y-67277970D01*
X25716571Y-67286235D01*
X25692773Y-67292196D01*
X25668504Y-67295796D01*
X25644000Y-67297000D01*
X24394000Y-67297000D01*
X24369496Y-67295796D01*
X24345227Y-67292196D01*
X24321429Y-67286235D01*
X24298329Y-67277970D01*
X24276151Y-67267480D01*
X24255107Y-67254867D01*
X24235402Y-67240253D01*
X24217223Y-67223777D01*
X24200747Y-67205598D01*
X24186133Y-67185893D01*
X24173520Y-67164849D01*
X24163030Y-67142671D01*
X24154765Y-67119571D01*
X24148804Y-67095773D01*
X24145204Y-67071504D01*
X24144000Y-67047000D01*
X24144000Y-66297000D01*
X24145204Y-66272496D01*
X24148804Y-66248227D01*
X24154765Y-66224429D01*
X24163030Y-66201329D01*
X24173520Y-66179151D01*
X24186133Y-66158107D01*
X24200747Y-66138402D01*
X24217223Y-66120223D01*
X24235402Y-66103747D01*
X24255107Y-66089133D01*
X24276151Y-66076520D01*
X24298329Y-66066030D01*
X24321429Y-66057765D01*
X24345227Y-66051804D01*
X24369496Y-66048204D01*
X24394000Y-66047000D01*
X25644000Y-66047000D01*
X25668504Y-66048204D01*
G37*
G36*
X25668504Y-68848204D02*
G01*
X25692773Y-68851804D01*
X25716571Y-68857765D01*
X25739671Y-68866030D01*
X25761849Y-68876520D01*
X25782893Y-68889133D01*
X25802598Y-68903747D01*
X25820777Y-68920223D01*
X25837253Y-68938402D01*
X25851867Y-68958107D01*
X25864480Y-68979151D01*
X25874970Y-69001329D01*
X25883235Y-69024429D01*
X25889196Y-69048227D01*
X25892796Y-69072496D01*
X25894000Y-69097000D01*
X25894000Y-69847000D01*
X25892796Y-69871504D01*
X25889196Y-69895773D01*
X25883235Y-69919571D01*
X25874970Y-69942671D01*
X25864480Y-69964849D01*
X25851867Y-69985893D01*
X25837253Y-70005598D01*
X25820777Y-70023777D01*
X25802598Y-70040253D01*
X25782893Y-70054867D01*
X25761849Y-70067480D01*
X25739671Y-70077970D01*
X25716571Y-70086235D01*
X25692773Y-70092196D01*
X25668504Y-70095796D01*
X25644000Y-70097000D01*
X24394000Y-70097000D01*
X24369496Y-70095796D01*
X24345227Y-70092196D01*
X24321429Y-70086235D01*
X24298329Y-70077970D01*
X24276151Y-70067480D01*
X24255107Y-70054867D01*
X24235402Y-70040253D01*
X24217223Y-70023777D01*
X24200747Y-70005598D01*
X24186133Y-69985893D01*
X24173520Y-69964849D01*
X24163030Y-69942671D01*
X24154765Y-69919571D01*
X24148804Y-69895773D01*
X24145204Y-69871504D01*
X24144000Y-69847000D01*
X24144000Y-69097000D01*
X24145204Y-69072496D01*
X24148804Y-69048227D01*
X24154765Y-69024429D01*
X24163030Y-69001329D01*
X24173520Y-68979151D01*
X24186133Y-68958107D01*
X24200747Y-68938402D01*
X24217223Y-68920223D01*
X24235402Y-68903747D01*
X24255107Y-68889133D01*
X24276151Y-68876520D01*
X24298329Y-68866030D01*
X24321429Y-68857765D01*
X24345227Y-68851804D01*
X24369496Y-68848204D01*
X24394000Y-68847000D01*
X25644000Y-68847000D01*
X25668504Y-68848204D01*
G37*
D13*
X19853000Y-84152000D03*
X17653000Y-84152000D03*
X17653000Y-85852000D03*
X19853000Y-85852000D03*
D14*
X29274000Y-98664000D03*
X30074000Y-98664000D03*
X30874000Y-98664000D03*
X31674000Y-98664000D03*
X32474000Y-98664000D03*
X33274000Y-98664000D03*
X34074000Y-98664000D03*
X34874000Y-98664000D03*
X35674000Y-98664000D03*
X36474000Y-98664000D03*
X37274000Y-98664000D03*
D15*
X38974000Y-96964000D03*
X38974000Y-96164000D03*
X38974000Y-95364000D03*
X38974000Y-94564000D03*
X38974000Y-93764000D03*
X38974000Y-92964000D03*
X38974000Y-92164000D03*
X38974000Y-91364000D03*
X38974000Y-90564000D03*
X38974000Y-89764000D03*
X38974000Y-88964000D03*
D14*
X37274000Y-87264000D03*
X36474000Y-87264000D03*
X35674000Y-87264000D03*
X34874000Y-87264000D03*
X34074000Y-87264000D03*
X33274000Y-87264000D03*
X32474000Y-87264000D03*
X31674000Y-87264000D03*
X30874000Y-87264000D03*
X30074000Y-87264000D03*
X29274000Y-87264000D03*
D15*
X27574000Y-88964000D03*
X27574000Y-89764000D03*
X27574000Y-90564000D03*
X27574000Y-91364000D03*
X27574000Y-92164000D03*
X27574000Y-92964000D03*
X27574000Y-93764000D03*
X27574000Y-94564000D03*
X27574000Y-95364000D03*
X27574000Y-96164000D03*
X27574000Y-96964000D03*
D16*
X30174000Y-77144000D03*
X36374000Y-80844000D03*
X30174000Y-80844000D03*
X36374000Y-77144000D03*
D12*
G36*
X44295142Y-96463174D02*
G01*
X44318803Y-96466684D01*
X44342007Y-96472496D01*
X44364529Y-96480554D01*
X44386153Y-96490782D01*
X44406670Y-96503079D01*
X44425883Y-96517329D01*
X44443607Y-96533393D01*
X44459671Y-96551117D01*
X44473921Y-96570330D01*
X44486218Y-96590847D01*
X44496446Y-96612471D01*
X44504504Y-96634993D01*
X44510316Y-96658197D01*
X44513826Y-96681858D01*
X44515000Y-96705750D01*
X44515000Y-97193250D01*
X44513826Y-97217142D01*
X44510316Y-97240803D01*
X44504504Y-97264007D01*
X44496446Y-97286529D01*
X44486218Y-97308153D01*
X44473921Y-97328670D01*
X44459671Y-97347883D01*
X44443607Y-97365607D01*
X44425883Y-97381671D01*
X44406670Y-97395921D01*
X44386153Y-97408218D01*
X44364529Y-97418446D01*
X44342007Y-97426504D01*
X44318803Y-97432316D01*
X44295142Y-97435826D01*
X44271250Y-97437000D01*
X43358750Y-97437000D01*
X43334858Y-97435826D01*
X43311197Y-97432316D01*
X43287993Y-97426504D01*
X43265471Y-97418446D01*
X43243847Y-97408218D01*
X43223330Y-97395921D01*
X43204117Y-97381671D01*
X43186393Y-97365607D01*
X43170329Y-97347883D01*
X43156079Y-97328670D01*
X43143782Y-97308153D01*
X43133554Y-97286529D01*
X43125496Y-97264007D01*
X43119684Y-97240803D01*
X43116174Y-97217142D01*
X43115000Y-97193250D01*
X43115000Y-96705750D01*
X43116174Y-96681858D01*
X43119684Y-96658197D01*
X43125496Y-96634993D01*
X43133554Y-96612471D01*
X43143782Y-96590847D01*
X43156079Y-96570330D01*
X43170329Y-96551117D01*
X43186393Y-96533393D01*
X43204117Y-96517329D01*
X43223330Y-96503079D01*
X43243847Y-96490782D01*
X43265471Y-96480554D01*
X43287993Y-96472496D01*
X43311197Y-96466684D01*
X43334858Y-96463174D01*
X43358750Y-96462000D01*
X44271250Y-96462000D01*
X44295142Y-96463174D01*
G37*
G36*
X44295142Y-94588174D02*
G01*
X44318803Y-94591684D01*
X44342007Y-94597496D01*
X44364529Y-94605554D01*
X44386153Y-94615782D01*
X44406670Y-94628079D01*
X44425883Y-94642329D01*
X44443607Y-94658393D01*
X44459671Y-94676117D01*
X44473921Y-94695330D01*
X44486218Y-94715847D01*
X44496446Y-94737471D01*
X44504504Y-94759993D01*
X44510316Y-94783197D01*
X44513826Y-94806858D01*
X44515000Y-94830750D01*
X44515000Y-95318250D01*
X44513826Y-95342142D01*
X44510316Y-95365803D01*
X44504504Y-95389007D01*
X44496446Y-95411529D01*
X44486218Y-95433153D01*
X44473921Y-95453670D01*
X44459671Y-95472883D01*
X44443607Y-95490607D01*
X44425883Y-95506671D01*
X44406670Y-95520921D01*
X44386153Y-95533218D01*
X44364529Y-95543446D01*
X44342007Y-95551504D01*
X44318803Y-95557316D01*
X44295142Y-95560826D01*
X44271250Y-95562000D01*
X43358750Y-95562000D01*
X43334858Y-95560826D01*
X43311197Y-95557316D01*
X43287993Y-95551504D01*
X43265471Y-95543446D01*
X43243847Y-95533218D01*
X43223330Y-95520921D01*
X43204117Y-95506671D01*
X43186393Y-95490607D01*
X43170329Y-95472883D01*
X43156079Y-95453670D01*
X43143782Y-95433153D01*
X43133554Y-95411529D01*
X43125496Y-95389007D01*
X43119684Y-95365803D01*
X43116174Y-95342142D01*
X43115000Y-95318250D01*
X43115000Y-94830750D01*
X43116174Y-94806858D01*
X43119684Y-94783197D01*
X43125496Y-94759993D01*
X43133554Y-94737471D01*
X43143782Y-94715847D01*
X43156079Y-94695330D01*
X43170329Y-94676117D01*
X43186393Y-94658393D01*
X43204117Y-94642329D01*
X43223330Y-94628079D01*
X43243847Y-94615782D01*
X43265471Y-94605554D01*
X43287993Y-94597496D01*
X43311197Y-94591684D01*
X43334858Y-94588174D01*
X43358750Y-94587000D01*
X44271250Y-94587000D01*
X44295142Y-94588174D01*
G37*
G36*
X16602142Y-98234174D02*
G01*
X16625803Y-98237684D01*
X16649007Y-98243496D01*
X16671529Y-98251554D01*
X16693153Y-98261782D01*
X16713670Y-98274079D01*
X16732883Y-98288329D01*
X16750607Y-98304393D01*
X16766671Y-98322117D01*
X16780921Y-98341330D01*
X16793218Y-98361847D01*
X16803446Y-98383471D01*
X16811504Y-98405993D01*
X16817316Y-98429197D01*
X16820826Y-98452858D01*
X16822000Y-98476750D01*
X16822000Y-99389250D01*
X16820826Y-99413142D01*
X16817316Y-99436803D01*
X16811504Y-99460007D01*
X16803446Y-99482529D01*
X16793218Y-99504153D01*
X16780921Y-99524670D01*
X16766671Y-99543883D01*
X16750607Y-99561607D01*
X16732883Y-99577671D01*
X16713670Y-99591921D01*
X16693153Y-99604218D01*
X16671529Y-99614446D01*
X16649007Y-99622504D01*
X16625803Y-99628316D01*
X16602142Y-99631826D01*
X16578250Y-99633000D01*
X16090750Y-99633000D01*
X16066858Y-99631826D01*
X16043197Y-99628316D01*
X16019993Y-99622504D01*
X15997471Y-99614446D01*
X15975847Y-99604218D01*
X15955330Y-99591921D01*
X15936117Y-99577671D01*
X15918393Y-99561607D01*
X15902329Y-99543883D01*
X15888079Y-99524670D01*
X15875782Y-99504153D01*
X15865554Y-99482529D01*
X15857496Y-99460007D01*
X15851684Y-99436803D01*
X15848174Y-99413142D01*
X15847000Y-99389250D01*
X15847000Y-98476750D01*
X15848174Y-98452858D01*
X15851684Y-98429197D01*
X15857496Y-98405993D01*
X15865554Y-98383471D01*
X15875782Y-98361847D01*
X15888079Y-98341330D01*
X15902329Y-98322117D01*
X15918393Y-98304393D01*
X15936117Y-98288329D01*
X15955330Y-98274079D01*
X15975847Y-98261782D01*
X15997471Y-98251554D01*
X16019993Y-98243496D01*
X16043197Y-98237684D01*
X16066858Y-98234174D01*
X16090750Y-98233000D01*
X16578250Y-98233000D01*
X16602142Y-98234174D01*
G37*
G36*
X18477142Y-98234174D02*
G01*
X18500803Y-98237684D01*
X18524007Y-98243496D01*
X18546529Y-98251554D01*
X18568153Y-98261782D01*
X18588670Y-98274079D01*
X18607883Y-98288329D01*
X18625607Y-98304393D01*
X18641671Y-98322117D01*
X18655921Y-98341330D01*
X18668218Y-98361847D01*
X18678446Y-98383471D01*
X18686504Y-98405993D01*
X18692316Y-98429197D01*
X18695826Y-98452858D01*
X18697000Y-98476750D01*
X18697000Y-99389250D01*
X18695826Y-99413142D01*
X18692316Y-99436803D01*
X18686504Y-99460007D01*
X18678446Y-99482529D01*
X18668218Y-99504153D01*
X18655921Y-99524670D01*
X18641671Y-99543883D01*
X18625607Y-99561607D01*
X18607883Y-99577671D01*
X18588670Y-99591921D01*
X18568153Y-99604218D01*
X18546529Y-99614446D01*
X18524007Y-99622504D01*
X18500803Y-99628316D01*
X18477142Y-99631826D01*
X18453250Y-99633000D01*
X17965750Y-99633000D01*
X17941858Y-99631826D01*
X17918197Y-99628316D01*
X17894993Y-99622504D01*
X17872471Y-99614446D01*
X17850847Y-99604218D01*
X17830330Y-99591921D01*
X17811117Y-99577671D01*
X17793393Y-99561607D01*
X17777329Y-99543883D01*
X17763079Y-99524670D01*
X17750782Y-99504153D01*
X17740554Y-99482529D01*
X17732496Y-99460007D01*
X17726684Y-99436803D01*
X17723174Y-99413142D01*
X17722000Y-99389250D01*
X17722000Y-98476750D01*
X17723174Y-98452858D01*
X17726684Y-98429197D01*
X17732496Y-98405993D01*
X17740554Y-98383471D01*
X17750782Y-98361847D01*
X17763079Y-98341330D01*
X17777329Y-98322117D01*
X17793393Y-98304393D01*
X17811117Y-98288329D01*
X17830330Y-98274079D01*
X17850847Y-98261782D01*
X17872471Y-98251554D01*
X17894993Y-98243496D01*
X17918197Y-98237684D01*
X17941858Y-98234174D01*
X17965750Y-98233000D01*
X18453250Y-98233000D01*
X18477142Y-98234174D01*
G37*
G36*
X16602142Y-95948174D02*
G01*
X16625803Y-95951684D01*
X16649007Y-95957496D01*
X16671529Y-95965554D01*
X16693153Y-95975782D01*
X16713670Y-95988079D01*
X16732883Y-96002329D01*
X16750607Y-96018393D01*
X16766671Y-96036117D01*
X16780921Y-96055330D01*
X16793218Y-96075847D01*
X16803446Y-96097471D01*
X16811504Y-96119993D01*
X16817316Y-96143197D01*
X16820826Y-96166858D01*
X16822000Y-96190750D01*
X16822000Y-97103250D01*
X16820826Y-97127142D01*
X16817316Y-97150803D01*
X16811504Y-97174007D01*
X16803446Y-97196529D01*
X16793218Y-97218153D01*
X16780921Y-97238670D01*
X16766671Y-97257883D01*
X16750607Y-97275607D01*
X16732883Y-97291671D01*
X16713670Y-97305921D01*
X16693153Y-97318218D01*
X16671529Y-97328446D01*
X16649007Y-97336504D01*
X16625803Y-97342316D01*
X16602142Y-97345826D01*
X16578250Y-97347000D01*
X16090750Y-97347000D01*
X16066858Y-97345826D01*
X16043197Y-97342316D01*
X16019993Y-97336504D01*
X15997471Y-97328446D01*
X15975847Y-97318218D01*
X15955330Y-97305921D01*
X15936117Y-97291671D01*
X15918393Y-97275607D01*
X15902329Y-97257883D01*
X15888079Y-97238670D01*
X15875782Y-97218153D01*
X15865554Y-97196529D01*
X15857496Y-97174007D01*
X15851684Y-97150803D01*
X15848174Y-97127142D01*
X15847000Y-97103250D01*
X15847000Y-96190750D01*
X15848174Y-96166858D01*
X15851684Y-96143197D01*
X15857496Y-96119993D01*
X15865554Y-96097471D01*
X15875782Y-96075847D01*
X15888079Y-96055330D01*
X15902329Y-96036117D01*
X15918393Y-96018393D01*
X15936117Y-96002329D01*
X15955330Y-95988079D01*
X15975847Y-95975782D01*
X15997471Y-95965554D01*
X16019993Y-95957496D01*
X16043197Y-95951684D01*
X16066858Y-95948174D01*
X16090750Y-95947000D01*
X16578250Y-95947000D01*
X16602142Y-95948174D01*
G37*
G36*
X18477142Y-95948174D02*
G01*
X18500803Y-95951684D01*
X18524007Y-95957496D01*
X18546529Y-95965554D01*
X18568153Y-95975782D01*
X18588670Y-95988079D01*
X18607883Y-96002329D01*
X18625607Y-96018393D01*
X18641671Y-96036117D01*
X18655921Y-96055330D01*
X18668218Y-96075847D01*
X18678446Y-96097471D01*
X18686504Y-96119993D01*
X18692316Y-96143197D01*
X18695826Y-96166858D01*
X18697000Y-96190750D01*
X18697000Y-97103250D01*
X18695826Y-97127142D01*
X18692316Y-97150803D01*
X18686504Y-97174007D01*
X18678446Y-97196529D01*
X18668218Y-97218153D01*
X18655921Y-97238670D01*
X18641671Y-97257883D01*
X18625607Y-97275607D01*
X18607883Y-97291671D01*
X18588670Y-97305921D01*
X18568153Y-97318218D01*
X18546529Y-97328446D01*
X18524007Y-97336504D01*
X18500803Y-97342316D01*
X18477142Y-97345826D01*
X18453250Y-97347000D01*
X17965750Y-97347000D01*
X17941858Y-97345826D01*
X17918197Y-97342316D01*
X17894993Y-97336504D01*
X17872471Y-97328446D01*
X17850847Y-97318218D01*
X17830330Y-97305921D01*
X17811117Y-97291671D01*
X17793393Y-97275607D01*
X17777329Y-97257883D01*
X17763079Y-97238670D01*
X17750782Y-97218153D01*
X17740554Y-97196529D01*
X17732496Y-97174007D01*
X17726684Y-97150803D01*
X17723174Y-97127142D01*
X17722000Y-97103250D01*
X17722000Y-96190750D01*
X17723174Y-96166858D01*
X17726684Y-96143197D01*
X17732496Y-96119993D01*
X17740554Y-96097471D01*
X17750782Y-96075847D01*
X17763079Y-96055330D01*
X17777329Y-96036117D01*
X17793393Y-96018393D01*
X17811117Y-96002329D01*
X17830330Y-95988079D01*
X17850847Y-95975782D01*
X17872471Y-95965554D01*
X17894993Y-95957496D01*
X17918197Y-95951684D01*
X17941858Y-95948174D01*
X17965750Y-95947000D01*
X18453250Y-95947000D01*
X18477142Y-95948174D01*
G37*
G36*
X30833142Y-61441174D02*
G01*
X30856803Y-61444684D01*
X30880007Y-61450496D01*
X30902529Y-61458554D01*
X30924153Y-61468782D01*
X30944670Y-61481079D01*
X30963883Y-61495329D01*
X30981607Y-61511393D01*
X30997671Y-61529117D01*
X31011921Y-61548330D01*
X31024218Y-61568847D01*
X31034446Y-61590471D01*
X31042504Y-61612993D01*
X31048316Y-61636197D01*
X31051826Y-61659858D01*
X31053000Y-61683750D01*
X31053000Y-62171250D01*
X31051826Y-62195142D01*
X31048316Y-62218803D01*
X31042504Y-62242007D01*
X31034446Y-62264529D01*
X31024218Y-62286153D01*
X31011921Y-62306670D01*
X30997671Y-62325883D01*
X30981607Y-62343607D01*
X30963883Y-62359671D01*
X30944670Y-62373921D01*
X30924153Y-62386218D01*
X30902529Y-62396446D01*
X30880007Y-62404504D01*
X30856803Y-62410316D01*
X30833142Y-62413826D01*
X30809250Y-62415000D01*
X29896750Y-62415000D01*
X29872858Y-62413826D01*
X29849197Y-62410316D01*
X29825993Y-62404504D01*
X29803471Y-62396446D01*
X29781847Y-62386218D01*
X29761330Y-62373921D01*
X29742117Y-62359671D01*
X29724393Y-62343607D01*
X29708329Y-62325883D01*
X29694079Y-62306670D01*
X29681782Y-62286153D01*
X29671554Y-62264529D01*
X29663496Y-62242007D01*
X29657684Y-62218803D01*
X29654174Y-62195142D01*
X29653000Y-62171250D01*
X29653000Y-61683750D01*
X29654174Y-61659858D01*
X29657684Y-61636197D01*
X29663496Y-61612993D01*
X29671554Y-61590471D01*
X29681782Y-61568847D01*
X29694079Y-61548330D01*
X29708329Y-61529117D01*
X29724393Y-61511393D01*
X29742117Y-61495329D01*
X29761330Y-61481079D01*
X29781847Y-61468782D01*
X29803471Y-61458554D01*
X29825993Y-61450496D01*
X29849197Y-61444684D01*
X29872858Y-61441174D01*
X29896750Y-61440000D01*
X30809250Y-61440000D01*
X30833142Y-61441174D01*
G37*
G36*
X30833142Y-63316174D02*
G01*
X30856803Y-63319684D01*
X30880007Y-63325496D01*
X30902529Y-63333554D01*
X30924153Y-63343782D01*
X30944670Y-63356079D01*
X30963883Y-63370329D01*
X30981607Y-63386393D01*
X30997671Y-63404117D01*
X31011921Y-63423330D01*
X31024218Y-63443847D01*
X31034446Y-63465471D01*
X31042504Y-63487993D01*
X31048316Y-63511197D01*
X31051826Y-63534858D01*
X31053000Y-63558750D01*
X31053000Y-64046250D01*
X31051826Y-64070142D01*
X31048316Y-64093803D01*
X31042504Y-64117007D01*
X31034446Y-64139529D01*
X31024218Y-64161153D01*
X31011921Y-64181670D01*
X30997671Y-64200883D01*
X30981607Y-64218607D01*
X30963883Y-64234671D01*
X30944670Y-64248921D01*
X30924153Y-64261218D01*
X30902529Y-64271446D01*
X30880007Y-64279504D01*
X30856803Y-64285316D01*
X30833142Y-64288826D01*
X30809250Y-64290000D01*
X29896750Y-64290000D01*
X29872858Y-64288826D01*
X29849197Y-64285316D01*
X29825993Y-64279504D01*
X29803471Y-64271446D01*
X29781847Y-64261218D01*
X29761330Y-64248921D01*
X29742117Y-64234671D01*
X29724393Y-64218607D01*
X29708329Y-64200883D01*
X29694079Y-64181670D01*
X29681782Y-64161153D01*
X29671554Y-64139529D01*
X29663496Y-64117007D01*
X29657684Y-64093803D01*
X29654174Y-64070142D01*
X29653000Y-64046250D01*
X29653000Y-63558750D01*
X29654174Y-63534858D01*
X29657684Y-63511197D01*
X29663496Y-63487993D01*
X29671554Y-63465471D01*
X29681782Y-63443847D01*
X29694079Y-63423330D01*
X29708329Y-63404117D01*
X29724393Y-63386393D01*
X29742117Y-63370329D01*
X29761330Y-63356079D01*
X29781847Y-63343782D01*
X29803471Y-63333554D01*
X29825993Y-63325496D01*
X29849197Y-63319684D01*
X29872858Y-63316174D01*
X29896750Y-63315000D01*
X30809250Y-63315000D01*
X30833142Y-63316174D01*
G37*
G36*
X12418142Y-66872174D02*
G01*
X12441803Y-66875684D01*
X12465007Y-66881496D01*
X12487529Y-66889554D01*
X12509153Y-66899782D01*
X12529670Y-66912079D01*
X12548883Y-66926329D01*
X12566607Y-66942393D01*
X12582671Y-66960117D01*
X12596921Y-66979330D01*
X12609218Y-66999847D01*
X12619446Y-67021471D01*
X12627504Y-67043993D01*
X12633316Y-67067197D01*
X12636826Y-67090858D01*
X12638000Y-67114750D01*
X12638000Y-67602250D01*
X12636826Y-67626142D01*
X12633316Y-67649803D01*
X12627504Y-67673007D01*
X12619446Y-67695529D01*
X12609218Y-67717153D01*
X12596921Y-67737670D01*
X12582671Y-67756883D01*
X12566607Y-67774607D01*
X12548883Y-67790671D01*
X12529670Y-67804921D01*
X12509153Y-67817218D01*
X12487529Y-67827446D01*
X12465007Y-67835504D01*
X12441803Y-67841316D01*
X12418142Y-67844826D01*
X12394250Y-67846000D01*
X11481750Y-67846000D01*
X11457858Y-67844826D01*
X11434197Y-67841316D01*
X11410993Y-67835504D01*
X11388471Y-67827446D01*
X11366847Y-67817218D01*
X11346330Y-67804921D01*
X11327117Y-67790671D01*
X11309393Y-67774607D01*
X11293329Y-67756883D01*
X11279079Y-67737670D01*
X11266782Y-67717153D01*
X11256554Y-67695529D01*
X11248496Y-67673007D01*
X11242684Y-67649803D01*
X11239174Y-67626142D01*
X11238000Y-67602250D01*
X11238000Y-67114750D01*
X11239174Y-67090858D01*
X11242684Y-67067197D01*
X11248496Y-67043993D01*
X11256554Y-67021471D01*
X11266782Y-66999847D01*
X11279079Y-66979330D01*
X11293329Y-66960117D01*
X11309393Y-66942393D01*
X11327117Y-66926329D01*
X11346330Y-66912079D01*
X11366847Y-66899782D01*
X11388471Y-66889554D01*
X11410993Y-66881496D01*
X11434197Y-66875684D01*
X11457858Y-66872174D01*
X11481750Y-66871000D01*
X12394250Y-66871000D01*
X12418142Y-66872174D01*
G37*
G36*
X12418142Y-64997174D02*
G01*
X12441803Y-65000684D01*
X12465007Y-65006496D01*
X12487529Y-65014554D01*
X12509153Y-65024782D01*
X12529670Y-65037079D01*
X12548883Y-65051329D01*
X12566607Y-65067393D01*
X12582671Y-65085117D01*
X12596921Y-65104330D01*
X12609218Y-65124847D01*
X12619446Y-65146471D01*
X12627504Y-65168993D01*
X12633316Y-65192197D01*
X12636826Y-65215858D01*
X12638000Y-65239750D01*
X12638000Y-65727250D01*
X12636826Y-65751142D01*
X12633316Y-65774803D01*
X12627504Y-65798007D01*
X12619446Y-65820529D01*
X12609218Y-65842153D01*
X12596921Y-65862670D01*
X12582671Y-65881883D01*
X12566607Y-65899607D01*
X12548883Y-65915671D01*
X12529670Y-65929921D01*
X12509153Y-65942218D01*
X12487529Y-65952446D01*
X12465007Y-65960504D01*
X12441803Y-65966316D01*
X12418142Y-65969826D01*
X12394250Y-65971000D01*
X11481750Y-65971000D01*
X11457858Y-65969826D01*
X11434197Y-65966316D01*
X11410993Y-65960504D01*
X11388471Y-65952446D01*
X11366847Y-65942218D01*
X11346330Y-65929921D01*
X11327117Y-65915671D01*
X11309393Y-65899607D01*
X11293329Y-65881883D01*
X11279079Y-65862670D01*
X11266782Y-65842153D01*
X11256554Y-65820529D01*
X11248496Y-65798007D01*
X11242684Y-65774803D01*
X11239174Y-65751142D01*
X11238000Y-65727250D01*
X11238000Y-65239750D01*
X11239174Y-65215858D01*
X11242684Y-65192197D01*
X11248496Y-65168993D01*
X11256554Y-65146471D01*
X11266782Y-65124847D01*
X11279079Y-65104330D01*
X11293329Y-65085117D01*
X11309393Y-65067393D01*
X11327117Y-65051329D01*
X11346330Y-65037079D01*
X11366847Y-65024782D01*
X11388471Y-65014554D01*
X11410993Y-65006496D01*
X11434197Y-65000684D01*
X11457858Y-64997174D01*
X11481750Y-64996000D01*
X12394250Y-64996000D01*
X12418142Y-64997174D01*
G37*
D17*
X286639000Y-120016000D03*
X286639000Y-123316000D03*
X267462000Y-119889000D03*
X267462000Y-123189000D03*
D18*
X242188000Y-112141000D03*
X238888000Y-112141000D03*
D17*
X229489000Y-120016000D03*
X229489000Y-123316000D03*
X210566000Y-120016000D03*
X210566000Y-123316000D03*
X191389000Y-120016000D03*
X191389000Y-123316000D03*
X156845000Y-119888000D03*
X156845000Y-123188000D03*
X153289000Y-119889000D03*
X153289000Y-123189000D03*
X134112000Y-119889000D03*
X134112000Y-123189000D03*
X114808000Y-119889000D03*
X114808000Y-123189000D03*
D18*
X92456000Y-114681000D03*
X95756000Y-114681000D03*
D17*
X80010000Y-120016000D03*
X80010000Y-123316000D03*
X286639000Y-100966000D03*
X286639000Y-104266000D03*
X267589000Y-100966000D03*
X267589000Y-104266000D03*
X248285000Y-100966000D03*
X248285000Y-104266000D03*
X229489000Y-100839000D03*
X229489000Y-104139000D03*
X210312000Y-100839000D03*
X210312000Y-104139000D03*
X191389000Y-100839000D03*
X191389000Y-104139000D03*
X172339000Y-100839000D03*
X172339000Y-104139000D03*
X153289000Y-100839000D03*
X153289000Y-104139000D03*
X134112000Y-100839000D03*
X134112000Y-104139000D03*
X115316000Y-100839000D03*
X115316000Y-104139000D03*
X96139000Y-100839000D03*
X96139000Y-104139000D03*
X77089000Y-100839000D03*
X77089000Y-104139000D03*
X55626000Y-110364000D03*
X55626000Y-113664000D03*
X27178000Y-110364000D03*
X27178000Y-113664000D03*
X286639000Y-81916000D03*
X286639000Y-85216000D03*
X267462000Y-81916000D03*
X267462000Y-85216000D03*
X248285000Y-81916000D03*
X248285000Y-85216000D03*
X229489000Y-81789000D03*
X229489000Y-85089000D03*
X210312000Y-81789000D03*
X210312000Y-85089000D03*
X191389000Y-81789000D03*
X191389000Y-85089000D03*
X172339000Y-81789000D03*
X172339000Y-85089000D03*
X153289000Y-81789000D03*
X153289000Y-85089000D03*
X134112000Y-81789000D03*
X134112000Y-85089000D03*
X115316000Y-81789000D03*
X115316000Y-85089000D03*
X96139000Y-81789000D03*
X96139000Y-85089000D03*
X77089000Y-81789000D03*
X77089000Y-85089000D03*
X55626000Y-72264000D03*
X55626000Y-75564000D03*
X27178000Y-72264000D03*
X27178000Y-75564000D03*
X286639000Y-62739000D03*
X286639000Y-66039000D03*
X267462000Y-62739000D03*
X267462000Y-66039000D03*
X248285000Y-62739000D03*
X248285000Y-66039000D03*
X229489000Y-62739000D03*
X229489000Y-66039000D03*
X210312000Y-62739000D03*
X210312000Y-66039000D03*
X191389000Y-62739000D03*
X191389000Y-66039000D03*
X172339000Y-62739000D03*
X172339000Y-66039000D03*
X153416000Y-62739000D03*
X153416000Y-66039000D03*
X134112000Y-62739000D03*
X134112000Y-66039000D03*
X115316000Y-62739000D03*
X115316000Y-66039000D03*
X96139000Y-62739000D03*
X96139000Y-66039000D03*
X77089000Y-62739000D03*
X77089000Y-66039000D03*
D12*
G36*
X10767142Y-91461674D02*
G01*
X10790803Y-91465184D01*
X10814007Y-91470996D01*
X10836529Y-91479054D01*
X10858153Y-91489282D01*
X10878670Y-91501579D01*
X10897883Y-91515829D01*
X10915607Y-91531893D01*
X10931671Y-91549617D01*
X10945921Y-91568830D01*
X10958218Y-91589347D01*
X10968446Y-91610971D01*
X10976504Y-91633493D01*
X10982316Y-91656697D01*
X10985826Y-91680358D01*
X10987000Y-91704250D01*
X10987000Y-92191750D01*
X10985826Y-92215642D01*
X10982316Y-92239303D01*
X10976504Y-92262507D01*
X10968446Y-92285029D01*
X10958218Y-92306653D01*
X10945921Y-92327170D01*
X10931671Y-92346383D01*
X10915607Y-92364107D01*
X10897883Y-92380171D01*
X10878670Y-92394421D01*
X10858153Y-92406718D01*
X10836529Y-92416946D01*
X10814007Y-92425004D01*
X10790803Y-92430816D01*
X10767142Y-92434326D01*
X10743250Y-92435500D01*
X9830750Y-92435500D01*
X9806858Y-92434326D01*
X9783197Y-92430816D01*
X9759993Y-92425004D01*
X9737471Y-92416946D01*
X9715847Y-92406718D01*
X9695330Y-92394421D01*
X9676117Y-92380171D01*
X9658393Y-92364107D01*
X9642329Y-92346383D01*
X9628079Y-92327170D01*
X9615782Y-92306653D01*
X9605554Y-92285029D01*
X9597496Y-92262507D01*
X9591684Y-92239303D01*
X9588174Y-92215642D01*
X9587000Y-92191750D01*
X9587000Y-91704250D01*
X9588174Y-91680358D01*
X9591684Y-91656697D01*
X9597496Y-91633493D01*
X9605554Y-91610971D01*
X9615782Y-91589347D01*
X9628079Y-91568830D01*
X9642329Y-91549617D01*
X9658393Y-91531893D01*
X9676117Y-91515829D01*
X9695330Y-91501579D01*
X9715847Y-91489282D01*
X9737471Y-91479054D01*
X9759993Y-91470996D01*
X9783197Y-91465184D01*
X9806858Y-91461674D01*
X9830750Y-91460500D01*
X10743250Y-91460500D01*
X10767142Y-91461674D01*
G37*
G36*
X10767142Y-93336674D02*
G01*
X10790803Y-93340184D01*
X10814007Y-93345996D01*
X10836529Y-93354054D01*
X10858153Y-93364282D01*
X10878670Y-93376579D01*
X10897883Y-93390829D01*
X10915607Y-93406893D01*
X10931671Y-93424617D01*
X10945921Y-93443830D01*
X10958218Y-93464347D01*
X10968446Y-93485971D01*
X10976504Y-93508493D01*
X10982316Y-93531697D01*
X10985826Y-93555358D01*
X10987000Y-93579250D01*
X10987000Y-94066750D01*
X10985826Y-94090642D01*
X10982316Y-94114303D01*
X10976504Y-94137507D01*
X10968446Y-94160029D01*
X10958218Y-94181653D01*
X10945921Y-94202170D01*
X10931671Y-94221383D01*
X10915607Y-94239107D01*
X10897883Y-94255171D01*
X10878670Y-94269421D01*
X10858153Y-94281718D01*
X10836529Y-94291946D01*
X10814007Y-94300004D01*
X10790803Y-94305816D01*
X10767142Y-94309326D01*
X10743250Y-94310500D01*
X9830750Y-94310500D01*
X9806858Y-94309326D01*
X9783197Y-94305816D01*
X9759993Y-94300004D01*
X9737471Y-94291946D01*
X9715847Y-94281718D01*
X9695330Y-94269421D01*
X9676117Y-94255171D01*
X9658393Y-94239107D01*
X9642329Y-94221383D01*
X9628079Y-94202170D01*
X9615782Y-94181653D01*
X9605554Y-94160029D01*
X9597496Y-94137507D01*
X9591684Y-94114303D01*
X9588174Y-94090642D01*
X9587000Y-94066750D01*
X9587000Y-93579250D01*
X9588174Y-93555358D01*
X9591684Y-93531697D01*
X9597496Y-93508493D01*
X9605554Y-93485971D01*
X9615782Y-93464347D01*
X9628079Y-93443830D01*
X9642329Y-93424617D01*
X9658393Y-93406893D01*
X9676117Y-93390829D01*
X9695330Y-93376579D01*
X9715847Y-93364282D01*
X9737471Y-93354054D01*
X9759993Y-93345996D01*
X9783197Y-93340184D01*
X9806858Y-93336674D01*
X9830750Y-93335500D01*
X10743250Y-93335500D01*
X10767142Y-93336674D01*
G37*
G36*
X15466142Y-91461674D02*
G01*
X15489803Y-91465184D01*
X15513007Y-91470996D01*
X15535529Y-91479054D01*
X15557153Y-91489282D01*
X15577670Y-91501579D01*
X15596883Y-91515829D01*
X15614607Y-91531893D01*
X15630671Y-91549617D01*
X15644921Y-91568830D01*
X15657218Y-91589347D01*
X15667446Y-91610971D01*
X15675504Y-91633493D01*
X15681316Y-91656697D01*
X15684826Y-91680358D01*
X15686000Y-91704250D01*
X15686000Y-92191750D01*
X15684826Y-92215642D01*
X15681316Y-92239303D01*
X15675504Y-92262507D01*
X15667446Y-92285029D01*
X15657218Y-92306653D01*
X15644921Y-92327170D01*
X15630671Y-92346383D01*
X15614607Y-92364107D01*
X15596883Y-92380171D01*
X15577670Y-92394421D01*
X15557153Y-92406718D01*
X15535529Y-92416946D01*
X15513007Y-92425004D01*
X15489803Y-92430816D01*
X15466142Y-92434326D01*
X15442250Y-92435500D01*
X14529750Y-92435500D01*
X14505858Y-92434326D01*
X14482197Y-92430816D01*
X14458993Y-92425004D01*
X14436471Y-92416946D01*
X14414847Y-92406718D01*
X14394330Y-92394421D01*
X14375117Y-92380171D01*
X14357393Y-92364107D01*
X14341329Y-92346383D01*
X14327079Y-92327170D01*
X14314782Y-92306653D01*
X14304554Y-92285029D01*
X14296496Y-92262507D01*
X14290684Y-92239303D01*
X14287174Y-92215642D01*
X14286000Y-92191750D01*
X14286000Y-91704250D01*
X14287174Y-91680358D01*
X14290684Y-91656697D01*
X14296496Y-91633493D01*
X14304554Y-91610971D01*
X14314782Y-91589347D01*
X14327079Y-91568830D01*
X14341329Y-91549617D01*
X14357393Y-91531893D01*
X14375117Y-91515829D01*
X14394330Y-91501579D01*
X14414847Y-91489282D01*
X14436471Y-91479054D01*
X14458993Y-91470996D01*
X14482197Y-91465184D01*
X14505858Y-91461674D01*
X14529750Y-91460500D01*
X15442250Y-91460500D01*
X15466142Y-91461674D01*
G37*
G36*
X15466142Y-93336674D02*
G01*
X15489803Y-93340184D01*
X15513007Y-93345996D01*
X15535529Y-93354054D01*
X15557153Y-93364282D01*
X15577670Y-93376579D01*
X15596883Y-93390829D01*
X15614607Y-93406893D01*
X15630671Y-93424617D01*
X15644921Y-93443830D01*
X15657218Y-93464347D01*
X15667446Y-93485971D01*
X15675504Y-93508493D01*
X15681316Y-93531697D01*
X15684826Y-93555358D01*
X15686000Y-93579250D01*
X15686000Y-94066750D01*
X15684826Y-94090642D01*
X15681316Y-94114303D01*
X15675504Y-94137507D01*
X15667446Y-94160029D01*
X15657218Y-94181653D01*
X15644921Y-94202170D01*
X15630671Y-94221383D01*
X15614607Y-94239107D01*
X15596883Y-94255171D01*
X15577670Y-94269421D01*
X15557153Y-94281718D01*
X15535529Y-94291946D01*
X15513007Y-94300004D01*
X15489803Y-94305816D01*
X15466142Y-94309326D01*
X15442250Y-94310500D01*
X14529750Y-94310500D01*
X14505858Y-94309326D01*
X14482197Y-94305816D01*
X14458993Y-94300004D01*
X14436471Y-94291946D01*
X14414847Y-94281718D01*
X14394330Y-94269421D01*
X14375117Y-94255171D01*
X14357393Y-94239107D01*
X14341329Y-94221383D01*
X14327079Y-94202170D01*
X14314782Y-94181653D01*
X14304554Y-94160029D01*
X14296496Y-94137507D01*
X14290684Y-94114303D01*
X14287174Y-94090642D01*
X14286000Y-94066750D01*
X14286000Y-93579250D01*
X14287174Y-93555358D01*
X14290684Y-93531697D01*
X14296496Y-93508493D01*
X14304554Y-93485971D01*
X14314782Y-93464347D01*
X14327079Y-93443830D01*
X14341329Y-93424617D01*
X14357393Y-93406893D01*
X14375117Y-93390829D01*
X14394330Y-93376579D01*
X14414847Y-93364282D01*
X14436471Y-93354054D01*
X14458993Y-93345996D01*
X14482197Y-93340184D01*
X14505858Y-93336674D01*
X14529750Y-93335500D01*
X15442250Y-93335500D01*
X15466142Y-93336674D01*
G37*
G36*
X17879142Y-91461674D02*
G01*
X17902803Y-91465184D01*
X17926007Y-91470996D01*
X17948529Y-91479054D01*
X17970153Y-91489282D01*
X17990670Y-91501579D01*
X18009883Y-91515829D01*
X18027607Y-91531893D01*
X18043671Y-91549617D01*
X18057921Y-91568830D01*
X18070218Y-91589347D01*
X18080446Y-91610971D01*
X18088504Y-91633493D01*
X18094316Y-91656697D01*
X18097826Y-91680358D01*
X18099000Y-91704250D01*
X18099000Y-92191750D01*
X18097826Y-92215642D01*
X18094316Y-92239303D01*
X18088504Y-92262507D01*
X18080446Y-92285029D01*
X18070218Y-92306653D01*
X18057921Y-92327170D01*
X18043671Y-92346383D01*
X18027607Y-92364107D01*
X18009883Y-92380171D01*
X17990670Y-92394421D01*
X17970153Y-92406718D01*
X17948529Y-92416946D01*
X17926007Y-92425004D01*
X17902803Y-92430816D01*
X17879142Y-92434326D01*
X17855250Y-92435500D01*
X16942750Y-92435500D01*
X16918858Y-92434326D01*
X16895197Y-92430816D01*
X16871993Y-92425004D01*
X16849471Y-92416946D01*
X16827847Y-92406718D01*
X16807330Y-92394421D01*
X16788117Y-92380171D01*
X16770393Y-92364107D01*
X16754329Y-92346383D01*
X16740079Y-92327170D01*
X16727782Y-92306653D01*
X16717554Y-92285029D01*
X16709496Y-92262507D01*
X16703684Y-92239303D01*
X16700174Y-92215642D01*
X16699000Y-92191750D01*
X16699000Y-91704250D01*
X16700174Y-91680358D01*
X16703684Y-91656697D01*
X16709496Y-91633493D01*
X16717554Y-91610971D01*
X16727782Y-91589347D01*
X16740079Y-91568830D01*
X16754329Y-91549617D01*
X16770393Y-91531893D01*
X16788117Y-91515829D01*
X16807330Y-91501579D01*
X16827847Y-91489282D01*
X16849471Y-91479054D01*
X16871993Y-91470996D01*
X16895197Y-91465184D01*
X16918858Y-91461674D01*
X16942750Y-91460500D01*
X17855250Y-91460500D01*
X17879142Y-91461674D01*
G37*
G36*
X17879142Y-93336674D02*
G01*
X17902803Y-93340184D01*
X17926007Y-93345996D01*
X17948529Y-93354054D01*
X17970153Y-93364282D01*
X17990670Y-93376579D01*
X18009883Y-93390829D01*
X18027607Y-93406893D01*
X18043671Y-93424617D01*
X18057921Y-93443830D01*
X18070218Y-93464347D01*
X18080446Y-93485971D01*
X18088504Y-93508493D01*
X18094316Y-93531697D01*
X18097826Y-93555358D01*
X18099000Y-93579250D01*
X18099000Y-94066750D01*
X18097826Y-94090642D01*
X18094316Y-94114303D01*
X18088504Y-94137507D01*
X18080446Y-94160029D01*
X18070218Y-94181653D01*
X18057921Y-94202170D01*
X18043671Y-94221383D01*
X18027607Y-94239107D01*
X18009883Y-94255171D01*
X17990670Y-94269421D01*
X17970153Y-94281718D01*
X17948529Y-94291946D01*
X17926007Y-94300004D01*
X17902803Y-94305816D01*
X17879142Y-94309326D01*
X17855250Y-94310500D01*
X16942750Y-94310500D01*
X16918858Y-94309326D01*
X16895197Y-94305816D01*
X16871993Y-94300004D01*
X16849471Y-94291946D01*
X16827847Y-94281718D01*
X16807330Y-94269421D01*
X16788117Y-94255171D01*
X16770393Y-94239107D01*
X16754329Y-94221383D01*
X16740079Y-94202170D01*
X16727782Y-94181653D01*
X16717554Y-94160029D01*
X16709496Y-94137507D01*
X16703684Y-94114303D01*
X16700174Y-94090642D01*
X16699000Y-94066750D01*
X16699000Y-93579250D01*
X16700174Y-93555358D01*
X16703684Y-93531697D01*
X16709496Y-93508493D01*
X16717554Y-93485971D01*
X16727782Y-93464347D01*
X16740079Y-93443830D01*
X16754329Y-93424617D01*
X16770393Y-93406893D01*
X16788117Y-93390829D01*
X16807330Y-93376579D01*
X16827847Y-93364282D01*
X16849471Y-93354054D01*
X16871993Y-93345996D01*
X16895197Y-93340184D01*
X16918858Y-93336674D01*
X16942750Y-93335500D01*
X17855250Y-93335500D01*
X17879142Y-93336674D01*
G37*
G36*
X13180142Y-93336674D02*
G01*
X13203803Y-93340184D01*
X13227007Y-93345996D01*
X13249529Y-93354054D01*
X13271153Y-93364282D01*
X13291670Y-93376579D01*
X13310883Y-93390829D01*
X13328607Y-93406893D01*
X13344671Y-93424617D01*
X13358921Y-93443830D01*
X13371218Y-93464347D01*
X13381446Y-93485971D01*
X13389504Y-93508493D01*
X13395316Y-93531697D01*
X13398826Y-93555358D01*
X13400000Y-93579250D01*
X13400000Y-94066750D01*
X13398826Y-94090642D01*
X13395316Y-94114303D01*
X13389504Y-94137507D01*
X13381446Y-94160029D01*
X13371218Y-94181653D01*
X13358921Y-94202170D01*
X13344671Y-94221383D01*
X13328607Y-94239107D01*
X13310883Y-94255171D01*
X13291670Y-94269421D01*
X13271153Y-94281718D01*
X13249529Y-94291946D01*
X13227007Y-94300004D01*
X13203803Y-94305816D01*
X13180142Y-94309326D01*
X13156250Y-94310500D01*
X12243750Y-94310500D01*
X12219858Y-94309326D01*
X12196197Y-94305816D01*
X12172993Y-94300004D01*
X12150471Y-94291946D01*
X12128847Y-94281718D01*
X12108330Y-94269421D01*
X12089117Y-94255171D01*
X12071393Y-94239107D01*
X12055329Y-94221383D01*
X12041079Y-94202170D01*
X12028782Y-94181653D01*
X12018554Y-94160029D01*
X12010496Y-94137507D01*
X12004684Y-94114303D01*
X12001174Y-94090642D01*
X12000000Y-94066750D01*
X12000000Y-93579250D01*
X12001174Y-93555358D01*
X12004684Y-93531697D01*
X12010496Y-93508493D01*
X12018554Y-93485971D01*
X12028782Y-93464347D01*
X12041079Y-93443830D01*
X12055329Y-93424617D01*
X12071393Y-93406893D01*
X12089117Y-93390829D01*
X12108330Y-93376579D01*
X12128847Y-93364282D01*
X12150471Y-93354054D01*
X12172993Y-93345996D01*
X12196197Y-93340184D01*
X12219858Y-93336674D01*
X12243750Y-93335500D01*
X13156250Y-93335500D01*
X13180142Y-93336674D01*
G37*
G36*
X13180142Y-91461674D02*
G01*
X13203803Y-91465184D01*
X13227007Y-91470996D01*
X13249529Y-91479054D01*
X13271153Y-91489282D01*
X13291670Y-91501579D01*
X13310883Y-91515829D01*
X13328607Y-91531893D01*
X13344671Y-91549617D01*
X13358921Y-91568830D01*
X13371218Y-91589347D01*
X13381446Y-91610971D01*
X13389504Y-91633493D01*
X13395316Y-91656697D01*
X13398826Y-91680358D01*
X13400000Y-91704250D01*
X13400000Y-92191750D01*
X13398826Y-92215642D01*
X13395316Y-92239303D01*
X13389504Y-92262507D01*
X13381446Y-92285029D01*
X13371218Y-92306653D01*
X13358921Y-92327170D01*
X13344671Y-92346383D01*
X13328607Y-92364107D01*
X13310883Y-92380171D01*
X13291670Y-92394421D01*
X13271153Y-92406718D01*
X13249529Y-92416946D01*
X13227007Y-92425004D01*
X13203803Y-92430816D01*
X13180142Y-92434326D01*
X13156250Y-92435500D01*
X12243750Y-92435500D01*
X12219858Y-92434326D01*
X12196197Y-92430816D01*
X12172993Y-92425004D01*
X12150471Y-92416946D01*
X12128847Y-92406718D01*
X12108330Y-92394421D01*
X12089117Y-92380171D01*
X12071393Y-92364107D01*
X12055329Y-92346383D01*
X12041079Y-92327170D01*
X12028782Y-92306653D01*
X12018554Y-92285029D01*
X12010496Y-92262507D01*
X12004684Y-92239303D01*
X12001174Y-92215642D01*
X12000000Y-92191750D01*
X12000000Y-91704250D01*
X12001174Y-91680358D01*
X12004684Y-91656697D01*
X12010496Y-91633493D01*
X12018554Y-91610971D01*
X12028782Y-91589347D01*
X12041079Y-91568830D01*
X12055329Y-91549617D01*
X12071393Y-91531893D01*
X12089117Y-91515829D01*
X12108330Y-91501579D01*
X12128847Y-91489282D01*
X12150471Y-91479054D01*
X12172993Y-91470996D01*
X12196197Y-91465184D01*
X12219858Y-91461674D01*
X12243750Y-91460500D01*
X13156250Y-91460500D01*
X13180142Y-91461674D01*
G37*
G36*
X22578142Y-94352674D02*
G01*
X22601803Y-94356184D01*
X22625007Y-94361996D01*
X22647529Y-94370054D01*
X22669153Y-94380282D01*
X22689670Y-94392579D01*
X22708883Y-94406829D01*
X22726607Y-94422893D01*
X22742671Y-94440617D01*
X22756921Y-94459830D01*
X22769218Y-94480347D01*
X22779446Y-94501971D01*
X22787504Y-94524493D01*
X22793316Y-94547697D01*
X22796826Y-94571358D01*
X22798000Y-94595250D01*
X22798000Y-95082750D01*
X22796826Y-95106642D01*
X22793316Y-95130303D01*
X22787504Y-95153507D01*
X22779446Y-95176029D01*
X22769218Y-95197653D01*
X22756921Y-95218170D01*
X22742671Y-95237383D01*
X22726607Y-95255107D01*
X22708883Y-95271171D01*
X22689670Y-95285421D01*
X22669153Y-95297718D01*
X22647529Y-95307946D01*
X22625007Y-95316004D01*
X22601803Y-95321816D01*
X22578142Y-95325326D01*
X22554250Y-95326500D01*
X21641750Y-95326500D01*
X21617858Y-95325326D01*
X21594197Y-95321816D01*
X21570993Y-95316004D01*
X21548471Y-95307946D01*
X21526847Y-95297718D01*
X21506330Y-95285421D01*
X21487117Y-95271171D01*
X21469393Y-95255107D01*
X21453329Y-95237383D01*
X21439079Y-95218170D01*
X21426782Y-95197653D01*
X21416554Y-95176029D01*
X21408496Y-95153507D01*
X21402684Y-95130303D01*
X21399174Y-95106642D01*
X21398000Y-95082750D01*
X21398000Y-94595250D01*
X21399174Y-94571358D01*
X21402684Y-94547697D01*
X21408496Y-94524493D01*
X21416554Y-94501971D01*
X21426782Y-94480347D01*
X21439079Y-94459830D01*
X21453329Y-94440617D01*
X21469393Y-94422893D01*
X21487117Y-94406829D01*
X21506330Y-94392579D01*
X21526847Y-94380282D01*
X21548471Y-94370054D01*
X21570993Y-94361996D01*
X21594197Y-94356184D01*
X21617858Y-94352674D01*
X21641750Y-94351500D01*
X22554250Y-94351500D01*
X22578142Y-94352674D01*
G37*
G36*
X22578142Y-92477674D02*
G01*
X22601803Y-92481184D01*
X22625007Y-92486996D01*
X22647529Y-92495054D01*
X22669153Y-92505282D01*
X22689670Y-92517579D01*
X22708883Y-92531829D01*
X22726607Y-92547893D01*
X22742671Y-92565617D01*
X22756921Y-92584830D01*
X22769218Y-92605347D01*
X22779446Y-92626971D01*
X22787504Y-92649493D01*
X22793316Y-92672697D01*
X22796826Y-92696358D01*
X22798000Y-92720250D01*
X22798000Y-93207750D01*
X22796826Y-93231642D01*
X22793316Y-93255303D01*
X22787504Y-93278507D01*
X22779446Y-93301029D01*
X22769218Y-93322653D01*
X22756921Y-93343170D01*
X22742671Y-93362383D01*
X22726607Y-93380107D01*
X22708883Y-93396171D01*
X22689670Y-93410421D01*
X22669153Y-93422718D01*
X22647529Y-93432946D01*
X22625007Y-93441004D01*
X22601803Y-93446816D01*
X22578142Y-93450326D01*
X22554250Y-93451500D01*
X21641750Y-93451500D01*
X21617858Y-93450326D01*
X21594197Y-93446816D01*
X21570993Y-93441004D01*
X21548471Y-93432946D01*
X21526847Y-93422718D01*
X21506330Y-93410421D01*
X21487117Y-93396171D01*
X21469393Y-93380107D01*
X21453329Y-93362383D01*
X21439079Y-93343170D01*
X21426782Y-93322653D01*
X21416554Y-93301029D01*
X21408496Y-93278507D01*
X21402684Y-93255303D01*
X21399174Y-93231642D01*
X21398000Y-93207750D01*
X21398000Y-92720250D01*
X21399174Y-92696358D01*
X21402684Y-92672697D01*
X21408496Y-92649493D01*
X21416554Y-92626971D01*
X21426782Y-92605347D01*
X21439079Y-92584830D01*
X21453329Y-92565617D01*
X21469393Y-92547893D01*
X21487117Y-92531829D01*
X21506330Y-92517579D01*
X21526847Y-92505282D01*
X21548471Y-92495054D01*
X21570993Y-92486996D01*
X21594197Y-92481184D01*
X21617858Y-92477674D01*
X21641750Y-92476500D01*
X22554250Y-92476500D01*
X22578142Y-92477674D01*
G37*
G36*
X19874142Y-80962174D02*
G01*
X19897803Y-80965684D01*
X19921007Y-80971496D01*
X19943529Y-80979554D01*
X19965153Y-80989782D01*
X19985670Y-81002079D01*
X20004883Y-81016329D01*
X20022607Y-81032393D01*
X20038671Y-81050117D01*
X20052921Y-81069330D01*
X20065218Y-81089847D01*
X20075446Y-81111471D01*
X20083504Y-81133993D01*
X20089316Y-81157197D01*
X20092826Y-81180858D01*
X20094000Y-81204750D01*
X20094000Y-82117250D01*
X20092826Y-82141142D01*
X20089316Y-82164803D01*
X20083504Y-82188007D01*
X20075446Y-82210529D01*
X20065218Y-82232153D01*
X20052921Y-82252670D01*
X20038671Y-82271883D01*
X20022607Y-82289607D01*
X20004883Y-82305671D01*
X19985670Y-82319921D01*
X19965153Y-82332218D01*
X19943529Y-82342446D01*
X19921007Y-82350504D01*
X19897803Y-82356316D01*
X19874142Y-82359826D01*
X19850250Y-82361000D01*
X19362750Y-82361000D01*
X19338858Y-82359826D01*
X19315197Y-82356316D01*
X19291993Y-82350504D01*
X19269471Y-82342446D01*
X19247847Y-82332218D01*
X19227330Y-82319921D01*
X19208117Y-82305671D01*
X19190393Y-82289607D01*
X19174329Y-82271883D01*
X19160079Y-82252670D01*
X19147782Y-82232153D01*
X19137554Y-82210529D01*
X19129496Y-82188007D01*
X19123684Y-82164803D01*
X19120174Y-82141142D01*
X19119000Y-82117250D01*
X19119000Y-81204750D01*
X19120174Y-81180858D01*
X19123684Y-81157197D01*
X19129496Y-81133993D01*
X19137554Y-81111471D01*
X19147782Y-81089847D01*
X19160079Y-81069330D01*
X19174329Y-81050117D01*
X19190393Y-81032393D01*
X19208117Y-81016329D01*
X19227330Y-81002079D01*
X19247847Y-80989782D01*
X19269471Y-80979554D01*
X19291993Y-80971496D01*
X19315197Y-80965684D01*
X19338858Y-80962174D01*
X19362750Y-80961000D01*
X19850250Y-80961000D01*
X19874142Y-80962174D01*
G37*
G36*
X17999142Y-80962174D02*
G01*
X18022803Y-80965684D01*
X18046007Y-80971496D01*
X18068529Y-80979554D01*
X18090153Y-80989782D01*
X18110670Y-81002079D01*
X18129883Y-81016329D01*
X18147607Y-81032393D01*
X18163671Y-81050117D01*
X18177921Y-81069330D01*
X18190218Y-81089847D01*
X18200446Y-81111471D01*
X18208504Y-81133993D01*
X18214316Y-81157197D01*
X18217826Y-81180858D01*
X18219000Y-81204750D01*
X18219000Y-82117250D01*
X18217826Y-82141142D01*
X18214316Y-82164803D01*
X18208504Y-82188007D01*
X18200446Y-82210529D01*
X18190218Y-82232153D01*
X18177921Y-82252670D01*
X18163671Y-82271883D01*
X18147607Y-82289607D01*
X18129883Y-82305671D01*
X18110670Y-82319921D01*
X18090153Y-82332218D01*
X18068529Y-82342446D01*
X18046007Y-82350504D01*
X18022803Y-82356316D01*
X17999142Y-82359826D01*
X17975250Y-82361000D01*
X17487750Y-82361000D01*
X17463858Y-82359826D01*
X17440197Y-82356316D01*
X17416993Y-82350504D01*
X17394471Y-82342446D01*
X17372847Y-82332218D01*
X17352330Y-82319921D01*
X17333117Y-82305671D01*
X17315393Y-82289607D01*
X17299329Y-82271883D01*
X17285079Y-82252670D01*
X17272782Y-82232153D01*
X17262554Y-82210529D01*
X17254496Y-82188007D01*
X17248684Y-82164803D01*
X17245174Y-82141142D01*
X17244000Y-82117250D01*
X17244000Y-81204750D01*
X17245174Y-81180858D01*
X17248684Y-81157197D01*
X17254496Y-81133993D01*
X17262554Y-81111471D01*
X17272782Y-81089847D01*
X17285079Y-81069330D01*
X17299329Y-81050117D01*
X17315393Y-81032393D01*
X17333117Y-81016329D01*
X17352330Y-81002079D01*
X17372847Y-80989782D01*
X17394471Y-80979554D01*
X17416993Y-80971496D01*
X17440197Y-80965684D01*
X17463858Y-80962174D01*
X17487750Y-80961000D01*
X17975250Y-80961000D01*
X17999142Y-80962174D01*
G37*
G36*
X17999142Y-87312174D02*
G01*
X18022803Y-87315684D01*
X18046007Y-87321496D01*
X18068529Y-87329554D01*
X18090153Y-87339782D01*
X18110670Y-87352079D01*
X18129883Y-87366329D01*
X18147607Y-87382393D01*
X18163671Y-87400117D01*
X18177921Y-87419330D01*
X18190218Y-87439847D01*
X18200446Y-87461471D01*
X18208504Y-87483993D01*
X18214316Y-87507197D01*
X18217826Y-87530858D01*
X18219000Y-87554750D01*
X18219000Y-88467250D01*
X18217826Y-88491142D01*
X18214316Y-88514803D01*
X18208504Y-88538007D01*
X18200446Y-88560529D01*
X18190218Y-88582153D01*
X18177921Y-88602670D01*
X18163671Y-88621883D01*
X18147607Y-88639607D01*
X18129883Y-88655671D01*
X18110670Y-88669921D01*
X18090153Y-88682218D01*
X18068529Y-88692446D01*
X18046007Y-88700504D01*
X18022803Y-88706316D01*
X17999142Y-88709826D01*
X17975250Y-88711000D01*
X17487750Y-88711000D01*
X17463858Y-88709826D01*
X17440197Y-88706316D01*
X17416993Y-88700504D01*
X17394471Y-88692446D01*
X17372847Y-88682218D01*
X17352330Y-88669921D01*
X17333117Y-88655671D01*
X17315393Y-88639607D01*
X17299329Y-88621883D01*
X17285079Y-88602670D01*
X17272782Y-88582153D01*
X17262554Y-88560529D01*
X17254496Y-88538007D01*
X17248684Y-88514803D01*
X17245174Y-88491142D01*
X17244000Y-88467250D01*
X17244000Y-87554750D01*
X17245174Y-87530858D01*
X17248684Y-87507197D01*
X17254496Y-87483993D01*
X17262554Y-87461471D01*
X17272782Y-87439847D01*
X17285079Y-87419330D01*
X17299329Y-87400117D01*
X17315393Y-87382393D01*
X17333117Y-87366329D01*
X17352330Y-87352079D01*
X17372847Y-87339782D01*
X17394471Y-87329554D01*
X17416993Y-87321496D01*
X17440197Y-87315684D01*
X17463858Y-87312174D01*
X17487750Y-87311000D01*
X17975250Y-87311000D01*
X17999142Y-87312174D01*
G37*
G36*
X19874142Y-87312174D02*
G01*
X19897803Y-87315684D01*
X19921007Y-87321496D01*
X19943529Y-87329554D01*
X19965153Y-87339782D01*
X19985670Y-87352079D01*
X20004883Y-87366329D01*
X20022607Y-87382393D01*
X20038671Y-87400117D01*
X20052921Y-87419330D01*
X20065218Y-87439847D01*
X20075446Y-87461471D01*
X20083504Y-87483993D01*
X20089316Y-87507197D01*
X20092826Y-87530858D01*
X20094000Y-87554750D01*
X20094000Y-88467250D01*
X20092826Y-88491142D01*
X20089316Y-88514803D01*
X20083504Y-88538007D01*
X20075446Y-88560529D01*
X20065218Y-88582153D01*
X20052921Y-88602670D01*
X20038671Y-88621883D01*
X20022607Y-88639607D01*
X20004883Y-88655671D01*
X19985670Y-88669921D01*
X19965153Y-88682218D01*
X19943529Y-88692446D01*
X19921007Y-88700504D01*
X19897803Y-88706316D01*
X19874142Y-88709826D01*
X19850250Y-88711000D01*
X19362750Y-88711000D01*
X19338858Y-88709826D01*
X19315197Y-88706316D01*
X19291993Y-88700504D01*
X19269471Y-88692446D01*
X19247847Y-88682218D01*
X19227330Y-88669921D01*
X19208117Y-88655671D01*
X19190393Y-88639607D01*
X19174329Y-88621883D01*
X19160079Y-88602670D01*
X19147782Y-88582153D01*
X19137554Y-88560529D01*
X19129496Y-88538007D01*
X19123684Y-88514803D01*
X19120174Y-88491142D01*
X19119000Y-88467250D01*
X19119000Y-87554750D01*
X19120174Y-87530858D01*
X19123684Y-87507197D01*
X19129496Y-87483993D01*
X19137554Y-87461471D01*
X19147782Y-87439847D01*
X19160079Y-87419330D01*
X19174329Y-87400117D01*
X19190393Y-87382393D01*
X19208117Y-87366329D01*
X19227330Y-87352079D01*
X19247847Y-87339782D01*
X19269471Y-87329554D01*
X19291993Y-87321496D01*
X19315197Y-87315684D01*
X19338858Y-87312174D01*
X19362750Y-87311000D01*
X19850250Y-87311000D01*
X19874142Y-87312174D01*
G37*
M02*
