M48
; DRILL file {KiCad (5.1.5)-3} date 9/20/2020 11:59:04 PM
; FORMAT={-:-/ absolute / inch / decimal}
; #@! TF.CreationDate,2020-09-20T23:59:04-07:00
; #@! TF.GenerationSoftware,Kicad,Pcbnew,(5.1.5)-3
; #@! TF.FileFunction,Plated,1,2,PTH
FMAT,2
INCH
T1C0.0157
T2C0.0236
T3C0.0409
T4C0.0579
%
G90
G05
T1
X0.4833Y-2.7633
X0.485Y-2.89
X0.585Y-3.48
X0.645Y-2.57
X0.7223Y-2.495
X0.7794Y-2.515
X0.79Y-2.57
X0.809Y-2.48
X0.9Y-2.57
X0.945Y-2.845
X0.985Y-2.805
X0.9893Y-3.8593
X0.99Y-3.63
X1.0Y-4.345
X1.11Y-2.4425
X1.155Y-3.955
X1.2223Y-4.195
X1.2339Y-3.3825
X1.2508Y-4.1649
X1.2794Y-4.13
X1.3079Y-4.0947
X1.3385Y-4.0579
X1.34Y-3.34
X1.365Y-4.02
X1.376Y-3.356
X1.3919Y-3.9662
X1.3956Y-4.055
X1.5235Y-4.015
X1.5235Y-4.055
X1.5892Y-3.5658
X1.617Y-3.5936
X1.6443Y-3.7578
X1.6449Y-3.6215
X1.67Y-3.725
X1.6727Y-3.6493
X1.6959Y-3.6812
X1.6965Y-3.5144
X2.5Y-4.7135
X3.11Y-4.685
X4.4694Y-4.9887
X4.4852Y-5.0247
X4.5116Y-5.054
X4.5238Y-5.1038
X4.67Y-5.1
X4.6776Y-5.0468
X4.6891Y-4.9957
X6.2128Y-4.9776
X9.01Y-5.045
X9.185Y-5.04
T3
X1.825Y-4.61
X1.925Y-4.61
X0.7Y-2.71
X0.8Y-2.71
X1.825Y-3.11
X1.925Y-3.11
X0.7Y-4.21
X0.8Y-4.21
T4
X2.665Y-4.685
X2.915Y-4.585
X3.6Y-4.6853
X3.85Y-4.5853
X4.07Y-2.435
X4.32Y-2.335
X8.57Y-3.935
X8.82Y-3.835
X6.32Y-3.185
X6.57Y-3.085
X10.07Y-2.435
X10.32Y-2.335
X2.57Y-4.685
X2.82Y-4.585
X2.57Y-3.185
X2.82Y-3.085
X4.82Y-3.185
X5.07Y-3.085
X0.65Y-4.61
X0.9Y-4.51
X5.57Y-2.435
X5.82Y-2.335
X7.07Y-3.935
X7.32Y-3.835
X10.07Y-3.185
X10.32Y-3.085
X7.82Y-3.935
X8.07Y-3.835
X3.32Y-3.935
X3.57Y-3.835
X5.57Y-3.185
X5.82Y-3.085
X9.7877Y-4.685
X10.0377Y-4.585
X10.82Y-2.435
X11.07Y-2.335
X2.572Y-3.934
X2.822Y-3.834
X10.82Y-3.935
X11.07Y-3.835
X7.07Y-3.185
X7.32Y-3.085
X9.32Y-3.935
X9.57Y-3.835
X3.32Y-3.185
X3.57Y-3.085
X1.725Y-4.31
X1.975Y-4.21
X8.57Y-4.685
X8.82Y-4.585
X0.65Y-3.11
X0.9Y-3.01
X4.07Y-4.685
X4.32Y-4.585
X7.82Y-3.185
X8.07Y-3.085
X3.32Y-4.685
X3.57Y-4.585
X8.57Y-3.185
X8.82Y-3.085
X5.57Y-3.935
X5.82Y-3.835
X10.82Y-4.685
X11.07Y-4.585
X9.32Y-2.435
X9.57Y-2.335
X4.82Y-4.685
X5.07Y-4.585
X4.82Y-2.435
X5.07Y-2.335
X7.82Y-4.685
X8.07Y-4.585
X9.32Y-3.185
X9.57Y-3.085
X7.07Y-2.435
X7.32Y-2.335
X6.32Y-4.685
X6.57Y-4.585
X10.82Y-3.185
X11.07Y-3.085
X2.57Y-2.435
X2.82Y-2.335
X10.07Y-4.685
X10.32Y-4.585
X6.32Y-2.435
X6.57Y-2.335
X10.07Y-3.935
X10.32Y-3.835
X1.725Y-2.81
X1.975Y-2.71
X9.32Y-4.685
X9.57Y-4.585
X4.82Y-3.935
X5.07Y-3.835
X10.725Y-4.685
X10.975Y-4.585
X6.695Y-4.685
X6.945Y-4.585
X3.32Y-2.435
X3.57Y-2.335
X6.32Y-3.935
X6.57Y-3.835
X8.57Y-2.435
X8.82Y-2.335
X7.07Y-4.685
X7.32Y-4.585
X4.07Y-3.935
X4.32Y-3.835
X7.82Y-2.435
X8.07Y-2.335
X5.57Y-4.685
X5.82Y-4.585
X4.07Y-3.185
X4.32Y-3.085
T2
G00X0.5699Y-2.2119
M15
G01X0.5699Y-2.2355
M16
G05
G00X0.5699Y-2.3666
M15
G01X0.5699Y-2.4099
M16
G05
G00X0.9101Y-2.2119
M15
G01X0.9101Y-2.2355
M16
G05
G00X0.9101Y-2.3666
M15
G01X0.9101Y-2.4099
M16
G05
T0
M30
