M48
; DRILL file {KiCad (5.1.5)-3} date 3/22/2020 1:45:43 PM
; FORMAT={-:-/ absolute / inch / decimal}
; #@! TF.CreationDate,2020-03-22T13:45:43-07:00
; #@! TF.GenerationSoftware,Kicad,Pcbnew,(5.1.5)-3
; #@! TF.FileFunction,NonPlated,1,2,NPTH
FMAT,2
INCH
T1C0.0256
T2C0.0689
T3C0.1200
T4C0.1570
%
G90
G05
T1
X0.6262Y-2.3674
X0.8538Y-2.3674
T2
X10.77Y-2.535
X11.17Y-2.535
X9.27Y-2.535
X9.67Y-2.535
X3.55Y-4.7853
X3.95Y-4.7853
X10.02Y-4.035
X10.42Y-4.035
X1.675Y-4.41
X2.075Y-4.41
X7.02Y-4.035
X7.42Y-4.035
X3.27Y-4.785
X3.67Y-4.785
X4.77Y-2.535
X5.17Y-2.535
X10.02Y-2.535
X10.42Y-2.535
X7.02Y-3.285
X7.42Y-3.285
X0.55Y-4.41
X0.95Y-4.41
X2.52Y-4.035
X2.92Y-4.035
X5.52Y-4.035
X5.92Y-4.035
X4.77Y-4.785
X5.17Y-4.785
X4.02Y-3.285
X4.42Y-3.285
X8.52Y-2.535
X8.92Y-2.535
X1.675Y-2.91
X2.075Y-2.91
X6.645Y-4.785
X7.045Y-4.785
X7.77Y-3.285
X8.17Y-3.285
X7.77Y-4.035
X8.17Y-4.035
X6.27Y-4.035
X6.67Y-4.035
X10.02Y-4.785
X10.42Y-4.785
X10.77Y-4.035
X11.17Y-4.035
X5.52Y-4.785
X5.92Y-4.785
X6.27Y-3.285
X6.67Y-3.285
X2.52Y-2.535
X2.92Y-2.535
X5.52Y-2.535
X5.92Y-2.535
X2.52Y-3.285
X2.92Y-3.285
X9.7377Y-4.785
X10.1377Y-4.785
X8.52Y-3.285
X8.92Y-3.285
X10.675Y-4.785
X11.075Y-4.785
X9.27Y-4.035
X9.67Y-4.035
X8.52Y-4.035
X8.92Y-4.035
X8.52Y-4.785
X8.92Y-4.785
X7.02Y-4.785
X7.42Y-4.785
X6.27Y-4.785
X6.67Y-4.785
X5.52Y-3.285
X5.92Y-3.285
X0.55Y-2.91
X0.95Y-2.91
X3.27Y-3.285
X3.67Y-3.285
X2.615Y-4.785
X3.015Y-4.785
X9.27Y-3.285
X9.67Y-3.285
X4.02Y-4.035
X4.42Y-4.035
X9.27Y-4.785
X9.67Y-4.785
X4.02Y-4.785
X4.42Y-4.785
X7.77Y-4.785
X8.17Y-4.785
X4.02Y-2.535
X4.42Y-2.535
X6.27Y-2.535
X6.67Y-2.535
X4.77Y-3.285
X5.17Y-3.285
X10.77Y-3.285
X11.17Y-3.285
X3.27Y-4.035
X3.67Y-4.035
X2.52Y-4.785
X2.92Y-4.785
X10.77Y-4.785
X11.17Y-4.785
X7.02Y-2.535
X7.42Y-2.535
X3.27Y-2.535
X3.67Y-2.535
X7.77Y-2.535
X8.17Y-2.535
X10.02Y-3.285
X10.42Y-3.285
X4.77Y-4.035
X5.17Y-4.035
T3
X1.6Y-3.94
X1.6Y-4.88
X1.025Y-3.94
X1.025Y-4.88
X1.6Y-2.44
X1.6Y-3.38
X4.595Y-5.06
X9.095Y-5.06
X1.025Y-2.44
X1.025Y-3.38
T4
X5.72Y-4.035
X4.97Y-4.785
X4.22Y-3.285
X8.72Y-2.535
X1.875Y-2.91
X2.2Y-2.44
X2.2Y-3.38
X4.595Y-4.46
X6.845Y-4.785
X9.095Y-4.46
X7.97Y-3.285
X7.97Y-4.035
X6.47Y-4.035
X10.22Y-4.785
X10.97Y-4.035
X5.72Y-4.785
X6.47Y-3.285
X2.72Y-2.535
X5.72Y-2.535
X2.72Y-3.285
X9.9377Y-4.785
X8.72Y-3.285
X10.875Y-4.785
X9.47Y-4.035
X8.72Y-4.035
X8.72Y-4.785
X7.22Y-4.785
X6.47Y-4.785
X5.72Y-3.285
X0.425Y-2.44
X0.425Y-3.38
X0.75Y-2.91
X3.47Y-3.285
X2.815Y-4.785
X9.47Y-3.285
X4.22Y-4.035
X9.47Y-4.785
X4.22Y-4.785
X7.97Y-4.785
X4.22Y-2.535
X6.47Y-2.535
X4.97Y-3.285
X10.97Y-3.285
X3.47Y-4.035
X2.72Y-4.785
X10.97Y-4.785
X7.22Y-2.535
X3.47Y-2.535
X7.97Y-2.535
X10.22Y-3.285
X4.97Y-4.035
X10.97Y-2.535
X9.47Y-2.535
X3.75Y-4.7853
X10.22Y-4.035
X1.875Y-4.41
X2.2Y-3.94
X2.2Y-4.88
X7.22Y-4.035
X3.47Y-4.785
X4.97Y-2.535
X10.22Y-2.535
X7.22Y-3.285
X0.425Y-3.94
X0.425Y-4.88
X0.75Y-4.41
X2.72Y-4.035
T0
M30
